<svg width="210" height="210" viewBox="0 0 210 210" fill="none" xmlns="http://www.w3.org/2000/svg">
<g clip-path="url(#clip0_917_2327)">
<rect x="2.5" y="2.5" width="205" height="205" rx="45.5" fill="url(#paint0_linear_917_2327)" stroke="url(#paint1_linear_917_2327)" stroke-width="5"/>
<path opacity="0.01" d="M29.9648 140.352L21.4688 165H16.332L27.0352 136.562H30.3164L29.9648 140.352ZM37.0742 165L28.5586 140.352L28.1875 136.562H31.4883L42.2305 165H37.0742ZM36.6641 154.453V158.34H21.1953V154.453H36.6641ZM49.9844 143.867V165H45.2578V143.867H49.9844ZM44.9453 138.32C44.9453 137.604 45.1797 137.012 45.6484 136.543C46.1302 136.061 46.7943 135.82 47.6406 135.82C48.474 135.82 49.1315 136.061 49.6133 136.543C50.0951 137.012 50.3359 137.604 50.3359 138.32C50.3359 139.023 50.0951 139.609 49.6133 140.078C49.1315 140.547 48.474 140.781 47.6406 140.781C46.7943 140.781 46.1302 140.547 45.6484 140.078C45.1797 139.609 44.9453 139.023 44.9453 138.32ZM29.9648 187.352L21.4688 212H16.332L27.0352 183.562H30.3164L29.9648 187.352ZM37.0742 212L28.5586 187.352L28.1875 183.562H31.4883L42.2305 212H37.0742ZM36.6641 201.453V205.34H21.1953V201.453H36.6641ZM56.8008 206.277C56.8008 205.809 56.6836 205.385 56.4492 205.008C56.2148 204.617 55.7656 204.266 55.1016 203.953C54.4505 203.641 53.487 203.354 52.2109 203.094C51.0911 202.846 50.0625 202.553 49.125 202.215C48.2005 201.863 47.4062 201.44 46.7422 200.945C46.0781 200.451 45.5638 199.865 45.1992 199.188C44.8346 198.51 44.6523 197.729 44.6523 196.844C44.6523 195.984 44.8411 195.171 45.2188 194.402C45.5964 193.634 46.1367 192.957 46.8398 192.371C47.543 191.785 48.3958 191.323 49.3984 190.984C50.4141 190.646 51.5469 190.477 52.7969 190.477C54.5677 190.477 56.0846 190.776 57.3477 191.375C58.6237 191.961 59.6003 192.762 60.2773 193.777C60.9544 194.78 61.293 195.913 61.293 197.176H56.5859C56.5859 196.616 56.4427 196.095 56.1562 195.613C55.8828 195.118 55.4661 194.721 54.9062 194.422C54.3464 194.109 53.6432 193.953 52.7969 193.953C51.9896 193.953 51.319 194.083 50.7852 194.344C50.2643 194.591 49.8737 194.917 49.6133 195.32C49.3659 195.724 49.2422 196.167 49.2422 196.648C49.2422 197 49.3073 197.319 49.4375 197.605C49.5807 197.879 49.8151 198.133 50.1406 198.367C50.4661 198.589 50.9089 198.797 51.4688 198.992C52.0417 199.188 52.7578 199.376 53.6172 199.559C55.2318 199.897 56.6185 200.333 57.7773 200.867C58.9492 201.388 59.8477 202.065 60.4727 202.898C61.0977 203.719 61.4102 204.76 61.4102 206.023C61.4102 206.961 61.2083 207.82 60.8047 208.602C60.4141 209.37 59.8411 210.04 59.0859 210.613C58.3307 211.173 57.4258 211.609 56.3711 211.922C55.3294 212.234 54.1576 212.391 52.8555 212.391C50.9414 212.391 49.3203 212.052 47.9922 211.375C46.6641 210.685 45.6549 209.806 44.9648 208.738C44.2878 207.658 43.9492 206.538 43.9492 205.379H48.5C48.5521 206.251 48.793 206.948 49.2227 207.469C49.6654 207.977 50.2122 208.348 50.8633 208.582C51.5273 208.803 52.2109 208.914 52.9141 208.914C53.7604 208.914 54.4701 208.803 55.043 208.582C55.6159 208.348 56.0521 208.035 56.3516 207.645C56.651 207.241 56.8008 206.785 56.8008 206.277ZM77.3867 206.277C77.3867 205.809 77.2695 205.385 77.0352 205.008C76.8008 204.617 76.3516 204.266 75.6875 203.953C75.0365 203.641 74.0729 203.354 72.7969 203.094C71.6771 202.846 70.6484 202.553 69.7109 202.215C68.7865 201.863 67.9922 201.44 67.3281 200.945C66.6641 200.451 66.1497 199.865 65.7852 199.188C65.4206 198.51 65.2383 197.729 65.2383 196.844C65.2383 195.984 65.4271 195.171 65.8047 194.402C66.1823 193.634 66.7227 192.957 67.4258 192.371C68.1289 191.785 68.9818 191.323 69.9844 190.984C71 190.646 72.1328 190.477 73.3828 190.477C75.1536 190.477 76.6706 190.776 77.9336 191.375C79.2096 191.961 80.1862 192.762 80.8633 193.777C81.5404 194.78 81.8789 195.913 81.8789 197.176H77.1719C77.1719 196.616 77.0286 196.095 76.7422 195.613C76.4688 195.118 76.0521 194.721 75.4922 194.422C74.9323 194.109 74.2292 193.953 73.3828 193.953C72.5755 193.953 71.9049 194.083 71.3711 194.344C70.8503 194.591 70.4596 194.917 70.1992 195.32C69.9518 195.724 69.8281 196.167 69.8281 196.648C69.8281 197 69.8932 197.319 70.0234 197.605C70.1667 197.879 70.401 198.133 70.7266 198.367C71.0521 198.589 71.4948 198.797 72.0547 198.992C72.6276 199.188 73.3438 199.376 74.2031 199.559C75.8177 199.897 77.2044 200.333 78.3633 200.867C79.5352 201.388 80.4336 202.065 81.0586 202.898C81.6836 203.719 81.9961 204.76 81.9961 206.023C81.9961 206.961 81.7943 207.82 81.3906 208.602C81 209.37 80.4271 210.04 79.6719 210.613C78.9167 211.173 78.0117 211.609 76.957 211.922C75.9154 212.234 74.7435 212.391 73.4414 212.391C71.5273 212.391 69.9062 212.052 68.5781 211.375C67.25 210.685 66.2409 209.806 65.5508 208.738C64.8737 207.658 64.5352 206.538 64.5352 205.379H69.0859C69.138 206.251 69.3789 206.948 69.8086 207.469C70.2513 207.977 70.7982 208.348 71.4492 208.582C72.1133 208.803 72.7969 208.914 73.5 208.914C74.3464 208.914 75.056 208.803 75.6289 208.582C76.2018 208.348 76.638 208.035 76.9375 207.645C77.237 207.241 77.3867 206.785 77.3867 206.277ZM91.1562 190.867V212H86.4297V190.867H91.1562ZM86.1172 185.32C86.1172 184.604 86.3516 184.012 86.8203 183.543C87.3021 183.061 87.9661 182.82 88.8125 182.82C89.6458 182.82 90.3034 183.061 90.7852 183.543C91.2669 184.012 91.5078 184.604 91.5078 185.32C91.5078 186.023 91.2669 186.609 90.7852 187.078C90.3034 187.547 89.6458 187.781 88.8125 187.781C87.9661 187.781 87.3021 187.547 86.8203 187.078C86.3516 186.609 86.1172 186.023 86.1172 185.32ZM108.168 206.277C108.168 205.809 108.051 205.385 107.816 205.008C107.582 204.617 107.133 204.266 106.469 203.953C105.818 203.641 104.854 203.354 103.578 203.094C102.458 202.846 101.43 202.553 100.492 202.215C99.5677 201.863 98.7734 201.44 98.1094 200.945C97.4453 200.451 96.931 199.865 96.5664 199.188C96.2018 198.51 96.0195 197.729 96.0195 196.844C96.0195 195.984 96.2083 195.171 96.5859 194.402C96.9635 193.634 97.5039 192.957 98.207 192.371C98.9102 191.785 99.763 191.323 100.766 190.984C101.781 190.646 102.914 190.477 104.164 190.477C105.935 190.477 107.452 190.776 108.715 191.375C109.991 191.961 110.967 192.762 111.645 193.777C112.322 194.78 112.66 195.913 112.66 197.176H107.953C107.953 196.616 107.81 196.095 107.523 195.613C107.25 195.118 106.833 194.721 106.273 194.422C105.714 194.109 105.01 193.953 104.164 193.953C103.357 193.953 102.686 194.083 102.152 194.344C101.632 194.591 101.241 194.917 100.98 195.32C100.733 195.724 100.609 196.167 100.609 196.648C100.609 197 100.674 197.319 100.805 197.605C100.948 197.879 101.182 198.133 101.508 198.367C101.833 198.589 102.276 198.797 102.836 198.992C103.409 199.188 104.125 199.376 104.984 199.559C106.599 199.897 107.986 200.333 109.145 200.867C110.316 201.388 111.215 202.065 111.84 202.898C112.465 203.719 112.777 204.76 112.777 206.023C112.777 206.961 112.576 207.82 112.172 208.602C111.781 209.37 111.208 210.04 110.453 210.613C109.698 211.173 108.793 211.609 107.738 211.922C106.697 212.234 105.525 212.391 104.223 212.391C102.309 212.391 100.688 212.052 99.3594 211.375C98.0312 210.685 97.0221 209.806 96.332 208.738C95.6549 207.658 95.3164 206.538 95.3164 205.379H99.8672C99.9193 206.251 100.16 206.948 100.59 207.469C101.033 207.977 101.579 208.348 102.23 208.582C102.895 208.803 103.578 208.914 104.281 208.914C105.128 208.914 105.837 208.803 106.41 208.582C106.983 208.348 107.419 208.035 107.719 207.645C108.018 207.241 108.168 206.785 108.168 206.277ZM126.586 190.867V194.305H114.672V190.867H126.586ZM118.109 185.691H122.816V206.16C122.816 206.811 122.908 207.312 123.09 207.664C123.285 208.003 123.552 208.23 123.891 208.348C124.229 208.465 124.626 208.523 125.082 208.523C125.408 208.523 125.72 208.504 126.02 208.465C126.319 208.426 126.56 208.387 126.742 208.348L126.762 211.941C126.371 212.059 125.915 212.163 125.395 212.254C124.887 212.345 124.301 212.391 123.637 212.391C122.556 212.391 121.599 212.202 120.766 211.824C119.932 211.434 119.281 210.802 118.812 209.93C118.344 209.057 118.109 207.898 118.109 206.453V185.691ZM142.133 207.762V197.684C142.133 196.928 141.996 196.277 141.723 195.73C141.449 195.184 141.033 194.76 140.473 194.461C139.926 194.161 139.236 194.012 138.402 194.012C137.634 194.012 136.97 194.142 136.41 194.402C135.85 194.663 135.414 195.014 135.102 195.457C134.789 195.9 134.633 196.401 134.633 196.961H129.945C129.945 196.128 130.147 195.32 130.551 194.539C130.954 193.758 131.54 193.061 132.309 192.449C133.077 191.837 133.995 191.355 135.062 191.004C136.13 190.652 137.328 190.477 138.656 190.477C140.245 190.477 141.651 190.743 142.875 191.277C144.112 191.811 145.082 192.618 145.785 193.699C146.501 194.767 146.859 196.108 146.859 197.723V207.117C146.859 208.081 146.924 208.947 147.055 209.715C147.198 210.47 147.4 211.128 147.66 211.688V212H142.836C142.615 211.492 142.439 210.848 142.309 210.066C142.191 209.272 142.133 208.504 142.133 207.762ZM142.816 199.148L142.855 202.059H139.477C138.604 202.059 137.836 202.143 137.172 202.312C136.508 202.469 135.954 202.703 135.512 203.016C135.069 203.328 134.737 203.706 134.516 204.148C134.294 204.591 134.184 205.092 134.184 205.652C134.184 206.212 134.314 206.727 134.574 207.195C134.835 207.651 135.212 208.009 135.707 208.27C136.215 208.53 136.827 208.66 137.543 208.66C138.507 208.66 139.346 208.465 140.062 208.074C140.792 207.671 141.365 207.182 141.781 206.609C142.198 206.023 142.419 205.47 142.445 204.949L143.969 207.039C143.812 207.573 143.546 208.146 143.168 208.758C142.79 209.37 142.296 209.956 141.684 210.516C141.085 211.062 140.362 211.512 139.516 211.863C138.682 212.215 137.719 212.391 136.625 212.391C135.245 212.391 134.014 212.117 132.934 211.57C131.853 211.01 131.007 210.262 130.395 209.324C129.783 208.374 129.477 207.299 129.477 206.102C129.477 204.982 129.685 203.992 130.102 203.133C130.531 202.26 131.156 201.531 131.977 200.945C132.81 200.359 133.826 199.917 135.023 199.617C136.221 199.305 137.589 199.148 139.125 199.148H142.816ZM156.449 195.379V212H151.742V190.867H156.176L156.449 195.379ZM155.609 200.652L154.086 200.633C154.099 199.135 154.307 197.762 154.711 196.512C155.128 195.262 155.701 194.188 156.43 193.289C157.172 192.391 158.057 191.701 159.086 191.219C160.115 190.724 161.26 190.477 162.523 190.477C163.539 190.477 164.457 190.62 165.277 190.906C166.111 191.18 166.82 191.629 167.406 192.254C168.005 192.879 168.461 193.693 168.773 194.695C169.086 195.685 169.242 196.902 169.242 198.348V212H164.516V198.328C164.516 197.312 164.366 196.512 164.066 195.926C163.78 195.327 163.357 194.904 162.797 194.656C162.25 194.396 161.566 194.266 160.746 194.266C159.939 194.266 159.216 194.435 158.578 194.773C157.94 195.112 157.4 195.574 156.957 196.16C156.527 196.746 156.195 197.423 155.961 198.191C155.727 198.96 155.609 199.78 155.609 200.652ZM183.734 190.867V194.305H171.82V190.867H183.734ZM175.258 185.691H179.965V206.16C179.965 206.811 180.056 207.312 180.238 207.664C180.434 208.003 180.701 208.23 181.039 208.348C181.378 208.465 181.775 208.523 182.23 208.523C182.556 208.523 182.868 208.504 183.168 208.465C183.467 208.426 183.708 208.387 183.891 208.348L183.91 211.941C183.52 212.059 183.064 212.163 182.543 212.254C182.035 212.345 181.449 212.391 180.785 212.391C179.704 212.391 178.747 212.202 177.914 211.824C177.081 211.434 176.43 210.802 175.961 209.93C175.492 209.057 175.258 207.898 175.258 206.453V185.691Z" fill="#E8E8E8"/>
<path d="M25.6445 40.5391V25H27.8242V43H25.832L25.6445 40.5391ZM17.1133 36.8008V36.5547C17.1133 35.5859 17.2305 34.707 17.4648 33.918C17.707 33.1211 18.0469 32.4375 18.4844 31.8672C18.9297 31.2969 19.457 30.8594 20.0664 30.5547C20.6836 30.2422 21.3711 30.0859 22.1289 30.0859C22.9258 30.0859 23.6211 30.2266 24.2148 30.5078C24.8164 30.7812 25.3242 31.1836 25.7383 31.7148C26.1602 32.2383 26.4922 32.8711 26.7344 33.6133C26.9766 34.3555 27.1445 35.1953 27.2383 36.1328V37.2109C27.1523 38.1406 26.9844 38.9766 26.7344 39.7188C26.4922 40.4609 26.1602 41.0938 25.7383 41.6172C25.3242 42.1406 24.8164 42.543 24.2148 42.8242C23.6133 43.0977 22.9102 43.2344 22.1055 43.2344C21.3633 43.2344 20.6836 43.0742 20.0664 42.7539C19.457 42.4336 18.9297 41.9844 18.4844 41.4062C18.0469 40.8281 17.707 40.1484 17.4648 39.3672C17.2305 38.5781 17.1133 37.7227 17.1133 36.8008ZM19.293 36.5547V36.8008C19.293 37.4336 19.3555 38.0273 19.4805 38.582C19.6133 39.1367 19.8164 39.625 20.0898 40.0469C20.3633 40.4688 20.7109 40.8008 21.1328 41.043C21.5547 41.2773 22.0586 41.3945 22.6445 41.3945C23.3633 41.3945 23.9531 41.2422 24.4141 40.9375C24.8828 40.6328 25.2578 40.2305 25.5391 39.7305C25.8203 39.2305 26.0391 38.6875 26.1953 38.1016V35.2773C26.1016 34.8477 25.9648 34.4336 25.7852 34.0352C25.6133 33.6289 25.3867 33.2695 25.1055 32.957C24.832 32.6367 24.4922 32.3828 24.0859 32.1953C23.6875 32.0078 23.2148 31.9141 22.668 31.9141C22.0742 31.9141 21.5625 32.0391 21.1328 32.2891C20.7109 32.5312 20.3633 32.8672 20.0898 33.2969C19.8164 33.7188 19.6133 34.2109 19.4805 34.7734C19.3555 35.3281 19.293 35.9219 19.293 36.5547ZM36.4609 43.2344C35.5781 43.2344 34.7773 43.0859 34.0586 42.7891C33.3477 42.4844 32.7344 42.0586 32.2188 41.5117C31.7109 40.9648 31.3203 40.3164 31.0469 39.5664C30.7734 38.8164 30.6367 37.9961 30.6367 37.1055V36.6133C30.6367 35.582 30.7891 34.6641 31.0938 33.8594C31.3984 33.0469 31.8125 32.3594 32.3359 31.7969C32.8594 31.2344 33.4531 30.8086 34.1172 30.5195C34.7812 30.2305 35.4688 30.0859 36.1797 30.0859C37.0859 30.0859 37.8672 30.2422 38.5234 30.5547C39.1875 30.8672 39.7305 31.3047 40.1523 31.8672C40.5742 32.4219 40.8867 33.0781 41.0898 33.8359C41.293 34.5859 41.3945 35.4062 41.3945 36.2969V37.2695H31.9258V35.5H39.2266V35.3359C39.1953 34.7734 39.0781 34.2266 38.875 33.6953C38.6797 33.1641 38.3672 32.7266 37.9375 32.3828C37.5078 32.0391 36.9219 31.8672 36.1797 31.8672C35.6875 31.8672 35.2344 31.9727 34.8203 32.1836C34.4062 32.3867 34.0508 32.6914 33.7539 33.0977C33.457 33.5039 33.2266 34 33.0625 34.5859C32.8984 35.1719 32.8164 35.8477 32.8164 36.6133V37.1055C32.8164 37.707 32.8984 38.2734 33.0625 38.8047C33.2344 39.3281 33.4805 39.7891 33.8008 40.1875C34.1289 40.5859 34.5234 40.8984 34.9844 41.125C35.4531 41.3516 35.9844 41.4648 36.5781 41.4648C37.3438 41.4648 37.9922 41.3086 38.5234 40.9961C39.0547 40.6836 39.5195 40.2656 39.918 39.7422L41.2305 40.7852C40.957 41.1992 40.6094 41.5938 40.1875 41.9688C39.7656 42.3438 39.2461 42.6484 38.6289 42.8828C38.0195 43.1172 37.2969 43.2344 36.4609 43.2344ZM51.3086 39.6367C51.3086 39.3242 51.2383 39.0352 51.0977 38.7695C50.9648 38.4961 50.6875 38.25 50.2656 38.0312C49.8516 37.8047 49.2266 37.6094 48.3906 37.4453C47.6875 37.2969 47.0508 37.1211 46.4805 36.918C45.918 36.7148 45.4375 36.4688 45.0391 36.1797C44.6484 35.8906 44.3477 35.5508 44.1367 35.1602C43.9258 34.7695 43.8203 34.3125 43.8203 33.7891C43.8203 33.2891 43.9297 32.8164 44.1484 32.3711C44.375 31.9258 44.6914 31.5312 45.0977 31.1875C45.5117 30.8438 46.0078 30.5742 46.5859 30.3789C47.1641 30.1836 47.8086 30.0859 48.5195 30.0859C49.5352 30.0859 50.4023 30.2656 51.1211 30.625C51.8398 30.9844 52.3906 31.4648 52.7734 32.0664C53.1562 32.6602 53.3477 33.3203 53.3477 34.0469H51.1797C51.1797 33.6953 51.0742 33.3555 50.8633 33.0273C50.6602 32.6914 50.3594 32.4141 49.9609 32.1953C49.5703 31.9766 49.0898 31.8672 48.5195 31.8672C47.918 31.8672 47.4297 31.9609 47.0547 32.1484C46.6875 32.3281 46.418 32.5586 46.2461 32.8398C46.082 33.1211 46 33.418 46 33.7305C46 33.9648 46.0391 34.1758 46.1172 34.3633C46.2031 34.543 46.3516 34.7109 46.5625 34.8672C46.7734 35.0156 47.0703 35.1562 47.4531 35.2891C47.8359 35.4219 48.3242 35.5547 48.918 35.6875C49.957 35.9219 50.8125 36.2031 51.4844 36.5312C52.1562 36.8594 52.6562 37.2617 52.9844 37.7383C53.3125 38.2148 53.4766 38.793 53.4766 39.4727C53.4766 40.0273 53.3594 40.5352 53.125 40.9961C52.8984 41.457 52.5664 41.8555 52.1289 42.1914C51.6992 42.5195 51.1836 42.7773 50.582 42.9648C49.9883 43.1445 49.3203 43.2344 48.5781 43.2344C47.4609 43.2344 46.5156 43.0352 45.7422 42.6367C44.9688 42.2383 44.3828 41.7227 43.9844 41.0898C43.5859 40.457 43.3867 39.7891 43.3867 39.0859H45.5664C45.5977 39.6797 45.7695 40.1523 46.082 40.5039C46.3945 40.8477 46.7773 41.0938 47.2305 41.2422C47.6836 41.3828 48.1328 41.4531 48.5781 41.4531C49.1719 41.4531 49.668 41.375 50.0664 41.2188C50.4727 41.0625 50.7812 40.8477 50.9922 40.5742C51.2031 40.3008 51.3086 39.9883 51.3086 39.6367ZM58.6797 30.3203V43H56.5V30.3203H58.6797ZM56.3359 26.957C56.3359 26.6055 56.4414 26.3086 56.6523 26.0664C56.8711 25.8242 57.1914 25.7031 57.6133 25.7031C58.0273 25.7031 58.3438 25.8242 58.5625 26.0664C58.7891 26.3086 58.9023 26.6055 58.9023 26.957C58.9023 27.293 58.7891 27.582 58.5625 27.8242C58.3438 28.0586 58.0273 28.1758 57.6133 28.1758C57.1914 28.1758 56.8711 28.0586 56.6523 27.8242C56.4414 27.582 56.3359 27.293 56.3359 26.957ZM70.375 30.3203H72.3438V42.7305C72.3438 43.8477 72.1172 44.8008 71.6641 45.5898C71.2109 46.3789 70.5781 46.9766 69.7656 47.3828C68.9609 47.7969 68.0312 48.0039 66.9766 48.0039C66.5391 48.0039 66.0234 47.9336 65.4297 47.793C64.8438 47.6602 64.2656 47.4297 63.6953 47.1016C63.1328 46.7812 62.6602 46.3477 62.2773 45.8008L63.4141 44.5117C63.9453 45.1523 64.5 45.5977 65.0781 45.8477C65.6641 46.0977 66.2422 46.2227 66.8125 46.2227C67.5 46.2227 68.0938 46.0938 68.5938 45.8359C69.0938 45.5781 69.4805 45.1953 69.7539 44.6875C70.0352 44.1875 70.1758 43.5703 70.1758 42.8359V33.1094L70.375 30.3203ZM61.6445 36.8008V36.5547C61.6445 35.5859 61.7578 34.707 61.9844 33.918C62.2188 33.1211 62.5508 32.4375 62.9805 31.8672C63.418 31.2969 63.9453 30.8594 64.5625 30.5547C65.1797 30.2422 65.875 30.0859 66.6484 30.0859C67.4453 30.0859 68.1406 30.2266 68.7344 30.5078C69.3359 30.7812 69.8438 31.1836 70.2578 31.7148C70.6797 32.2383 71.0117 32.8711 71.2539 33.6133C71.4961 34.3555 71.6641 35.1953 71.7578 36.1328V37.2109C71.6719 38.1406 71.5039 38.9766 71.2539 39.7188C71.0117 40.4609 70.6797 41.0938 70.2578 41.6172C69.8438 42.1406 69.3359 42.543 68.7344 42.8242C68.1328 43.0977 67.4297 43.2344 66.625 43.2344C65.8672 43.2344 65.1797 43.0742 64.5625 42.7539C63.9531 42.4336 63.4297 41.9844 62.9922 41.4062C62.5547 40.8281 62.2188 40.1484 61.9844 39.3672C61.7578 38.5781 61.6445 37.7227 61.6445 36.8008ZM63.8125 36.5547V36.8008C63.8125 37.4336 63.875 38.0273 64 38.582C64.1328 39.1367 64.332 39.625 64.5977 40.0469C64.8711 40.4688 65.2188 40.8008 65.6406 41.043C66.0625 41.2773 66.5664 41.3945 67.1523 41.3945C67.8711 41.3945 68.4648 41.2422 68.9336 40.9375C69.4023 40.6328 69.7734 40.2305 70.0469 39.7305C70.3281 39.2305 70.5469 38.6875 70.7031 38.1016V35.2773C70.6172 34.8477 70.4844 34.4336 70.3047 34.0352C70.1328 33.6289 69.9062 33.2695 69.625 32.957C69.3516 32.6367 69.0117 32.3828 68.6055 32.1953C68.1992 32.0078 67.7227 31.9141 67.1758 31.9141C66.582 31.9141 66.0703 32.0391 65.6406 32.2891C65.2188 32.5312 64.8711 32.8672 64.5977 33.2969C64.332 33.7188 64.1328 34.2109 64 34.7734C63.875 35.3281 63.8125 35.9219 63.8125 36.5547ZM77.8047 33.0273V43H75.6367V30.3203H77.6875L77.8047 33.0273ZM77.2891 36.1797L76.3867 36.1445C76.3945 35.2773 76.5234 34.4766 76.7734 33.7422C77.0234 33 77.375 32.3555 77.8281 31.8086C78.2812 31.2617 78.8203 30.8398 79.4453 30.543C80.0781 30.2383 80.7773 30.0859 81.543 30.0859C82.168 30.0859 82.7305 30.1719 83.2305 30.3438C83.7305 30.5078 84.1562 30.7734 84.5078 31.1406C84.8672 31.5078 85.1406 31.9844 85.3281 32.5703C85.5156 33.1484 85.6094 33.8555 85.6094 34.6914V43H83.4297V34.668C83.4297 34.0039 83.332 33.4727 83.1367 33.0742C82.9414 32.668 82.6562 32.375 82.2812 32.1953C81.9062 32.0078 81.4453 31.9141 80.8984 31.9141C80.3594 31.9141 79.8672 32.0273 79.4219 32.2539C78.9844 32.4805 78.6055 32.793 78.2852 33.1914C77.9727 33.5898 77.7266 34.0469 77.5469 34.5625C77.375 35.0703 77.2891 35.6094 77.2891 36.1797ZM94.1641 43.2344C93.2812 43.2344 92.4805 43.0859 91.7617 42.7891C91.0508 42.4844 90.4375 42.0586 89.9219 41.5117C89.4141 40.9648 89.0234 40.3164 88.75 39.5664C88.4766 38.8164 88.3398 37.9961 88.3398 37.1055V36.6133C88.3398 35.582 88.4922 34.6641 88.7969 33.8594C89.1016 33.0469 89.5156 32.3594 90.0391 31.7969C90.5625 31.2344 91.1562 30.8086 91.8203 30.5195C92.4844 30.2305 93.1719 30.0859 93.8828 30.0859C94.7891 30.0859 95.5703 30.2422 96.2266 30.5547C96.8906 30.8672 97.4336 31.3047 97.8555 31.8672C98.2773 32.4219 98.5898 33.0781 98.793 33.8359C98.9961 34.5859 99.0977 35.4062 99.0977 36.2969V37.2695H89.6289V35.5H96.9297V35.3359C96.8984 34.7734 96.7812 34.2266 96.5781 33.6953C96.3828 33.1641 96.0703 32.7266 95.6406 32.3828C95.2109 32.0391 94.625 31.8672 93.8828 31.8672C93.3906 31.8672 92.9375 31.9727 92.5234 32.1836C92.1094 32.3867 91.7539 32.6914 91.457 33.0977C91.1602 33.5039 90.9297 34 90.7656 34.5859C90.6016 35.1719 90.5195 35.8477 90.5195 36.6133V37.1055C90.5195 37.707 90.6016 38.2734 90.7656 38.8047C90.9375 39.3281 91.1836 39.7891 91.5039 40.1875C91.832 40.5859 92.2266 40.8984 92.6875 41.125C93.1562 41.3516 93.6875 41.4648 94.2812 41.4648C95.0469 41.4648 95.6953 41.3086 96.2266 40.9961C96.7578 40.6836 97.2227 40.2656 97.6211 39.7422L98.9336 40.7852C98.6602 41.1992 98.3125 41.5938 97.8906 41.9688C97.4688 42.3438 96.9492 42.6484 96.332 42.8828C95.7227 43.1172 95 43.2344 94.1641 43.2344ZM109.621 40.5391V25H111.801V43H109.809L109.621 40.5391ZM101.09 36.8008V36.5547C101.09 35.5859 101.207 34.707 101.441 33.918C101.684 33.1211 102.023 32.4375 102.461 31.8672C102.906 31.2969 103.434 30.8594 104.043 30.5547C104.66 30.2422 105.348 30.0859 106.105 30.0859C106.902 30.0859 107.598 30.2266 108.191 30.5078C108.793 30.7812 109.301 31.1836 109.715 31.7148C110.137 32.2383 110.469 32.8711 110.711 33.6133C110.953 34.3555 111.121 35.1953 111.215 36.1328V37.2109C111.129 38.1406 110.961 38.9766 110.711 39.7188C110.469 40.4609 110.137 41.0938 109.715 41.6172C109.301 42.1406 108.793 42.543 108.191 42.8242C107.59 43.0977 106.887 43.2344 106.082 43.2344C105.34 43.2344 104.66 43.0742 104.043 42.7539C103.434 42.4336 102.906 41.9844 102.461 41.4062C102.023 40.8281 101.684 40.1484 101.441 39.3672C101.207 38.5781 101.09 37.7227 101.09 36.8008ZM103.27 36.5547V36.8008C103.27 37.4336 103.332 38.0273 103.457 38.582C103.59 39.1367 103.793 39.625 104.066 40.0469C104.34 40.4688 104.688 40.8008 105.109 41.043C105.531 41.2773 106.035 41.3945 106.621 41.3945C107.34 41.3945 107.93 41.2422 108.391 40.9375C108.859 40.6328 109.234 40.2305 109.516 39.7305C109.797 39.2305 110.016 38.6875 110.172 38.1016V35.2773C110.078 34.8477 109.941 34.4336 109.762 34.0352C109.59 33.6289 109.363 33.2695 109.082 32.957C108.809 32.6367 108.469 32.3828 108.062 32.1953C107.664 32.0078 107.191 31.9141 106.645 31.9141C106.051 31.9141 105.539 32.0391 105.109 32.2891C104.688 32.5312 104.34 32.8672 104.066 33.2969C103.793 33.7188 103.59 34.2109 103.457 34.7734C103.332 35.3281 103.27 35.9219 103.27 36.5547ZM126.438 30.3203V31.9844H119.582V30.3203H126.438ZM121.902 27.2383H124.07V39.8594C124.07 40.2891 124.137 40.6133 124.27 40.832C124.402 41.0508 124.574 41.1953 124.785 41.2656C124.996 41.3359 125.223 41.3711 125.465 41.3711C125.645 41.3711 125.832 41.3555 126.027 41.3242C126.23 41.2852 126.383 41.2539 126.484 41.2305L126.496 43C126.324 43.0547 126.098 43.1055 125.816 43.1523C125.543 43.207 125.211 43.2344 124.82 43.2344C124.289 43.2344 123.801 43.1289 123.355 42.918C122.91 42.707 122.555 42.3555 122.289 41.8633C122.031 41.3633 121.902 40.6914 121.902 39.8477V27.2383ZM128.172 36.8008V36.5312C128.172 35.6172 128.305 34.7695 128.57 33.9883C128.836 33.1992 129.219 32.5156 129.719 31.9375C130.219 31.3516 130.824 30.8984 131.535 30.5781C132.246 30.25 133.043 30.0859 133.926 30.0859C134.816 30.0859 135.617 30.25 136.328 30.5781C137.047 30.8984 137.656 31.3516 138.156 31.9375C138.664 32.5156 139.051 33.1992 139.316 33.9883C139.582 34.7695 139.715 35.6172 139.715 36.5312V36.8008C139.715 37.7148 139.582 38.5625 139.316 39.3438C139.051 40.125 138.664 40.8086 138.156 41.3945C137.656 41.9727 137.051 42.4258 136.34 42.7539C135.637 43.0742 134.84 43.2344 133.949 43.2344C133.059 43.2344 132.258 43.0742 131.547 42.7539C130.836 42.4258 130.227 41.9727 129.719 41.3945C129.219 40.8086 128.836 40.125 128.57 39.3438C128.305 38.5625 128.172 37.7148 128.172 36.8008ZM130.34 36.5312V36.8008C130.34 37.4336 130.414 38.0312 130.562 38.5938C130.711 39.1484 130.934 39.6406 131.23 40.0703C131.535 40.5 131.914 40.8398 132.367 41.0898C132.82 41.332 133.348 41.4531 133.949 41.4531C134.543 41.4531 135.062 41.332 135.508 41.0898C135.961 40.8398 136.336 40.5 136.633 40.0703C136.93 39.6406 137.152 39.1484 137.301 38.5938C137.457 38.0312 137.535 37.4336 137.535 36.8008V36.5312C137.535 35.9062 137.457 35.3164 137.301 34.7617C137.152 34.1992 136.926 33.7031 136.621 33.2734C136.324 32.8359 135.949 32.4922 135.496 32.2422C135.051 31.9922 134.527 31.8672 133.926 31.8672C133.332 31.8672 132.809 31.9922 132.355 32.2422C131.91 32.4922 131.535 32.8359 131.23 33.2734C130.934 33.7031 130.711 34.1992 130.562 34.7617C130.414 35.3164 130.34 35.9062 130.34 36.5312ZM22.7266 69.4531C23.2422 69.4531 23.7188 69.3477 24.1562 69.1367C24.5938 68.9258 24.9531 68.6367 25.2344 68.2695C25.5156 67.8945 25.6758 67.4688 25.7148 66.9922H27.7773C27.7383 67.7422 27.4844 68.4414 27.0156 69.0898C26.5547 69.7305 25.9492 70.25 25.1992 70.6484C24.4492 71.0391 23.625 71.2344 22.7266 71.2344C21.7734 71.2344 20.9414 71.0664 20.2305 70.7305C19.5273 70.3945 18.9414 69.9336 18.4727 69.3477C18.0117 68.7617 17.6641 68.0898 17.4297 67.332C17.2031 66.5664 17.0898 65.7578 17.0898 64.9062V64.4141C17.0898 63.5625 17.2031 62.7578 17.4297 62C17.6641 61.2344 18.0117 60.5586 18.4727 59.9727C18.9414 59.3867 19.5273 58.9258 20.2305 58.5898C20.9414 58.2539 21.7734 58.0859 22.7266 58.0859C23.7188 58.0859 24.5859 58.2891 25.3281 58.6953C26.0703 59.0938 26.6523 59.6406 27.0742 60.3359C27.5039 61.0234 27.7383 61.8047 27.7773 62.6797H25.7148C25.6758 62.1562 25.5273 61.6836 25.2695 61.2617C25.0195 60.8398 24.6758 60.5039 24.2383 60.2539C23.8086 59.9961 23.3047 59.8672 22.7266 59.8672C22.0625 59.8672 21.5039 60 21.0508 60.2656C20.6055 60.5234 20.25 60.875 19.9844 61.3203C19.7266 61.7578 19.5391 62.2461 19.4219 62.7852C19.3125 63.3164 19.2578 63.8594 19.2578 64.4141V64.9062C19.2578 65.4609 19.3125 66.0078 19.4219 66.5469C19.5312 67.0859 19.7148 67.5742 19.9727 68.0117C20.2383 68.4492 20.5938 68.8008 21.0391 69.0664C21.4922 69.3242 22.0547 69.4531 22.7266 69.4531ZM32.5703 53V71H30.3906V53H32.5703ZM41.3125 71.2344C40.4297 71.2344 39.6289 71.0859 38.9102 70.7891C38.1992 70.4844 37.5859 70.0586 37.0703 69.5117C36.5625 68.9648 36.1719 68.3164 35.8984 67.5664C35.625 66.8164 35.4883 65.9961 35.4883 65.1055V64.6133C35.4883 63.582 35.6406 62.6641 35.9453 61.8594C36.25 61.0469 36.6641 60.3594 37.1875 59.7969C37.7109 59.2344 38.3047 58.8086 38.9688 58.5195C39.6328 58.2305 40.3203 58.0859 41.0312 58.0859C41.9375 58.0859 42.7188 58.2422 43.375 58.5547C44.0391 58.8672 44.582 59.3047 45.0039 59.8672C45.4258 60.4219 45.7383 61.0781 45.9414 61.8359C46.1445 62.5859 46.2461 63.4062 46.2461 64.2969V65.2695H36.7773V63.5H44.0781V63.3359C44.0469 62.7734 43.9297 62.2266 43.7266 61.6953C43.5312 61.1641 43.2188 60.7266 42.7891 60.3828C42.3594 60.0391 41.7734 59.8672 41.0312 59.8672C40.5391 59.8672 40.0859 59.9727 39.6719 60.1836C39.2578 60.3867 38.9023 60.6914 38.6055 61.0977C38.3086 61.5039 38.0781 62 37.9141 62.5859C37.75 63.1719 37.668 63.8477 37.668 64.6133V65.1055C37.668 65.707 37.75 66.2734 37.9141 66.8047C38.0859 67.3281 38.332 67.7891 38.6523 68.1875C38.9805 68.5859 39.375 68.8984 39.8359 69.125C40.3047 69.3516 40.8359 69.4648 41.4297 69.4648C42.1953 69.4648 42.8438 69.3086 43.375 68.9961C43.9062 68.6836 44.3711 68.2656 44.7695 67.7422L46.082 68.7852C45.8086 69.1992 45.4609 69.5938 45.0391 69.9688C44.6172 70.3438 44.0977 70.6484 43.4805 70.8828C42.8711 71.1172 42.1484 71.2344 41.3125 71.2344ZM56.2539 68.832V62.3047C56.2539 61.8047 56.1523 61.3711 55.9492 61.0039C55.7539 60.6289 55.457 60.3398 55.0586 60.1367C54.6602 59.9336 54.168 59.832 53.582 59.832C53.0352 59.832 52.5547 59.9258 52.1406 60.1133C51.7344 60.3008 51.4141 60.5469 51.1797 60.8516C50.9531 61.1562 50.8398 61.4844 50.8398 61.8359H48.6719C48.6719 61.3828 48.7891 60.9336 49.0234 60.4883C49.2578 60.043 49.5938 59.6406 50.0312 59.2812C50.4766 58.9141 51.0078 58.625 51.625 58.4141C52.25 58.1953 52.9453 58.0859 53.7109 58.0859C54.6328 58.0859 55.4453 58.2422 56.1484 58.5547C56.8594 58.8672 57.4141 59.3398 57.8125 59.9727C58.2188 60.5977 58.4219 61.3828 58.4219 62.3281V68.2344C58.4219 68.6562 58.457 69.1055 58.5273 69.582C58.6055 70.0586 58.7188 70.4688 58.8672 70.8125V71H56.6055C56.4961 70.75 56.4102 70.418 56.3477 70.0039C56.2852 69.582 56.2539 69.1914 56.2539 68.832ZM56.6289 63.3125L56.6523 64.8359H54.4609C53.8438 64.8359 53.293 64.8867 52.8086 64.9883C52.3242 65.082 51.918 65.2266 51.5898 65.4219C51.2617 65.6172 51.0117 65.8633 50.8398 66.1602C50.668 66.4492 50.582 66.7891 50.582 67.1797C50.582 67.5781 50.6719 67.9414 50.8516 68.2695C51.0312 68.5977 51.3008 68.8594 51.6602 69.0547C52.0273 69.2422 52.4766 69.3359 53.0078 69.3359C53.6719 69.3359 54.2578 69.1953 54.7656 68.9141C55.2734 68.6328 55.6758 68.2891 55.9727 67.8828C56.2773 67.4766 56.4414 67.082 56.4648 66.6992L57.3906 67.7422C57.3359 68.0703 57.1875 68.4336 56.9453 68.832C56.7031 69.2305 56.3789 69.6133 55.9727 69.9805C55.5742 70.3398 55.0977 70.6406 54.543 70.8828C53.9961 71.1172 53.3789 71.2344 52.6914 71.2344C51.832 71.2344 51.0781 71.0664 50.4297 70.7305C49.7891 70.3945 49.2891 69.9453 48.9297 69.3828C48.5781 68.8125 48.4023 68.1758 48.4023 67.4727C48.4023 66.793 48.5352 66.1953 48.8008 65.6797C49.0664 65.1562 49.4492 64.7227 49.9492 64.3789C50.4492 64.0273 51.0508 63.7617 51.7539 63.582C52.457 63.4023 53.2422 63.3125 54.1094 63.3125H56.6289ZM64 60.3125V71H61.832V58.3203H63.9414L64 60.3125ZM67.9609 58.25L67.9492 60.2656C67.7695 60.2266 67.5977 60.2031 67.4336 60.1953C67.2773 60.1797 67.0977 60.1719 66.8945 60.1719C66.3945 60.1719 65.9531 60.25 65.5703 60.4062C65.1875 60.5625 64.8633 60.7812 64.5977 61.0625C64.332 61.3438 64.1211 61.6797 63.9648 62.0703C63.8164 62.4531 63.7188 62.875 63.6719 63.3359L63.0625 63.6875C63.0625 62.9219 63.1367 62.2031 63.2852 61.5312C63.4414 60.8594 63.6797 60.2656 64 59.75C64.3203 59.2266 64.7266 58.8203 65.2188 58.5312C65.7188 58.2344 66.3125 58.0859 67 58.0859C67.1562 58.0859 67.3359 58.1055 67.5391 58.1445C67.7422 58.1758 67.8828 58.2109 67.9609 58.25ZM79.4805 69.6875L83.0078 58.3203H85.3281L80.2422 72.957C80.125 73.2695 79.9688 73.6055 79.7734 73.9648C79.5859 74.332 79.3438 74.6797 79.0469 75.0078C78.75 75.3359 78.3906 75.6016 77.9688 75.8047C77.5547 76.0156 77.0586 76.1211 76.4805 76.1211C76.3086 76.1211 76.0898 76.0977 75.8242 76.0508C75.5586 76.0039 75.3711 75.9648 75.2617 75.9336L75.25 74.1758C75.3125 74.1836 75.4102 74.1914 75.543 74.1992C75.6836 74.2148 75.7812 74.2227 75.8359 74.2227C76.3281 74.2227 76.7461 74.1562 77.0898 74.0234C77.4336 73.8984 77.7227 73.6836 77.957 73.3789C78.1992 73.082 78.4062 72.6719 78.5781 72.1484L79.4805 69.6875ZM76.8906 58.3203L80.1836 68.1641L80.7461 70.4492L79.1875 71.2461L74.5234 58.3203H76.8906ZM86.5234 64.8008V64.5312C86.5234 63.6172 86.6562 62.7695 86.9219 61.9883C87.1875 61.1992 87.5703 60.5156 88.0703 59.9375C88.5703 59.3516 89.1758 58.8984 89.8867 58.5781C90.5977 58.25 91.3945 58.0859 92.2773 58.0859C93.168 58.0859 93.9688 58.25 94.6797 58.5781C95.3984 58.8984 96.0078 59.3516 96.5078 59.9375C97.0156 60.5156 97.4023 61.1992 97.668 61.9883C97.9336 62.7695 98.0664 63.6172 98.0664 64.5312V64.8008C98.0664 65.7148 97.9336 66.5625 97.668 67.3438C97.4023 68.125 97.0156 68.8086 96.5078 69.3945C96.0078 69.9727 95.4023 70.4258 94.6914 70.7539C93.9883 71.0742 93.1914 71.2344 92.3008 71.2344C91.4102 71.2344 90.6094 71.0742 89.8984 70.7539C89.1875 70.4258 88.5781 69.9727 88.0703 69.3945C87.5703 68.8086 87.1875 68.125 86.9219 67.3438C86.6562 66.5625 86.5234 65.7148 86.5234 64.8008ZM88.6914 64.5312V64.8008C88.6914 65.4336 88.7656 66.0312 88.9141 66.5938C89.0625 67.1484 89.2852 67.6406 89.582 68.0703C89.8867 68.5 90.2656 68.8398 90.7188 69.0898C91.1719 69.332 91.6992 69.4531 92.3008 69.4531C92.8945 69.4531 93.4141 69.332 93.8594 69.0898C94.3125 68.8398 94.6875 68.5 94.9844 68.0703C95.2812 67.6406 95.5039 67.1484 95.6523 66.5938C95.8086 66.0312 95.8867 65.4336 95.8867 64.8008V64.5312C95.8867 63.9062 95.8086 63.3164 95.6523 62.7617C95.5039 62.1992 95.2773 61.7031 94.9727 61.2734C94.6758 60.8359 94.3008 60.4922 93.8477 60.2422C93.4023 59.9922 92.8789 59.8672 92.2773 59.8672C91.6836 59.8672 91.1602 59.9922 90.707 60.2422C90.2617 60.4922 89.8867 60.8359 89.582 61.2734C89.2852 61.7031 89.0625 62.1992 88.9141 62.7617C88.7656 63.3164 88.6914 63.9062 88.6914 64.5312ZM108.543 68.0703V58.3203H110.723V71H108.648L108.543 68.0703ZM108.953 65.3984L109.855 65.375C109.855 66.2188 109.766 67 109.586 67.7188C109.414 68.4297 109.133 69.0469 108.742 69.5703C108.352 70.0938 107.84 70.5039 107.207 70.8008C106.574 71.0898 105.805 71.2344 104.898 71.2344C104.281 71.2344 103.715 71.1445 103.199 70.9648C102.691 70.7852 102.254 70.5078 101.887 70.1328C101.52 69.7578 101.234 69.2695 101.031 68.668C100.836 68.0664 100.738 67.3438 100.738 66.5V58.3203H102.906V66.5234C102.906 67.0938 102.969 67.5664 103.094 67.9414C103.227 68.3086 103.402 68.6016 103.621 68.8203C103.848 69.0312 104.098 69.1797 104.371 69.2656C104.652 69.3516 104.941 69.3945 105.238 69.3945C106.16 69.3945 106.891 69.2188 107.43 68.8672C107.969 68.5078 108.355 68.0273 108.59 67.4258C108.832 66.8164 108.953 66.1406 108.953 65.3984ZM116.195 60.3125V71H114.027V58.3203H116.137L116.195 60.3125ZM120.156 58.25L120.145 60.2656C119.965 60.2266 119.793 60.2031 119.629 60.1953C119.473 60.1797 119.293 60.1719 119.09 60.1719C118.59 60.1719 118.148 60.25 117.766 60.4062C117.383 60.5625 117.059 60.7812 116.793 61.0625C116.527 61.3438 116.316 61.6797 116.16 62.0703C116.012 62.4531 115.914 62.875 115.867 63.3359L115.258 63.6875C115.258 62.9219 115.332 62.2031 115.48 61.5312C115.637 60.8594 115.875 60.2656 116.195 59.75C116.516 59.2266 116.922 58.8203 117.414 58.5312C117.914 58.2344 118.508 58.0859 119.195 58.0859C119.352 58.0859 119.531 58.1055 119.734 58.1445C119.938 58.1758 120.078 58.2109 120.156 58.25ZM25.6445 96.5391V81H27.8242V99H25.832L25.6445 96.5391ZM17.1133 92.8008V92.5547C17.1133 91.5859 17.2305 90.707 17.4648 89.918C17.707 89.1211 18.0469 88.4375 18.4844 87.8672C18.9297 87.2969 19.457 86.8594 20.0664 86.5547C20.6836 86.2422 21.3711 86.0859 22.1289 86.0859C22.9258 86.0859 23.6211 86.2266 24.2148 86.5078C24.8164 86.7812 25.3242 87.1836 25.7383 87.7148C26.1602 88.2383 26.4922 88.8711 26.7344 89.6133C26.9766 90.3555 27.1445 91.1953 27.2383 92.1328V93.2109C27.1523 94.1406 26.9844 94.9766 26.7344 95.7188C26.4922 96.4609 26.1602 97.0938 25.7383 97.6172C25.3242 98.1406 24.8164 98.543 24.2148 98.8242C23.6133 99.0977 22.9102 99.2344 22.1055 99.2344C21.3633 99.2344 20.6836 99.0742 20.0664 98.7539C19.457 98.4336 18.9297 97.9844 18.4844 97.4062C18.0469 96.8281 17.707 96.1484 17.4648 95.3672C17.2305 94.5781 17.1133 93.7227 17.1133 92.8008ZM19.293 92.5547V92.8008C19.293 93.4336 19.3555 94.0273 19.4805 94.582C19.6133 95.1367 19.8164 95.625 20.0898 96.0469C20.3633 96.4688 20.7109 96.8008 21.1328 97.043C21.5547 97.2773 22.0586 97.3945 22.6445 97.3945C23.3633 97.3945 23.9531 97.2422 24.4141 96.9375C24.8828 96.6328 25.2578 96.2305 25.5391 95.7305C25.8203 95.2305 26.0391 94.6875 26.1953 94.1016V91.2773C26.1016 90.8477 25.9648 90.4336 25.7852 90.0352C25.6133 89.6289 25.3867 89.2695 25.1055 88.957C24.832 88.6367 24.4922 88.3828 24.0859 88.1953C23.6875 88.0078 23.2148 87.9141 22.668 87.9141C22.0742 87.9141 21.5625 88.0391 21.1328 88.2891C20.7109 88.5312 20.3633 88.8672 20.0898 89.2969C19.8164 89.7188 19.6133 90.2109 19.4805 90.7734C19.3555 91.3281 19.293 91.9219 19.293 92.5547ZM30.625 92.8008V92.5312C30.625 91.6172 30.7578 90.7695 31.0234 89.9883C31.2891 89.1992 31.6719 88.5156 32.1719 87.9375C32.6719 87.3516 33.2773 86.8984 33.9883 86.5781C34.6992 86.25 35.4961 86.0859 36.3789 86.0859C37.2695 86.0859 38.0703 86.25 38.7812 86.5781C39.5 86.8984 40.1094 87.3516 40.6094 87.9375C41.1172 88.5156 41.5039 89.1992 41.7695 89.9883C42.0352 90.7695 42.168 91.6172 42.168 92.5312V92.8008C42.168 93.7148 42.0352 94.5625 41.7695 95.3438C41.5039 96.125 41.1172 96.8086 40.6094 97.3945C40.1094 97.9727 39.5039 98.4258 38.793 98.7539C38.0898 99.0742 37.293 99.2344 36.4023 99.2344C35.5117 99.2344 34.7109 99.0742 34 98.7539C33.2891 98.4258 32.6797 97.9727 32.1719 97.3945C31.6719 96.8086 31.2891 96.125 31.0234 95.3438C30.7578 94.5625 30.625 93.7148 30.625 92.8008ZM32.793 92.5312V92.8008C32.793 93.4336 32.8672 94.0312 33.0156 94.5938C33.1641 95.1484 33.3867 95.6406 33.6836 96.0703C33.9883 96.5 34.3672 96.8398 34.8203 97.0898C35.2734 97.332 35.8008 97.4531 36.4023 97.4531C36.9961 97.4531 37.5156 97.332 37.9609 97.0898C38.4141 96.8398 38.7891 96.5 39.0859 96.0703C39.3828 95.6406 39.6055 95.1484 39.7539 94.5938C39.9102 94.0312 39.9883 93.4336 39.9883 92.8008V92.5312C39.9883 91.9062 39.9102 91.3164 39.7539 90.7617C39.6055 90.1992 39.3789 89.7031 39.0742 89.2734C38.7773 88.8359 38.4023 88.4922 37.9492 88.2422C37.5039 87.9922 36.9805 87.8672 36.3789 87.8672C35.7852 87.8672 35.2617 87.9922 34.8086 88.2422C34.3633 88.4922 33.9883 88.8359 33.6836 89.2734C33.3867 89.7031 33.1641 90.1992 33.0156 90.7617C32.8672 91.3164 32.793 91.9062 32.793 92.5312ZM52.6445 96.0703V86.3203H54.8242V99H52.75L52.6445 96.0703ZM53.0547 93.3984L53.957 93.375C53.957 94.2188 53.8672 95 53.6875 95.7188C53.5156 96.4297 53.2344 97.0469 52.8438 97.5703C52.4531 98.0938 51.9414 98.5039 51.3086 98.8008C50.6758 99.0898 49.9062 99.2344 49 99.2344C48.3828 99.2344 47.8164 99.1445 47.3008 98.9648C46.793 98.7852 46.3555 98.5078 45.9883 98.1328C45.6211 97.7578 45.3359 97.2695 45.1328 96.668C44.9375 96.0664 44.8398 95.3438 44.8398 94.5V86.3203H47.0078V94.5234C47.0078 95.0938 47.0703 95.5664 47.1953 95.9414C47.3281 96.3086 47.5039 96.6016 47.7227 96.8203C47.9492 97.0312 48.1992 97.1797 48.4727 97.2656C48.7539 97.3516 49.043 97.3945 49.3398 97.3945C50.2617 97.3945 50.9922 97.2188 51.5312 96.8672C52.0703 96.5078 52.457 96.0273 52.6914 95.4258C52.9336 94.8164 53.0547 94.1406 53.0547 93.3984ZM58.1172 81H60.2969V96.5391L60.1094 99H58.1172V81ZM68.8633 92.5547V92.8008C68.8633 93.7227 68.7539 94.5781 68.5352 95.3672C68.3164 96.1484 67.9961 96.8281 67.5742 97.4062C67.1523 97.9844 66.6367 98.4336 66.0273 98.7539C65.418 99.0742 64.7188 99.2344 63.9297 99.2344C63.125 99.2344 62.418 99.0977 61.8086 98.8242C61.207 98.543 60.6992 98.1406 60.2852 97.6172C59.8711 97.0938 59.5391 96.4609 59.2891 95.7188C59.0469 94.9766 58.8789 94.1406 58.7852 93.2109V92.1328C58.8789 91.1953 59.0469 90.3555 59.2891 89.6133C59.5391 88.8711 59.8711 88.2383 60.2852 87.7148C60.6992 87.1836 61.207 86.7812 61.8086 86.5078C62.4102 86.2266 63.1094 86.0859 63.9062 86.0859C64.7031 86.0859 65.4102 86.2422 66.0273 86.5547C66.6445 86.8594 67.1602 87.2969 67.5742 87.8672C67.9961 88.4375 68.3164 89.1211 68.5352 89.918C68.7539 90.707 68.8633 91.5859 68.8633 92.5547ZM66.6836 92.8008V92.5547C66.6836 91.9219 66.625 91.3281 66.5078 90.7734C66.3906 90.2109 66.2031 89.7188 65.9453 89.2969C65.6875 88.8672 65.3477 88.5312 64.9258 88.2891C64.5039 88.0391 63.9844 87.9141 63.3672 87.9141C62.8203 87.9141 62.3438 88.0078 61.9375 88.1953C61.5391 88.3828 61.1992 88.6367 60.918 88.957C60.6367 89.2695 60.4062 89.6289 60.2266 90.0352C60.0547 90.4336 59.9258 90.8477 59.8398 91.2773V94.1016C59.9648 94.6484 60.168 95.1758 60.4492 95.6836C60.7383 96.1836 61.1211 96.5938 61.5977 96.9141C62.082 97.2344 62.6797 97.3945 63.3906 97.3945C63.9766 97.3945 64.4766 97.2773 64.8906 97.043C65.3125 96.8008 65.6523 96.4688 65.9102 96.0469C66.1758 95.625 66.3711 95.1367 66.4961 94.582C66.6211 94.0273 66.6836 93.4336 66.6836 92.8008ZM76.9141 86.3203V87.9844H70.0586V86.3203H76.9141ZM72.3789 83.2383H74.5469V95.8594C74.5469 96.2891 74.6133 96.6133 74.7461 96.832C74.8789 97.0508 75.0508 97.1953 75.2617 97.2656C75.4727 97.3359 75.6992 97.3711 75.9414 97.3711C76.1211 97.3711 76.3086 97.3555 76.5039 97.3242C76.707 97.2852 76.8594 97.2539 76.9609 97.2305L76.9727 99C76.8008 99.0547 76.5742 99.1055 76.293 99.1523C76.0195 99.207 75.6875 99.2344 75.2969 99.2344C74.7656 99.2344 74.2773 99.1289 73.832 98.918C73.3867 98.707 73.0312 98.3555 72.7656 97.8633C72.5078 97.3633 72.3789 96.6914 72.3789 95.8477V83.2383ZM86.8398 95.6367C86.8398 95.3242 86.7695 95.0352 86.6289 94.7695C86.4961 94.4961 86.2188 94.25 85.7969 94.0312C85.3828 93.8047 84.7578 93.6094 83.9219 93.4453C83.2188 93.2969 82.582 93.1211 82.0117 92.918C81.4492 92.7148 80.9688 92.4688 80.5703 92.1797C80.1797 91.8906 79.8789 91.5508 79.668 91.1602C79.457 90.7695 79.3516 90.3125 79.3516 89.7891C79.3516 89.2891 79.4609 88.8164 79.6797 88.3711C79.9062 87.9258 80.2227 87.5312 80.6289 87.1875C81.043 86.8438 81.5391 86.5742 82.1172 86.3789C82.6953 86.1836 83.3398 86.0859 84.0508 86.0859C85.0664 86.0859 85.9336 86.2656 86.6523 86.625C87.3711 86.9844 87.9219 87.4648 88.3047 88.0664C88.6875 88.6602 88.8789 89.3203 88.8789 90.0469H86.7109C86.7109 89.6953 86.6055 89.3555 86.3945 89.0273C86.1914 88.6914 85.8906 88.4141 85.4922 88.1953C85.1016 87.9766 84.6211 87.8672 84.0508 87.8672C83.4492 87.8672 82.9609 87.9609 82.5859 88.1484C82.2188 88.3281 81.9492 88.5586 81.7773 88.8398C81.6133 89.1211 81.5312 89.418 81.5312 89.7305C81.5312 89.9648 81.5703 90.1758 81.6484 90.3633C81.7344 90.543 81.8828 90.7109 82.0938 90.8672C82.3047 91.0156 82.6016 91.1562 82.9844 91.2891C83.3672 91.4219 83.8555 91.5547 84.4492 91.6875C85.4883 91.9219 86.3438 92.2031 87.0156 92.5312C87.6875 92.8594 88.1875 93.2617 88.5156 93.7383C88.8438 94.2148 89.0078 94.793 89.0078 95.4727C89.0078 96.0273 88.8906 96.5352 88.6562 96.9961C88.4297 97.457 88.0977 97.8555 87.6602 98.1914C87.2305 98.5195 86.7148 98.7773 86.1133 98.9648C85.5195 99.1445 84.8516 99.2344 84.1094 99.2344C82.9922 99.2344 82.0469 99.0352 81.2734 98.6367C80.5 98.2383 79.9141 97.7227 79.5156 97.0898C79.1172 96.457 78.918 95.7891 78.918 95.0859H81.0977C81.1289 95.6797 81.3008 96.1523 81.6133 96.5039C81.9258 96.8477 82.3086 97.0938 82.7617 97.2422C83.2148 97.3828 83.6641 97.4531 84.1094 97.4531C84.7031 97.4531 85.1992 97.375 85.5977 97.2188C86.0039 97.0625 86.3125 96.8477 86.5234 96.5742C86.7344 96.3008 86.8398 95.9883 86.8398 95.6367ZM105.285 96.832V90.3047C105.285 89.8047 105.184 89.3711 104.98 89.0039C104.785 88.6289 104.488 88.3398 104.09 88.1367C103.691 87.9336 103.199 87.832 102.613 87.832C102.066 87.832 101.586 87.9258 101.172 88.1133C100.766 88.3008 100.445 88.5469 100.211 88.8516C99.9844 89.1562 99.8711 89.4844 99.8711 89.8359H97.7031C97.7031 89.3828 97.8203 88.9336 98.0547 88.4883C98.2891 88.043 98.625 87.6406 99.0625 87.2812C99.5078 86.9141 100.039 86.625 100.656 86.4141C101.281 86.1953 101.977 86.0859 102.742 86.0859C103.664 86.0859 104.477 86.2422 105.18 86.5547C105.891 86.8672 106.445 87.3398 106.844 87.9727C107.25 88.5977 107.453 89.3828 107.453 90.3281V96.2344C107.453 96.6562 107.488 97.1055 107.559 97.582C107.637 98.0586 107.75 98.4688 107.898 98.8125V99H105.637C105.527 98.75 105.441 98.418 105.379 98.0039C105.316 97.582 105.285 97.1914 105.285 96.832ZM105.66 91.3125L105.684 92.8359H103.492C102.875 92.8359 102.324 92.8867 101.84 92.9883C101.355 93.082 100.949 93.2266 100.621 93.4219C100.293 93.6172 100.043 93.8633 99.8711 94.1602C99.6992 94.4492 99.6133 94.7891 99.6133 95.1797C99.6133 95.5781 99.7031 95.9414 99.8828 96.2695C100.062 96.5977 100.332 96.8594 100.691 97.0547C101.059 97.2422 101.508 97.3359 102.039 97.3359C102.703 97.3359 103.289 97.1953 103.797 96.9141C104.305 96.6328 104.707 96.2891 105.004 95.8828C105.309 95.4766 105.473 95.082 105.496 94.6992L106.422 95.7422C106.367 96.0703 106.219 96.4336 105.977 96.832C105.734 97.2305 105.41 97.6133 105.004 97.9805C104.605 98.3398 104.129 98.6406 103.574 98.8828C103.027 99.1172 102.41 99.2344 101.723 99.2344C100.863 99.2344 100.109 99.0664 99.4609 98.7305C98.8203 98.3945 98.3203 97.9453 97.9609 97.3828C97.6094 96.8125 97.4336 96.1758 97.4336 95.4727C97.4336 94.793 97.5664 94.1953 97.832 93.6797C98.0977 93.1562 98.4805 92.7227 98.9805 92.3789C99.4805 92.0273 100.082 91.7617 100.785 91.582C101.488 91.4023 102.273 91.3125 103.141 91.3125H105.66ZM113.031 89.0273V99H110.863V86.3203H112.914L113.031 89.0273ZM112.516 92.1797L111.613 92.1445C111.621 91.2773 111.75 90.4766 112 89.7422C112.25 89 112.602 88.3555 113.055 87.8086C113.508 87.2617 114.047 86.8398 114.672 86.543C115.305 86.2383 116.004 86.0859 116.77 86.0859C117.395 86.0859 117.957 86.1719 118.457 86.3438C118.957 86.5078 119.383 86.7734 119.734 87.1406C120.094 87.5078 120.367 87.9844 120.555 88.5703C120.742 89.1484 120.836 89.8555 120.836 90.6914V99H118.656V90.668C118.656 90.0039 118.559 89.4727 118.363 89.0742C118.168 88.668 117.883 88.375 117.508 88.1953C117.133 88.0078 116.672 87.9141 116.125 87.9141C115.586 87.9141 115.094 88.0273 114.648 88.2539C114.211 88.4805 113.832 88.793 113.512 89.1914C113.199 89.5898 112.953 90.0469 112.773 90.5625C112.602 91.0703 112.516 91.6094 112.516 92.1797ZM132.121 96.5391V81H134.301V99H132.309L132.121 96.5391ZM123.59 92.8008V92.5547C123.59 91.5859 123.707 90.707 123.941 89.918C124.184 89.1211 124.523 88.4375 124.961 87.8672C125.406 87.2969 125.934 86.8594 126.543 86.5547C127.16 86.2422 127.848 86.0859 128.605 86.0859C129.402 86.0859 130.098 86.2266 130.691 86.5078C131.293 86.7812 131.801 87.1836 132.215 87.7148C132.637 88.2383 132.969 88.8711 133.211 89.6133C133.453 90.3555 133.621 91.1953 133.715 92.1328V93.2109C133.629 94.1406 133.461 94.9766 133.211 95.7188C132.969 96.4609 132.637 97.0938 132.215 97.6172C131.801 98.1406 131.293 98.543 130.691 98.8242C130.09 99.0977 129.387 99.2344 128.582 99.2344C127.84 99.2344 127.16 99.0742 126.543 98.7539C125.934 98.4336 125.406 97.9844 124.961 97.4062C124.523 96.8281 124.184 96.1484 123.941 95.3672C123.707 94.5781 123.59 93.7227 123.59 92.8008ZM125.77 92.5547V92.8008C125.77 93.4336 125.832 94.0273 125.957 94.582C126.09 95.1367 126.293 95.625 126.566 96.0469C126.84 96.4688 127.188 96.8008 127.609 97.043C128.031 97.2773 128.535 97.3945 129.121 97.3945C129.84 97.3945 130.43 97.2422 130.891 96.9375C131.359 96.6328 131.734 96.2305 132.016 95.7305C132.297 95.2305 132.516 94.6875 132.672 94.1016V91.2773C132.578 90.8477 132.441 90.4336 132.262 90.0352C132.09 89.6289 131.863 89.2695 131.582 88.957C131.309 88.6367 130.969 88.3828 130.562 88.1953C130.164 88.0078 129.691 87.9141 129.145 87.9141C128.551 87.9141 128.039 88.0391 127.609 88.2891C127.188 88.5312 126.84 88.8672 126.566 89.2969C126.293 89.7188 126.09 90.2109 125.957 90.7734C125.832 91.3281 125.77 91.9219 125.77 92.5547ZM22.9141 127.234C22.0312 127.234 21.2305 127.086 20.5117 126.789C19.8008 126.484 19.1875 126.059 18.6719 125.512C18.1641 124.965 17.7734 124.316 17.5 123.566C17.2266 122.816 17.0898 121.996 17.0898 121.105V120.613C17.0898 119.582 17.2422 118.664 17.5469 117.859C17.8516 117.047 18.2656 116.359 18.7891 115.797C19.3125 115.234 19.9062 114.809 20.5703 114.52C21.2344 114.23 21.9219 114.086 22.6328 114.086C23.5391 114.086 24.3203 114.242 24.9766 114.555C25.6406 114.867 26.1836 115.305 26.6055 115.867C27.0273 116.422 27.3398 117.078 27.543 117.836C27.7461 118.586 27.8477 119.406 27.8477 120.297V121.27H18.3789V119.5H25.6797V119.336C25.6484 118.773 25.5312 118.227 25.3281 117.695C25.1328 117.164 24.8203 116.727 24.3906 116.383C23.9609 116.039 23.375 115.867 22.6328 115.867C22.1406 115.867 21.6875 115.973 21.2734 116.184C20.8594 116.387 20.5039 116.691 20.207 117.098C19.9102 117.504 19.6797 118 19.5156 118.586C19.3516 119.172 19.2695 119.848 19.2695 120.613V121.105C19.2695 121.707 19.3516 122.273 19.5156 122.805C19.6875 123.328 19.9336 123.789 20.2539 124.188C20.582 124.586 20.9766 124.898 21.4375 125.125C21.9062 125.352 22.4375 125.465 23.0312 125.465C23.7969 125.465 24.4453 125.309 24.9766 124.996C25.5078 124.684 25.9727 124.266 26.3711 123.742L27.6836 124.785C27.4102 125.199 27.0625 125.594 26.6406 125.969C26.2188 126.344 25.6992 126.648 25.082 126.883C24.4727 127.117 23.75 127.234 22.9141 127.234ZM32.5469 117.027V127H30.3789V114.32H32.4297L32.5469 117.027ZM32.0312 120.18L31.1289 120.145C31.1367 119.277 31.2656 118.477 31.5156 117.742C31.7656 117 32.1172 116.355 32.5703 115.809C33.0234 115.262 33.5625 114.84 34.1875 114.543C34.8203 114.238 35.5195 114.086 36.2852 114.086C36.9102 114.086 37.4727 114.172 37.9727 114.344C38.4727 114.508 38.8984 114.773 39.25 115.141C39.6094 115.508 39.8828 115.984 40.0703 116.57C40.2578 117.148 40.3516 117.855 40.3516 118.691V127H38.1719V118.668C38.1719 118.004 38.0742 117.473 37.8789 117.074C37.6836 116.668 37.3984 116.375 37.0234 116.195C36.6484 116.008 36.1875 115.914 35.6406 115.914C35.1016 115.914 34.6094 116.027 34.1641 116.254C33.7266 116.48 33.3477 116.793 33.0273 117.191C32.7148 117.59 32.4688 118.047 32.2891 118.562C32.1172 119.07 32.0312 119.609 32.0312 120.18ZM45.8125 109V127H43.6445V109H45.8125ZM45.2969 120.18L44.3945 120.145C44.4023 119.277 44.5312 118.477 44.7812 117.742C45.0312 117 45.3828 116.355 45.8359 115.809C46.2891 115.262 46.8281 114.84 47.4531 114.543C48.0859 114.238 48.7852 114.086 49.5508 114.086C50.1758 114.086 50.7383 114.172 51.2383 114.344C51.7383 114.508 52.1641 114.773 52.5156 115.141C52.875 115.508 53.1484 115.984 53.3359 116.57C53.5234 117.148 53.6172 117.855 53.6172 118.691V127H51.4375V118.668C51.4375 118.004 51.3398 117.473 51.1445 117.074C50.9492 116.668 50.6641 116.375 50.2891 116.195C49.9141 116.008 49.4531 115.914 48.9062 115.914C48.3672 115.914 47.875 116.027 47.4297 116.254C46.9922 116.48 46.6133 116.793 46.293 117.191C45.9805 117.59 45.7344 118.047 45.5547 118.562C45.3828 119.07 45.2969 119.609 45.2969 120.18ZM64.3398 124.832V118.305C64.3398 117.805 64.2383 117.371 64.0352 117.004C63.8398 116.629 63.543 116.34 63.1445 116.137C62.7461 115.934 62.2539 115.832 61.668 115.832C61.1211 115.832 60.6406 115.926 60.2266 116.113C59.8203 116.301 59.5 116.547 59.2656 116.852C59.0391 117.156 58.9258 117.484 58.9258 117.836H56.7578C56.7578 117.383 56.875 116.934 57.1094 116.488C57.3438 116.043 57.6797 115.641 58.1172 115.281C58.5625 114.914 59.0938 114.625 59.7109 114.414C60.3359 114.195 61.0312 114.086 61.7969 114.086C62.7188 114.086 63.5312 114.242 64.2344 114.555C64.9453 114.867 65.5 115.34 65.8984 115.973C66.3047 116.598 66.5078 117.383 66.5078 118.328V124.234C66.5078 124.656 66.543 125.105 66.6133 125.582C66.6914 126.059 66.8047 126.469 66.9531 126.812V127H64.6914C64.582 126.75 64.4961 126.418 64.4336 126.004C64.3711 125.582 64.3398 125.191 64.3398 124.832ZM64.7148 119.312L64.7383 120.836H62.5469C61.9297 120.836 61.3789 120.887 60.8945 120.988C60.4102 121.082 60.0039 121.227 59.6758 121.422C59.3477 121.617 59.0977 121.863 58.9258 122.16C58.7539 122.449 58.668 122.789 58.668 123.18C58.668 123.578 58.7578 123.941 58.9375 124.27C59.1172 124.598 59.3867 124.859 59.7461 125.055C60.1133 125.242 60.5625 125.336 61.0938 125.336C61.7578 125.336 62.3438 125.195 62.8516 124.914C63.3594 124.633 63.7617 124.289 64.0586 123.883C64.3633 123.477 64.5273 123.082 64.5508 122.699L65.4766 123.742C65.4219 124.07 65.2734 124.434 65.0312 124.832C64.7891 125.23 64.4648 125.613 64.0586 125.98C63.6602 126.34 63.1836 126.641 62.6289 126.883C62.082 127.117 61.4648 127.234 60.7773 127.234C59.918 127.234 59.1641 127.066 58.5156 126.73C57.875 126.395 57.375 125.945 57.0156 125.383C56.6641 124.812 56.4883 124.176 56.4883 123.473C56.4883 122.793 56.6211 122.195 56.8867 121.68C57.1523 121.156 57.5352 120.723 58.0352 120.379C58.5352 120.027 59.1367 119.762 59.8398 119.582C60.543 119.402 61.3281 119.312 62.1953 119.312H64.7148ZM72.0859 117.027V127H69.918V114.32H71.9688L72.0859 117.027ZM71.5703 120.18L70.668 120.145C70.6758 119.277 70.8047 118.477 71.0547 117.742C71.3047 117 71.6562 116.355 72.1094 115.809C72.5625 115.262 73.1016 114.84 73.7266 114.543C74.3594 114.238 75.0586 114.086 75.8242 114.086C76.4492 114.086 77.0117 114.172 77.5117 114.344C78.0117 114.508 78.4375 114.773 78.7891 115.141C79.1484 115.508 79.4219 115.984 79.6094 116.57C79.7969 117.148 79.8906 117.855 79.8906 118.691V127H77.7109V118.668C77.7109 118.004 77.6133 117.473 77.418 117.074C77.2227 116.668 76.9375 116.375 76.5625 116.195C76.1875 116.008 75.7266 115.914 75.1797 115.914C74.6406 115.914 74.1484 116.027 73.7031 116.254C73.2656 116.48 72.8867 116.793 72.5664 117.191C72.2539 117.59 72.0078 118.047 71.8281 118.562C71.6562 119.07 71.5703 119.609 71.5703 120.18ZM88.2578 125.453C88.7734 125.453 89.25 125.348 89.6875 125.137C90.125 124.926 90.4844 124.637 90.7656 124.27C91.0469 123.895 91.207 123.469 91.2461 122.992H93.3086C93.2695 123.742 93.0156 124.441 92.5469 125.09C92.0859 125.73 91.4805 126.25 90.7305 126.648C89.9805 127.039 89.1562 127.234 88.2578 127.234C87.3047 127.234 86.4727 127.066 85.7617 126.73C85.0586 126.395 84.4727 125.934 84.0039 125.348C83.543 124.762 83.1953 124.09 82.9609 123.332C82.7344 122.566 82.6211 121.758 82.6211 120.906V120.414C82.6211 119.562 82.7344 118.758 82.9609 118C83.1953 117.234 83.543 116.559 84.0039 115.973C84.4727 115.387 85.0586 114.926 85.7617 114.59C86.4727 114.254 87.3047 114.086 88.2578 114.086C89.25 114.086 90.1172 114.289 90.8594 114.695C91.6016 115.094 92.1836 115.641 92.6055 116.336C93.0352 117.023 93.2695 117.805 93.3086 118.68H91.2461C91.207 118.156 91.0586 117.684 90.8008 117.262C90.5508 116.84 90.207 116.504 89.7695 116.254C89.3398 115.996 88.8359 115.867 88.2578 115.867C87.5938 115.867 87.0352 116 86.582 116.266C86.1367 116.523 85.7812 116.875 85.5156 117.32C85.2578 117.758 85.0703 118.246 84.9531 118.785C84.8438 119.316 84.7891 119.859 84.7891 120.414V120.906C84.7891 121.461 84.8438 122.008 84.9531 122.547C85.0625 123.086 85.2461 123.574 85.5039 124.012C85.7695 124.449 86.125 124.801 86.5703 125.066C87.0234 125.324 87.5859 125.453 88.2578 125.453ZM101.008 127.234C100.125 127.234 99.3242 127.086 98.6055 126.789C97.8945 126.484 97.2812 126.059 96.7656 125.512C96.2578 124.965 95.8672 124.316 95.5938 123.566C95.3203 122.816 95.1836 121.996 95.1836 121.105V120.613C95.1836 119.582 95.3359 118.664 95.6406 117.859C95.9453 117.047 96.3594 116.359 96.8828 115.797C97.4062 115.234 98 114.809 98.6641 114.52C99.3281 114.23 100.016 114.086 100.727 114.086C101.633 114.086 102.414 114.242 103.07 114.555C103.734 114.867 104.277 115.305 104.699 115.867C105.121 116.422 105.434 117.078 105.637 117.836C105.84 118.586 105.941 119.406 105.941 120.297V121.27H96.4727V119.5H103.773V119.336C103.742 118.773 103.625 118.227 103.422 117.695C103.227 117.164 102.914 116.727 102.484 116.383C102.055 116.039 101.469 115.867 100.727 115.867C100.234 115.867 99.7812 115.973 99.3672 116.184C98.9531 116.387 98.5977 116.691 98.3008 117.098C98.0039 117.504 97.7734 118 97.6094 118.586C97.4453 119.172 97.3633 119.848 97.3633 120.613V121.105C97.3633 121.707 97.4453 122.273 97.6094 122.805C97.7812 123.328 98.0273 123.789 98.3477 124.188C98.6758 124.586 99.0703 124.898 99.5312 125.125C100 125.352 100.531 125.465 101.125 125.465C101.891 125.465 102.539 125.309 103.07 124.996C103.602 124.684 104.066 124.266 104.465 123.742L105.777 124.785C105.504 125.199 105.156 125.594 104.734 125.969C104.312 126.344 103.793 126.648 103.176 126.883C102.566 127.117 101.844 127.234 101.008 127.234ZM117.988 125.688L121.516 114.32H123.836L118.75 128.957C118.633 129.27 118.477 129.605 118.281 129.965C118.094 130.332 117.852 130.68 117.555 131.008C117.258 131.336 116.898 131.602 116.477 131.805C116.062 132.016 115.566 132.121 114.988 132.121C114.816 132.121 114.598 132.098 114.332 132.051C114.066 132.004 113.879 131.965 113.77 131.934L113.758 130.176C113.82 130.184 113.918 130.191 114.051 130.199C114.191 130.215 114.289 130.223 114.344 130.223C114.836 130.223 115.254 130.156 115.598 130.023C115.941 129.898 116.23 129.684 116.465 129.379C116.707 129.082 116.914 128.672 117.086 128.148L117.988 125.688ZM115.398 114.32L118.691 124.164L119.254 126.449L117.695 127.246L113.031 114.32H115.398ZM125.031 120.801V120.531C125.031 119.617 125.164 118.77 125.43 117.988C125.695 117.199 126.078 116.516 126.578 115.938C127.078 115.352 127.684 114.898 128.395 114.578C129.105 114.25 129.902 114.086 130.785 114.086C131.676 114.086 132.477 114.25 133.188 114.578C133.906 114.898 134.516 115.352 135.016 115.938C135.523 116.516 135.91 117.199 136.176 117.988C136.441 118.77 136.574 119.617 136.574 120.531V120.801C136.574 121.715 136.441 122.562 136.176 123.344C135.91 124.125 135.523 124.809 135.016 125.395C134.516 125.973 133.91 126.426 133.199 126.754C132.496 127.074 131.699 127.234 130.809 127.234C129.918 127.234 129.117 127.074 128.406 126.754C127.695 126.426 127.086 125.973 126.578 125.395C126.078 124.809 125.695 124.125 125.43 123.344C125.164 122.562 125.031 121.715 125.031 120.801ZM127.199 120.531V120.801C127.199 121.434 127.273 122.031 127.422 122.594C127.57 123.148 127.793 123.641 128.09 124.07C128.395 124.5 128.773 124.84 129.227 125.09C129.68 125.332 130.207 125.453 130.809 125.453C131.402 125.453 131.922 125.332 132.367 125.09C132.82 124.84 133.195 124.5 133.492 124.07C133.789 123.641 134.012 123.148 134.16 122.594C134.316 122.031 134.395 121.434 134.395 120.801V120.531C134.395 119.906 134.316 119.316 134.16 118.762C134.012 118.199 133.785 117.703 133.48 117.273C133.184 116.836 132.809 116.492 132.355 116.242C131.91 115.992 131.387 115.867 130.785 115.867C130.191 115.867 129.668 115.992 129.215 116.242C128.77 116.492 128.395 116.836 128.09 117.273C127.793 117.703 127.57 118.199 127.422 118.762C127.273 119.316 127.199 119.906 127.199 120.531ZM147.051 124.07V114.32H149.23V127H147.156L147.051 124.07ZM147.461 121.398L148.363 121.375C148.363 122.219 148.273 123 148.094 123.719C147.922 124.43 147.641 125.047 147.25 125.57C146.859 126.094 146.348 126.504 145.715 126.801C145.082 127.09 144.312 127.234 143.406 127.234C142.789 127.234 142.223 127.145 141.707 126.965C141.199 126.785 140.762 126.508 140.395 126.133C140.027 125.758 139.742 125.27 139.539 124.668C139.344 124.066 139.246 123.344 139.246 122.5V114.32H141.414V122.523C141.414 123.094 141.477 123.566 141.602 123.941C141.734 124.309 141.91 124.602 142.129 124.82C142.355 125.031 142.605 125.18 142.879 125.266C143.16 125.352 143.449 125.395 143.746 125.395C144.668 125.395 145.398 125.219 145.938 124.867C146.477 124.508 146.863 124.027 147.098 123.426C147.34 122.816 147.461 122.141 147.461 121.398ZM154.703 116.312V127H152.535V114.32H154.645L154.703 116.312ZM158.664 114.25L158.652 116.266C158.473 116.227 158.301 116.203 158.137 116.195C157.98 116.18 157.801 116.172 157.598 116.172C157.098 116.172 156.656 116.25 156.273 116.406C155.891 116.562 155.566 116.781 155.301 117.062C155.035 117.344 154.824 117.68 154.668 118.07C154.52 118.453 154.422 118.875 154.375 119.336L153.766 119.688C153.766 118.922 153.84 118.203 153.988 117.531C154.145 116.859 154.383 116.266 154.703 115.75C155.023 115.227 155.43 114.82 155.922 114.531C156.422 114.234 157.016 114.086 157.703 114.086C157.859 114.086 158.039 114.105 158.242 114.145C158.445 114.176 158.586 114.211 158.664 114.25ZM25.0352 151.637C25.0352 151.324 24.9648 151.035 24.8242 150.77C24.6914 150.496 24.4141 150.25 23.9922 150.031C23.5781 149.805 22.9531 149.609 22.1172 149.445C21.4141 149.297 20.7773 149.121 20.207 148.918C19.6445 148.715 19.1641 148.469 18.7656 148.18C18.375 147.891 18.0742 147.551 17.8633 147.16C17.6523 146.77 17.5469 146.312 17.5469 145.789C17.5469 145.289 17.6562 144.816 17.875 144.371C18.1016 143.926 18.418 143.531 18.8242 143.188C19.2383 142.844 19.7344 142.574 20.3125 142.379C20.8906 142.184 21.5352 142.086 22.2461 142.086C23.2617 142.086 24.1289 142.266 24.8477 142.625C25.5664 142.984 26.1172 143.465 26.5 144.066C26.8828 144.66 27.0742 145.32 27.0742 146.047H24.9062C24.9062 145.695 24.8008 145.355 24.5898 145.027C24.3867 144.691 24.0859 144.414 23.6875 144.195C23.2969 143.977 22.8164 143.867 22.2461 143.867C21.6445 143.867 21.1562 143.961 20.7812 144.148C20.4141 144.328 20.1445 144.559 19.9727 144.84C19.8086 145.121 19.7266 145.418 19.7266 145.73C19.7266 145.965 19.7656 146.176 19.8438 146.363C19.9297 146.543 20.0781 146.711 20.2891 146.867C20.5 147.016 20.7969 147.156 21.1797 147.289C21.5625 147.422 22.0508 147.555 22.6445 147.688C23.6836 147.922 24.5391 148.203 25.2109 148.531C25.8828 148.859 26.3828 149.262 26.7109 149.738C27.0391 150.215 27.2031 150.793 27.2031 151.473C27.2031 152.027 27.0859 152.535 26.8516 152.996C26.625 153.457 26.293 153.855 25.8555 154.191C25.4258 154.52 24.9102 154.777 24.3086 154.965C23.7148 155.145 23.0469 155.234 22.3047 155.234C21.1875 155.234 20.2422 155.035 19.4688 154.637C18.6953 154.238 18.1094 153.723 17.7109 153.09C17.3125 152.457 17.1133 151.789 17.1133 151.086H19.293C19.3242 151.68 19.4961 152.152 19.8086 152.504C20.1211 152.848 20.5039 153.094 20.957 153.242C21.4102 153.383 21.8594 153.453 22.3047 153.453C22.8984 153.453 23.3945 153.375 23.793 153.219C24.1992 153.062 24.5078 152.848 24.7188 152.574C24.9297 152.301 25.0352 151.988 25.0352 151.637ZM32.2305 137V155H30.0508V137H32.2305ZM39.9766 142.32L34.4453 148.238L31.3516 151.449L31.1758 149.141L33.3906 146.492L37.3281 142.32H39.9766ZM37.9961 155L33.4727 148.953L34.5977 147.02L40.5508 155H37.9961ZM44.5703 142.32V155H42.3906V142.32H44.5703ZM42.2266 138.957C42.2266 138.605 42.332 138.309 42.543 138.066C42.7617 137.824 43.082 137.703 43.5039 137.703C43.918 137.703 44.2344 137.824 44.4531 138.066C44.6797 138.309 44.793 138.605 44.793 138.957C44.793 139.293 44.6797 139.582 44.4531 139.824C44.2344 140.059 43.918 140.176 43.5039 140.176C43.082 140.176 42.7617 140.059 42.543 139.824C42.332 139.582 42.2266 139.293 42.2266 138.957ZM50.4062 137V155H48.2266V137H50.4062ZM56.2422 137V155H54.0625V137H56.2422ZM67.1055 151.637C67.1055 151.324 67.0352 151.035 66.8945 150.77C66.7617 150.496 66.4844 150.25 66.0625 150.031C65.6484 149.805 65.0234 149.609 64.1875 149.445C63.4844 149.297 62.8477 149.121 62.2773 148.918C61.7148 148.715 61.2344 148.469 60.8359 148.18C60.4453 147.891 60.1445 147.551 59.9336 147.16C59.7227 146.77 59.6172 146.312 59.6172 145.789C59.6172 145.289 59.7266 144.816 59.9453 144.371C60.1719 143.926 60.4883 143.531 60.8945 143.188C61.3086 142.844 61.8047 142.574 62.3828 142.379C62.9609 142.184 63.6055 142.086 64.3164 142.086C65.332 142.086 66.1992 142.266 66.918 142.625C67.6367 142.984 68.1875 143.465 68.5703 144.066C68.9531 144.66 69.1445 145.32 69.1445 146.047H66.9766C66.9766 145.695 66.8711 145.355 66.6602 145.027C66.457 144.691 66.1562 144.414 65.7578 144.195C65.3672 143.977 64.8867 143.867 64.3164 143.867C63.7148 143.867 63.2266 143.961 62.8516 144.148C62.4844 144.328 62.2148 144.559 62.043 144.84C61.8789 145.121 61.7969 145.418 61.7969 145.73C61.7969 145.965 61.8359 146.176 61.9141 146.363C62 146.543 62.1484 146.711 62.3594 146.867C62.5703 147.016 62.8672 147.156 63.25 147.289C63.6328 147.422 64.1211 147.555 64.7148 147.688C65.7539 147.922 66.6094 148.203 67.2812 148.531C67.9531 148.859 68.4531 149.262 68.7812 149.738C69.1094 150.215 69.2734 150.793 69.2734 151.473C69.2734 152.027 69.1562 152.535 68.9219 152.996C68.6953 153.457 68.3633 153.855 67.9258 154.191C67.4961 154.52 66.9805 154.777 66.3789 154.965C65.7852 155.145 65.1172 155.234 64.375 155.234C63.2578 155.234 62.3125 155.035 61.5391 154.637C60.7656 154.238 60.1797 153.723 59.7812 153.09C59.3828 152.457 59.1836 151.789 59.1836 151.086H61.3633C61.3945 151.68 61.5664 152.152 61.8789 152.504C62.1914 152.848 62.5742 153.094 63.0273 153.242C63.4805 153.383 63.9297 153.453 64.375 153.453C64.9688 153.453 65.4648 153.375 65.8633 153.219C66.2695 153.062 66.5781 152.848 66.7891 152.574C67 152.301 67.1055 151.988 67.1055 151.637ZM83.3359 155.234C82.4531 155.234 81.6523 155.086 80.9336 154.789C80.2227 154.484 79.6094 154.059 79.0938 153.512C78.5859 152.965 78.1953 152.316 77.9219 151.566C77.6484 150.816 77.5117 149.996 77.5117 149.105V148.613C77.5117 147.582 77.6641 146.664 77.9688 145.859C78.2734 145.047 78.6875 144.359 79.2109 143.797C79.7344 143.234 80.3281 142.809 80.9922 142.52C81.6562 142.23 82.3438 142.086 83.0547 142.086C83.9609 142.086 84.7422 142.242 85.3984 142.555C86.0625 142.867 86.6055 143.305 87.0273 143.867C87.4492 144.422 87.7617 145.078 87.9648 145.836C88.168 146.586 88.2695 147.406 88.2695 148.297V149.27H78.8008V147.5H86.1016V147.336C86.0703 146.773 85.9531 146.227 85.75 145.695C85.5547 145.164 85.2422 144.727 84.8125 144.383C84.3828 144.039 83.7969 143.867 83.0547 143.867C82.5625 143.867 82.1094 143.973 81.6953 144.184C81.2812 144.387 80.9258 144.691 80.6289 145.098C80.332 145.504 80.1016 146 79.9375 146.586C79.7734 147.172 79.6914 147.848 79.6914 148.613V149.105C79.6914 149.707 79.7734 150.273 79.9375 150.805C80.1094 151.328 80.3555 151.789 80.6758 152.188C81.0039 152.586 81.3984 152.898 81.8594 153.125C82.3281 153.352 82.8594 153.465 83.4531 153.465C84.2188 153.465 84.8672 153.309 85.3984 152.996C85.9297 152.684 86.3945 152.266 86.793 151.742L88.1055 152.785C87.832 153.199 87.4844 153.594 87.0625 153.969C86.6406 154.344 86.1211 154.648 85.5039 154.883C84.8945 155.117 84.1719 155.234 83.3359 155.234ZM94.0352 155H91.8672V140.984C91.8672 140.07 92.0312 139.301 92.3594 138.676C92.6953 138.043 93.1758 137.566 93.8008 137.246C94.4258 136.918 95.168 136.754 96.0273 136.754C96.2773 136.754 96.5273 136.77 96.7773 136.801C97.0352 136.832 97.2852 136.879 97.5273 136.941L97.4102 138.711C97.2461 138.672 97.0586 138.645 96.8477 138.629C96.6445 138.613 96.4414 138.605 96.2383 138.605C95.7773 138.605 95.3789 138.699 95.043 138.887C94.7148 139.066 94.4648 139.332 94.293 139.684C94.1211 140.035 94.0352 140.469 94.0352 140.984V155ZM96.7305 142.32V143.984H89.8633V142.32H96.7305ZM102.379 155H100.211V140.984C100.211 140.07 100.375 139.301 100.703 138.676C101.039 138.043 101.52 137.566 102.145 137.246C102.77 136.918 103.512 136.754 104.371 136.754C104.621 136.754 104.871 136.77 105.121 136.801C105.379 136.832 105.629 136.879 105.871 136.941L105.754 138.711C105.59 138.672 105.402 138.645 105.191 138.629C104.988 138.613 104.785 138.605 104.582 138.605C104.121 138.605 103.723 138.699 103.387 138.887C103.059 139.066 102.809 139.332 102.637 139.684C102.465 140.035 102.379 140.469 102.379 140.984V155ZM105.074 142.32V143.984H98.207V142.32H105.074ZM112.469 155.234C111.586 155.234 110.785 155.086 110.066 154.789C109.355 154.484 108.742 154.059 108.227 153.512C107.719 152.965 107.328 152.316 107.055 151.566C106.781 150.816 106.645 149.996 106.645 149.105V148.613C106.645 147.582 106.797 146.664 107.102 145.859C107.406 145.047 107.82 144.359 108.344 143.797C108.867 143.234 109.461 142.809 110.125 142.52C110.789 142.23 111.477 142.086 112.188 142.086C113.094 142.086 113.875 142.242 114.531 142.555C115.195 142.867 115.738 143.305 116.16 143.867C116.582 144.422 116.895 145.078 117.098 145.836C117.301 146.586 117.402 147.406 117.402 148.297V149.27H107.934V147.5H115.234V147.336C115.203 146.773 115.086 146.227 114.883 145.695C114.688 145.164 114.375 144.727 113.945 144.383C113.516 144.039 112.93 143.867 112.188 143.867C111.695 143.867 111.242 143.973 110.828 144.184C110.414 144.387 110.059 144.691 109.762 145.098C109.465 145.504 109.234 146 109.07 146.586C108.906 147.172 108.824 147.848 108.824 148.613V149.105C108.824 149.707 108.906 150.273 109.07 150.805C109.242 151.328 109.488 151.789 109.809 152.188C110.137 152.586 110.531 152.898 110.992 153.125C111.461 153.352 111.992 153.465 112.586 153.465C113.352 153.465 114 153.309 114.531 152.996C115.062 152.684 115.527 152.266 115.926 151.742L117.238 152.785C116.965 153.199 116.617 153.594 116.195 153.969C115.773 154.344 115.254 154.648 114.637 154.883C114.027 155.117 113.305 155.234 112.469 155.234ZM125.008 153.453C125.523 153.453 126 153.348 126.438 153.137C126.875 152.926 127.234 152.637 127.516 152.27C127.797 151.895 127.957 151.469 127.996 150.992H130.059C130.02 151.742 129.766 152.441 129.297 153.09C128.836 153.73 128.23 154.25 127.48 154.648C126.73 155.039 125.906 155.234 125.008 155.234C124.055 155.234 123.223 155.066 122.512 154.73C121.809 154.395 121.223 153.934 120.754 153.348C120.293 152.762 119.945 152.09 119.711 151.332C119.484 150.566 119.371 149.758 119.371 148.906V148.414C119.371 147.562 119.484 146.758 119.711 146C119.945 145.234 120.293 144.559 120.754 143.973C121.223 143.387 121.809 142.926 122.512 142.59C123.223 142.254 124.055 142.086 125.008 142.086C126 142.086 126.867 142.289 127.609 142.695C128.352 143.094 128.934 143.641 129.355 144.336C129.785 145.023 130.02 145.805 130.059 146.68H127.996C127.957 146.156 127.809 145.684 127.551 145.262C127.301 144.84 126.957 144.504 126.52 144.254C126.09 143.996 125.586 143.867 125.008 143.867C124.344 143.867 123.785 144 123.332 144.266C122.887 144.523 122.531 144.875 122.266 145.32C122.008 145.758 121.82 146.246 121.703 146.785C121.594 147.316 121.539 147.859 121.539 148.414V148.906C121.539 149.461 121.594 150.008 121.703 150.547C121.812 151.086 121.996 151.574 122.254 152.012C122.52 152.449 122.875 152.801 123.32 153.066C123.773 153.324 124.336 153.453 125.008 153.453ZM137.805 142.32V143.984H130.949V142.32H137.805ZM133.27 139.238H135.438V151.859C135.438 152.289 135.504 152.613 135.637 152.832C135.77 153.051 135.941 153.195 136.152 153.266C136.363 153.336 136.59 153.371 136.832 153.371C137.012 153.371 137.199 153.355 137.395 153.324C137.598 153.285 137.75 153.254 137.852 153.23L137.863 155C137.691 155.055 137.465 155.105 137.184 155.152C136.91 155.207 136.578 155.234 136.188 155.234C135.656 155.234 135.168 155.129 134.723 154.918C134.277 154.707 133.922 154.355 133.656 153.863C133.398 153.363 133.27 152.691 133.27 151.848V139.238ZM142.703 142.32V155H140.523V142.32H142.703ZM140.359 138.957C140.359 138.605 140.465 138.309 140.676 138.066C140.895 137.824 141.215 137.703 141.637 137.703C142.051 137.703 142.367 137.824 142.586 138.066C142.812 138.309 142.926 138.605 142.926 138.957C142.926 139.293 142.812 139.582 142.586 139.824C142.367 140.059 142.051 140.176 141.637 140.176C141.215 140.176 140.895 140.059 140.676 139.824C140.465 139.582 140.359 139.293 140.359 138.957ZM150.039 153.043L153.508 142.32H155.723L151.164 155H149.711L150.039 153.043ZM147.145 142.32L150.719 153.102L150.965 155H149.512L144.918 142.32H147.145ZM162.906 155.234C162.023 155.234 161.223 155.086 160.504 154.789C159.793 154.484 159.18 154.059 158.664 153.512C158.156 152.965 157.766 152.316 157.492 151.566C157.219 150.816 157.082 149.996 157.082 149.105V148.613C157.082 147.582 157.234 146.664 157.539 145.859C157.844 145.047 158.258 144.359 158.781 143.797C159.305 143.234 159.898 142.809 160.562 142.52C161.227 142.23 161.914 142.086 162.625 142.086C163.531 142.086 164.312 142.242 164.969 142.555C165.633 142.867 166.176 143.305 166.598 143.867C167.02 144.422 167.332 145.078 167.535 145.836C167.738 146.586 167.84 147.406 167.84 148.297V149.27H158.371V147.5H165.672V147.336C165.641 146.773 165.523 146.227 165.32 145.695C165.125 145.164 164.812 144.727 164.383 144.383C163.953 144.039 163.367 143.867 162.625 143.867C162.133 143.867 161.68 143.973 161.266 144.184C160.852 144.387 160.496 144.691 160.199 145.098C159.902 145.504 159.672 146 159.508 146.586C159.344 147.172 159.262 147.848 159.262 148.613V149.105C159.262 149.707 159.344 150.273 159.508 150.805C159.68 151.328 159.926 151.789 160.246 152.188C160.574 152.586 160.969 152.898 161.43 153.125C161.898 153.352 162.43 153.465 163.023 153.465C163.789 153.465 164.438 153.309 164.969 152.996C165.5 152.684 165.965 152.266 166.363 151.742L167.676 152.785C167.402 153.199 167.055 153.594 166.633 153.969C166.211 154.344 165.691 154.648 165.074 154.883C164.465 155.117 163.742 155.234 162.906 155.234ZM172.727 137V155H170.547V137H172.727ZM179.77 153.688L183.297 142.32H185.617L180.531 156.957C180.414 157.27 180.258 157.605 180.062 157.965C179.875 158.332 179.633 158.68 179.336 159.008C179.039 159.336 178.68 159.602 178.258 159.805C177.844 160.016 177.348 160.121 176.77 160.121C176.598 160.121 176.379 160.098 176.113 160.051C175.848 160.004 175.66 159.965 175.551 159.934L175.539 158.176C175.602 158.184 175.699 158.191 175.832 158.199C175.973 158.215 176.07 158.223 176.125 158.223C176.617 158.223 177.035 158.156 177.379 158.023C177.723 157.898 178.012 157.684 178.246 157.379C178.488 157.082 178.695 156.672 178.867 156.148L179.77 153.688ZM177.18 142.32L180.473 152.164L181.035 154.449L179.477 155.246L174.812 142.32H177.18ZM25.1289 180.832V174.305C25.1289 173.805 25.0273 173.371 24.8242 173.004C24.6289 172.629 24.332 172.34 23.9336 172.137C23.5352 171.934 23.043 171.832 22.457 171.832C21.9102 171.832 21.4297 171.926 21.0156 172.113C20.6094 172.301 20.2891 172.547 20.0547 172.852C19.8281 173.156 19.7148 173.484 19.7148 173.836H17.5469C17.5469 173.383 17.6641 172.934 17.8984 172.488C18.1328 172.043 18.4688 171.641 18.9062 171.281C19.3516 170.914 19.8828 170.625 20.5 170.414C21.125 170.195 21.8203 170.086 22.5859 170.086C23.5078 170.086 24.3203 170.242 25.0234 170.555C25.7344 170.867 26.2891 171.34 26.6875 171.973C27.0938 172.598 27.2969 173.383 27.2969 174.328V180.234C27.2969 180.656 27.332 181.105 27.4023 181.582C27.4805 182.059 27.5938 182.469 27.7422 182.812V183H25.4805C25.3711 182.75 25.2852 182.418 25.2227 182.004C25.1602 181.582 25.1289 181.191 25.1289 180.832ZM25.5039 175.312L25.5273 176.836H23.3359C22.7188 176.836 22.168 176.887 21.6836 176.988C21.1992 177.082 20.793 177.227 20.4648 177.422C20.1367 177.617 19.8867 177.863 19.7148 178.16C19.543 178.449 19.457 178.789 19.457 179.18C19.457 179.578 19.5469 179.941 19.7266 180.27C19.9062 180.598 20.1758 180.859 20.5352 181.055C20.9023 181.242 21.3516 181.336 21.8828 181.336C22.5469 181.336 23.1328 181.195 23.6406 180.914C24.1484 180.633 24.5508 180.289 24.8477 179.883C25.1523 179.477 25.3164 179.082 25.3398 178.699L26.2656 179.742C26.2109 180.07 26.0625 180.434 25.8203 180.832C25.5781 181.23 25.2539 181.613 24.8477 181.98C24.4492 182.34 23.9727 182.641 23.418 182.883C22.8711 183.117 22.2539 183.234 21.5664 183.234C20.707 183.234 19.9531 183.066 19.3047 182.73C18.6641 182.395 18.1641 181.945 17.8047 181.383C17.4531 180.812 17.2773 180.176 17.2773 179.473C17.2773 178.793 17.4102 178.195 17.6758 177.68C17.9414 177.156 18.3242 176.723 18.8242 176.379C19.3242 176.027 19.9258 175.762 20.6289 175.582C21.332 175.402 22.1172 175.312 22.9844 175.312H25.5039ZM32.875 173.027V183H30.707V170.32H32.7578L32.875 173.027ZM32.3594 176.18L31.457 176.145C31.4648 175.277 31.5938 174.477 31.8438 173.742C32.0938 173 32.4453 172.355 32.8984 171.809C33.3516 171.262 33.8906 170.84 34.5156 170.543C35.1484 170.238 35.8477 170.086 36.6133 170.086C37.2383 170.086 37.8008 170.172 38.3008 170.344C38.8008 170.508 39.2266 170.773 39.5781 171.141C39.9375 171.508 40.2109 171.984 40.3984 172.57C40.5859 173.148 40.6797 173.855 40.6797 174.691V183H38.5V174.668C38.5 174.004 38.4023 173.473 38.207 173.074C38.0117 172.668 37.7266 172.375 37.3516 172.195C36.9766 172.008 36.5156 171.914 35.9688 171.914C35.4297 171.914 34.9375 172.027 34.4922 172.254C34.0547 172.48 33.6758 172.793 33.3555 173.191C33.043 173.59 32.7969 174.047 32.6172 174.562C32.4453 175.07 32.3594 175.609 32.3594 176.18ZM51.9648 180.539V165H54.1445V183H52.1523L51.9648 180.539ZM43.4336 176.801V176.555C43.4336 175.586 43.5508 174.707 43.7852 173.918C44.0273 173.121 44.3672 172.438 44.8047 171.867C45.25 171.297 45.7773 170.859 46.3867 170.555C47.0039 170.242 47.6914 170.086 48.4492 170.086C49.2461 170.086 49.9414 170.227 50.5352 170.508C51.1367 170.781 51.6445 171.184 52.0586 171.715C52.4805 172.238 52.8125 172.871 53.0547 173.613C53.2969 174.355 53.4648 175.195 53.5586 176.133V177.211C53.4727 178.141 53.3047 178.977 53.0547 179.719C52.8125 180.461 52.4805 181.094 52.0586 181.617C51.6445 182.141 51.1367 182.543 50.5352 182.824C49.9336 183.098 49.2305 183.234 48.4258 183.234C47.6836 183.234 47.0039 183.074 46.3867 182.754C45.7773 182.434 45.25 181.984 44.8047 181.406C44.3672 180.828 44.0273 180.148 43.7852 179.367C43.5508 178.578 43.4336 177.723 43.4336 176.801ZM45.6133 176.555V176.801C45.6133 177.434 45.6758 178.027 45.8008 178.582C45.9336 179.137 46.1367 179.625 46.4102 180.047C46.6836 180.469 47.0312 180.801 47.4531 181.043C47.875 181.277 48.3789 181.395 48.9648 181.395C49.6836 181.395 50.2734 181.242 50.7344 180.938C51.2031 180.633 51.5781 180.23 51.8594 179.73C52.1406 179.23 52.3594 178.688 52.5156 178.102V175.277C52.4219 174.848 52.2852 174.434 52.1055 174.035C51.9336 173.629 51.707 173.27 51.4258 172.957C51.1523 172.637 50.8125 172.383 50.4062 172.195C50.0078 172.008 49.5352 171.914 48.9883 171.914C48.3945 171.914 47.8828 172.039 47.4531 172.289C47.0312 172.531 46.6836 172.867 46.4102 173.297C46.1367 173.719 45.9336 174.211 45.8008 174.773C45.6758 175.328 45.6133 175.922 45.6133 176.555ZM68.7344 183.234C67.8516 183.234 67.0508 183.086 66.332 182.789C65.6211 182.484 65.0078 182.059 64.4922 181.512C63.9844 180.965 63.5938 180.316 63.3203 179.566C63.0469 178.816 62.9102 177.996 62.9102 177.105V176.613C62.9102 175.582 63.0625 174.664 63.3672 173.859C63.6719 173.047 64.0859 172.359 64.6094 171.797C65.1328 171.234 65.7266 170.809 66.3906 170.52C67.0547 170.23 67.7422 170.086 68.4531 170.086C69.3594 170.086 70.1406 170.242 70.7969 170.555C71.4609 170.867 72.0039 171.305 72.4258 171.867C72.8477 172.422 73.1602 173.078 73.3633 173.836C73.5664 174.586 73.668 175.406 73.668 176.297V177.27H64.1992V175.5H71.5V175.336C71.4688 174.773 71.3516 174.227 71.1484 173.695C70.9531 173.164 70.6406 172.727 70.2109 172.383C69.7812 172.039 69.1953 171.867 68.4531 171.867C67.9609 171.867 67.5078 171.973 67.0938 172.184C66.6797 172.387 66.3242 172.691 66.0273 173.098C65.7305 173.504 65.5 174 65.3359 174.586C65.1719 175.172 65.0898 175.848 65.0898 176.613V177.105C65.0898 177.707 65.1719 178.273 65.3359 178.805C65.5078 179.328 65.7539 179.789 66.0742 180.188C66.4023 180.586 66.7969 180.898 67.2578 181.125C67.7266 181.352 68.2578 181.465 68.8516 181.465C69.6172 181.465 70.2656 181.309 70.7969 180.996C71.3281 180.684 71.793 180.266 72.1914 179.742L73.5039 180.785C73.2305 181.199 72.8828 181.594 72.4609 181.969C72.0391 182.344 71.5195 182.648 70.9023 182.883C70.293 183.117 69.5703 183.234 68.7344 183.234ZM79.4336 183H77.2656V168.984C77.2656 168.07 77.4297 167.301 77.7578 166.676C78.0938 166.043 78.5742 165.566 79.1992 165.246C79.8242 164.918 80.5664 164.754 81.4258 164.754C81.6758 164.754 81.9258 164.77 82.1758 164.801C82.4336 164.832 82.6836 164.879 82.9258 164.941L82.8086 166.711C82.6445 166.672 82.457 166.645 82.2461 166.629C82.043 166.613 81.8398 166.605 81.6367 166.605C81.1758 166.605 80.7773 166.699 80.4414 166.887C80.1133 167.066 79.8633 167.332 79.6914 167.684C79.5195 168.035 79.4336 168.469 79.4336 168.984V183ZM82.2461 170.32V171.984H75.2617V170.32H82.2461ZM86.2891 183H84.1211V169.219C84.1211 168.258 84.3047 167.445 84.6719 166.781C85.0469 166.117 85.582 165.613 86.2773 165.27C86.9727 164.926 87.7969 164.754 88.75 164.754C89.3203 164.754 89.875 164.824 90.4141 164.965C90.9531 165.098 91.5078 165.266 92.0781 165.469L91.7031 167.297C91.3516 167.156 90.9375 167.023 90.4609 166.898C89.9844 166.766 89.4688 166.699 88.9141 166.699C87.9844 166.699 87.3125 166.91 86.8984 167.332C86.4922 167.746 86.2891 168.375 86.2891 169.219V183ZM88.8789 170.32V171.984H82.1172V170.32H88.8789ZM93.1445 170.32V183H90.9766V170.32H93.1445ZM101.758 181.453C102.273 181.453 102.75 181.348 103.188 181.137C103.625 180.926 103.984 180.637 104.266 180.27C104.547 179.895 104.707 179.469 104.746 178.992H106.809C106.77 179.742 106.516 180.441 106.047 181.09C105.586 181.73 104.98 182.25 104.23 182.648C103.48 183.039 102.656 183.234 101.758 183.234C100.805 183.234 99.9727 183.066 99.2617 182.73C98.5586 182.395 97.9727 181.934 97.5039 181.348C97.043 180.762 96.6953 180.09 96.4609 179.332C96.2344 178.566 96.1211 177.758 96.1211 176.906V176.414C96.1211 175.562 96.2344 174.758 96.4609 174C96.6953 173.234 97.043 172.559 97.5039 171.973C97.9727 171.387 98.5586 170.926 99.2617 170.59C99.9727 170.254 100.805 170.086 101.758 170.086C102.75 170.086 103.617 170.289 104.359 170.695C105.102 171.094 105.684 171.641 106.105 172.336C106.535 173.023 106.77 173.805 106.809 174.68H104.746C104.707 174.156 104.559 173.684 104.301 173.262C104.051 172.84 103.707 172.504 103.27 172.254C102.84 171.996 102.336 171.867 101.758 171.867C101.094 171.867 100.535 172 100.082 172.266C99.6367 172.523 99.2812 172.875 99.0156 173.32C98.7578 173.758 98.5703 174.246 98.4531 174.785C98.3438 175.316 98.2891 175.859 98.2891 176.414V176.906C98.2891 177.461 98.3438 178.008 98.4531 178.547C98.5625 179.086 98.7461 179.574 99.0039 180.012C99.2695 180.449 99.625 180.801 100.07 181.066C100.523 181.324 101.086 181.453 101.758 181.453ZM111.602 170.32V183H109.422V170.32H111.602ZM109.258 166.957C109.258 166.605 109.363 166.309 109.574 166.066C109.793 165.824 110.113 165.703 110.535 165.703C110.949 165.703 111.266 165.824 111.484 166.066C111.711 166.309 111.824 166.605 111.824 166.957C111.824 167.293 111.711 167.582 111.484 167.824C111.266 168.059 110.949 168.176 110.535 168.176C110.113 168.176 109.793 168.059 109.574 167.824C109.363 167.582 109.258 167.293 109.258 166.957ZM120.344 183.234C119.461 183.234 118.66 183.086 117.941 182.789C117.23 182.484 116.617 182.059 116.102 181.512C115.594 180.965 115.203 180.316 114.93 179.566C114.656 178.816 114.52 177.996 114.52 177.105V176.613C114.52 175.582 114.672 174.664 114.977 173.859C115.281 173.047 115.695 172.359 116.219 171.797C116.742 171.234 117.336 170.809 118 170.52C118.664 170.23 119.352 170.086 120.062 170.086C120.969 170.086 121.75 170.242 122.406 170.555C123.07 170.867 123.613 171.305 124.035 171.867C124.457 172.422 124.77 173.078 124.973 173.836C125.176 174.586 125.277 175.406 125.277 176.297V177.27H115.809V175.5H123.109V175.336C123.078 174.773 122.961 174.227 122.758 173.695C122.562 173.164 122.25 172.727 121.82 172.383C121.391 172.039 120.805 171.867 120.062 171.867C119.57 171.867 119.117 171.973 118.703 172.184C118.289 172.387 117.934 172.691 117.637 173.098C117.34 173.504 117.109 174 116.945 174.586C116.781 175.172 116.699 175.848 116.699 176.613V177.105C116.699 177.707 116.781 178.273 116.945 178.805C117.117 179.328 117.363 179.789 117.684 180.188C118.012 180.586 118.406 180.898 118.867 181.125C119.336 181.352 119.867 181.465 120.461 181.465C121.227 181.465 121.875 181.309 122.406 180.996C122.938 180.684 123.402 180.266 123.801 179.742L125.113 180.785C124.84 181.199 124.492 181.594 124.07 181.969C123.648 182.344 123.129 182.648 122.512 182.883C121.902 183.117 121.18 183.234 120.344 183.234ZM129.977 173.027V183H127.809V170.32H129.859L129.977 173.027ZM129.461 176.18L128.559 176.145C128.566 175.277 128.695 174.477 128.945 173.742C129.195 173 129.547 172.355 130 171.809C130.453 171.262 130.992 170.84 131.617 170.543C132.25 170.238 132.949 170.086 133.715 170.086C134.34 170.086 134.902 170.172 135.402 170.344C135.902 170.508 136.328 170.773 136.68 171.141C137.039 171.508 137.312 171.984 137.5 172.57C137.688 173.148 137.781 173.855 137.781 174.691V183H135.602V174.668C135.602 174.004 135.504 173.473 135.309 173.074C135.113 172.668 134.828 172.375 134.453 172.195C134.078 172.008 133.617 171.914 133.07 171.914C132.531 171.914 132.039 172.027 131.594 172.254C131.156 172.48 130.777 172.793 130.457 173.191C130.145 173.59 129.898 174.047 129.719 174.562C129.547 175.07 129.461 175.609 129.461 176.18ZM146.383 170.32V171.984H139.527V170.32H146.383ZM141.848 167.238H144.016V179.859C144.016 180.289 144.082 180.613 144.215 180.832C144.348 181.051 144.52 181.195 144.73 181.266C144.941 181.336 145.168 181.371 145.41 181.371C145.59 181.371 145.777 181.355 145.973 181.324C146.176 181.285 146.328 181.254 146.43 181.23L146.441 183C146.27 183.055 146.043 183.105 145.762 183.152C145.488 183.207 145.156 183.234 144.766 183.234C144.234 183.234 143.746 183.129 143.301 182.918C142.855 182.707 142.5 182.355 142.234 181.863C141.977 181.363 141.848 180.691 141.848 179.848V167.238ZM151.281 165V183H149.102V165H151.281ZM158.324 181.688L161.852 170.32H164.172L159.086 184.957C158.969 185.27 158.812 185.605 158.617 185.965C158.43 186.332 158.188 186.68 157.891 187.008C157.594 187.336 157.234 187.602 156.812 187.805C156.398 188.016 155.902 188.121 155.324 188.121C155.152 188.121 154.934 188.098 154.668 188.051C154.402 188.004 154.215 187.965 154.105 187.934L154.094 186.176C154.156 186.184 154.254 186.191 154.387 186.199C154.527 186.215 154.625 186.223 154.68 186.223C155.172 186.223 155.59 186.156 155.934 186.023C156.277 185.898 156.566 185.684 156.801 185.379C157.043 185.082 157.25 184.672 157.422 184.148L158.324 181.688ZM155.734 170.32L159.027 180.164L159.59 182.449L158.031 183.246L153.367 170.32H155.734ZM164.898 181.852C164.898 181.484 165.012 181.176 165.238 180.926C165.473 180.668 165.809 180.539 166.246 180.539C166.684 180.539 167.016 180.668 167.242 180.926C167.477 181.176 167.594 181.484 167.594 181.852C167.594 182.211 167.477 182.516 167.242 182.766C167.016 183.016 166.684 183.141 166.246 183.141C165.809 183.141 165.473 183.016 165.238 182.766C165.012 182.516 164.898 182.211 164.898 181.852Z" fill="#E8E8E8"/>
</g>
<defs>
<linearGradient id="paint0_linear_917_2327" x1="105" y1="0" x2="105" y2="210" gradientUnits="userSpaceOnUse">
<stop stop-color="#DC3838"/>
<stop offset="0.52" stop-color="#8A4388"/>
<stop offset="1" stop-color="#3E4DD2"/>
</linearGradient>
<linearGradient id="paint1_linear_917_2327" x1="105" y1="0" x2="105" y2="210" gradientUnits="userSpaceOnUse">
<stop stop-color="#DC3838"/>
<stop offset="0.52" stop-color="#8A4388"/>
<stop offset="1" stop-color="#3E4DD2"/>
</linearGradient>
<clipPath id="clip0_917_2327">
<rect width="210" height="210" rx="48" fill="white"/>
</clipPath>
</defs>
</svg>
