<svg width="460" height="368" viewBox="0 0 460 368" fill="none" xmlns="http://www.w3.org/2000/svg">
<path d="M81.7344 315.043C81.7432 317.647 82.3267 320.14 83.3577 321.981C84.3887 323.822 85.7849 324.864 87.243 324.88H97.4442C98.8261 325.074 100.116 326.192 101.057 328.009C101.998 329.827 102.52 332.211 102.52 334.686C102.52 337.162 101.998 339.546 101.057 341.363C100.116 343.181 98.8261 344.298 97.4442 344.493H98.1243C96.6635 344.493 95.2622 345.529 94.2292 347.374C93.1961 349.219 92.6157 351.721 92.6157 354.329C92.6157 356.939 93.1961 359.44 94.2292 361.285C95.2622 363.13 96.6635 364.166 98.1243 364.166H188.609C190.07 364.166 191.471 363.13 192.504 361.285C193.538 359.44 194.118 356.939 194.118 354.329C194.118 351.721 193.538 349.219 192.504 347.374C191.471 345.529 190.07 344.493 188.609 344.493H159.91C159.152 344.599 158.391 344.425 157.672 343.98C156.955 343.536 156.296 342.831 155.738 341.91C155.18 340.989 154.735 339.872 154.43 338.629C154.126 337.385 153.968 336.043 153.968 334.686C153.968 333.33 154.126 331.987 154.43 330.744C154.735 329.501 155.18 328.384 155.738 327.463C156.296 326.542 156.955 325.837 157.672 325.392C158.391 324.948 159.152 324.773 159.91 324.88H177.592C179.053 324.88 180.454 323.844 181.487 321.998C182.52 320.154 183.1 317.652 183.1 315.043C183.1 312.434 182.52 309.932 181.487 308.087C180.454 306.242 179.053 305.206 177.592 305.206H87.175C85.7258 305.238 84.3422 306.288 83.3237 308.13C82.3053 309.971 81.7344 312.455 81.7344 315.043ZM146.716 334.656C146.721 335.95 146.581 337.233 146.306 338.43C146.031 339.627 145.625 340.715 145.113 341.63C144.6 342.545 143.991 343.269 143.321 343.76C142.651 344.252 141.932 344.5 141.207 344.493H116.384C115.627 344.599 114.865 344.425 114.147 343.98C113.43 343.536 112.771 342.831 112.213 341.91C111.655 340.989 111.21 339.872 110.905 338.629C110.601 337.385 110.443 336.043 110.443 334.686C110.443 333.33 110.601 331.987 110.905 330.744C111.21 329.501 111.655 328.384 112.213 327.463C112.771 326.542 113.43 325.837 114.147 325.392C114.865 324.948 115.627 324.773 116.384 324.88H141.207C141.929 324.872 142.645 325.118 143.313 325.606C143.981 326.094 144.589 326.813 145.101 327.721C145.613 328.63 146.019 329.711 146.296 330.9C146.574 332.09 146.716 333.367 146.716 334.656Z" fill="#F2F2F2"/>
<path d="M265.634 9.83679C265.643 12.4411 266.226 14.9337 267.257 16.7748C268.288 18.6165 269.684 19.6578 271.142 19.6736L281.344 19.6736C282.726 19.8679 284.016 20.9858 284.957 22.8032C285.897 24.6212 286.42 27.0051 286.42 29.4801C286.42 31.9557 285.897 34.3396 284.957 36.157C284.016 37.975 282.726 39.0923 281.344 39.2866H282.024C280.563 39.2866 279.162 40.3231 278.129 42.1678C277.096 44.0125 276.515 46.5148 276.515 49.1234C276.515 51.7326 277.096 54.2343 278.129 56.079C279.162 57.9237 280.563 58.9603 282.024 58.9603L372.508 58.9603C373.97 58.9603 375.371 57.9237 376.404 56.079C377.437 54.2343 378.017 51.7326 378.017 49.1234C378.017 46.5148 377.437 44.0125 376.404 42.1678C375.371 40.3231 373.97 39.2866 372.508 39.2866L343.809 39.2866C343.052 39.3934 342.29 39.2186 341.572 38.7741C340.854 38.3296 340.195 37.6246 339.637 36.7041C339.079 35.783 338.634 34.6657 338.33 33.4227C338.025 32.1792 337.868 30.8372 337.868 29.4801C337.868 28.1236 338.025 26.781 338.33 25.5381C338.634 24.2951 339.079 23.1778 339.637 22.2567C340.195 21.3356 340.854 20.6306 341.572 20.1861C342.29 19.7416 343.052 19.5674 343.809 19.6736L361.491 19.6736C362.952 19.6736 364.353 18.6377 365.386 16.7924C366.419 14.9477 367 12.446 367 9.83679C367 7.22821 366.419 4.72589 365.386 2.88118C364.353 1.03647 362.952 -3.43323e-05 361.491 -3.43323e-05L271.074 -3.43323e-05C269.625 0.0321465 268.242 1.08201 267.223 2.92368C266.205 4.76475 265.634 7.24886 265.634 9.83679ZM330.615 29.4497C330.62 30.7437 330.481 32.0268 330.205 33.2236C329.93 34.421 329.525 35.5085 329.012 36.4236C328.5 37.3387 327.891 38.0631 327.22 38.5543C326.55 39.0455 325.831 39.2945 325.107 39.2866H300.284C299.526 39.3934 298.765 39.2186 298.047 38.7741C297.329 38.3296 296.67 37.6246 296.112 36.7041C295.554 35.783 295.109 34.6657 294.804 33.4227C294.5 32.1792 294.343 30.8372 294.343 29.4801C294.343 28.1236 294.5 26.781 294.804 25.5381C295.109 24.2951 295.554 23.1778 296.112 22.2567C296.67 21.3356 297.329 20.6306 298.047 20.1861C298.765 19.7416 299.526 19.5674 300.284 19.6736L325.107 19.6736C325.829 19.6657 326.544 19.9123 327.212 20.4005C327.881 20.8881 328.488 21.607 329 22.5154C329.512 23.4244 329.918 24.5046 330.196 25.6941C330.473 26.8843 330.615 28.1606 330.615 29.4497Z" fill="#F2F2F2"/>
<path d="M34.0563 238.746C34.0563 240.031 34.1986 241.302 34.4747 242.489C34.7508 243.676 35.1555 244.754 35.6657 245.662C36.1759 246.571 36.7816 247.291 37.4481 247.783C38.1146 248.274 38.8292 248.528 39.5506 248.528H112.001C113.468 248.528 114.874 249.564 115.91 251.41C116.947 253.256 117.53 255.759 117.53 258.37C117.53 260.98 116.947 263.483 115.91 265.329C114.874 267.174 113.468 268.211 112.001 268.211H56.4777C55.7174 268.105 54.953 268.28 54.2325 268.724C53.5118 269.169 52.8508 269.874 52.2907 270.795C51.7307 271.717 51.284 272.835 50.9782 274.078C50.6728 275.322 50.5151 276.665 50.5151 278.023C50.5151 279.38 50.6728 280.723 50.9782 281.967C51.284 283.211 51.7307 284.329 52.2907 285.25C52.8508 286.172 53.5118 286.877 54.2325 287.322C54.953 287.767 55.7174 287.941 56.4777 287.834H147.288C148.048 287.941 148.813 287.767 149.533 287.322C150.254 286.877 150.915 286.172 151.475 285.25C152.035 284.329 152.482 283.211 152.787 281.967C153.093 280.723 153.251 279.38 153.251 278.023C153.251 276.665 153.093 275.322 152.787 274.078C152.482 272.835 152.035 271.717 151.475 270.795C150.915 269.874 150.254 269.169 149.533 268.724C148.813 268.28 148.048 268.105 147.288 268.211H130.737C129.271 268.211 127.864 267.174 126.827 265.329C125.791 263.483 125.208 260.98 125.208 258.37C125.208 255.759 125.791 253.256 126.827 251.41C127.864 249.564 129.271 248.528 130.737 248.528H130.225C131.612 248.333 132.906 247.215 133.851 245.396C134.795 243.577 135.319 241.192 135.319 238.716C135.319 236.239 134.795 233.853 133.851 232.035C132.906 230.217 131.612 229.099 130.225 228.904H39.38C37.9467 228.983 36.5878 230.057 35.593 231.896C34.5982 233.735 34.0467 236.194 34.0563 238.746Z" fill="#F2F2F2"/>
<path d="M306.625 86.068C306.625 87.3523 306.767 88.6239 307.044 89.811C307.32 90.9975 307.724 92.0759 308.235 92.9841C308.745 93.8924 309.35 94.6129 310.017 95.1044C310.683 95.5959 311.398 95.8493 312.119 95.8493L384.57 95.8493C386.036 95.8493 387.442 96.8857 388.479 98.7314C389.516 100.578 390.099 103.081 390.099 105.691C390.099 108.301 389.516 110.805 388.479 112.65C387.442 114.496 386.036 115.533 384.57 115.533L329.047 115.533C328.286 115.426 327.522 115.601 326.801 116.046C326.081 116.491 325.42 117.195 324.86 118.117C324.3 119.039 323.853 120.156 323.547 121.4C323.242 122.644 323.084 123.987 323.084 125.344C323.084 126.702 323.242 128.045 323.547 129.289C323.853 130.532 324.3 131.65 324.86 132.572C325.42 133.494 326.081 134.199 326.801 134.644C327.522 135.088 328.286 135.263 329.047 135.156L419.857 135.156C420.617 135.263 421.382 135.088 422.102 134.644C422.823 134.199 423.483 133.494 424.043 132.572C424.603 131.65 425.051 130.532 425.356 129.289C425.662 128.045 425.819 126.702 425.819 125.344C425.819 123.987 425.662 122.644 425.356 121.4C425.051 120.156 424.603 119.039 424.043 118.117C423.483 117.195 422.823 116.491 422.102 116.046C421.382 115.601 420.617 115.426 419.857 115.533H403.305C401.839 115.533 400.433 114.496 399.396 112.65C398.36 110.805 397.777 108.301 397.777 105.691C397.777 103.081 398.36 100.578 399.396 98.7314C400.433 96.8857 401.839 95.8493 403.305 95.8493H402.794C404.18 95.6548 405.475 94.5364 406.42 92.718C407.364 90.8991 407.888 88.5139 407.888 86.0376C407.888 83.5608 407.364 81.175 406.42 79.3566C405.475 77.5383 404.18 76.4205 402.794 76.226L311.949 76.226C310.516 76.305 309.157 77.3785 308.162 79.2175C307.167 81.0565 306.616 83.5152 306.625 86.068Z" fill="#F2F2F2"/>
<path d="M0 162.435C0 165.043 0.587943 167.543 1.63433 169.387C2.68072 171.23 4.09979 172.266 5.57981 172.266H21.0104C22.4901 172.266 23.9095 173.302 24.9559 175.146C26.0023 176.99 26.5903 179.491 26.5903 182.098C26.5903 184.706 26.0023 187.207 24.9559 189.05C23.9095 190.894 22.4901 191.93 21.0104 191.93H18.1172C16.7174 192.124 15.4106 193.242 14.4576 195.058C13.5045 196.874 12.9755 199.258 12.9755 201.731C12.9755 204.205 13.5045 206.589 14.4576 208.405C15.4106 210.222 16.7174 211.339 18.1172 211.533H109.771C110.538 211.639 111.309 211.465 112.037 211.021C112.764 210.576 113.431 209.872 113.996 208.951C114.562 208.031 115.012 206.914 115.321 205.671C115.629 204.429 115.789 203.088 115.789 201.731C115.789 200.375 115.629 199.034 115.321 197.791C115.012 196.549 114.562 195.432 113.996 194.512C113.431 193.591 112.764 192.887 112.037 192.442C111.309 191.998 110.538 191.824 109.771 191.93H40.0576C38.5776 191.93 37.1585 190.894 36.1121 189.05C35.0657 187.207 34.4778 184.706 34.4778 182.098C34.4778 179.491 35.0657 176.99 36.1121 175.146C37.1585 173.302 38.5776 172.266 40.0576 172.266H97.2335C98.7132 172.266 100.133 171.23 101.179 169.387C102.225 167.543 102.813 165.043 102.813 162.435C102.813 159.827 102.225 157.326 101.179 155.483C100.133 153.639 98.7132 152.603 97.2335 152.603H5.57981C4.10289 152.619 2.68865 153.659 1.64433 155.5C0.599664 157.34 0.00895526 159.832 0 162.435Z" fill="#F2F2F2"/>
<path d="M344.212 162.298C344.212 164.906 344.8 167.407 345.846 169.251C346.893 171.094 348.312 172.13 349.792 172.13H365.222C366.702 172.13 368.121 173.166 369.168 175.01C370.214 176.854 370.802 179.355 370.802 181.962C370.802 184.57 370.214 187.07 369.168 188.914C368.121 190.758 366.702 191.794 365.222 191.794H362.329C360.929 191.988 359.623 193.105 358.669 194.922C357.716 196.738 357.187 199.122 357.187 201.595C357.187 204.069 357.716 206.452 358.669 208.269C359.623 210.086 360.929 211.203 362.329 211.397L453.983 211.397C454.75 211.503 455.521 211.329 456.249 210.885C456.976 210.44 457.643 209.736 458.208 208.815C458.774 207.895 459.224 206.778 459.533 205.535C459.841 204.293 460.001 202.952 460.001 201.595C460.001 200.239 459.841 198.898 459.533 197.655C459.224 196.412 458.774 195.296 458.208 194.376C457.643 193.455 456.976 192.75 456.249 192.306C455.521 191.862 454.75 191.688 453.983 191.794L384.27 191.794C382.789 191.794 381.37 190.758 380.324 188.914C379.278 187.07 378.69 184.57 378.69 181.962C378.69 179.355 379.278 176.854 380.324 175.01C381.37 173.166 382.789 172.13 384.27 172.13L441.445 172.13C442.925 172.13 444.345 171.094 445.391 169.251C446.437 167.407 447.025 164.906 447.025 162.298C447.025 159.691 446.437 157.19 445.391 155.346C444.345 153.503 442.925 152.467 441.445 152.467L349.792 152.467C348.315 152.483 346.901 153.523 345.856 155.364C344.812 157.204 344.221 159.696 344.212 162.298Z" fill="#F2F2F2"/>
<path d="M91.7453 9.70261C91.7545 12.2574 92.3412 14.7023 93.3776 16.503C94.4141 18.3043 95.8163 19.3152 97.2776 19.3146H105.166C106.634 19.3146 108.041 20.3337 109.078 22.1475C110.116 23.9614 110.699 26.4218 110.699 28.9868C110.699 31.5523 110.116 34.0122 109.078 35.8266C108.041 37.6405 106.634 38.659 105.166 38.659H82.9346C81.4675 38.659 80.0602 39.6782 79.0227 41.4921C77.9852 43.3059 77.4022 45.7664 77.4022 48.3313C77.4022 50.8968 77.9852 53.3567 79.0227 55.1705C80.0602 56.985 81.4675 58.0035 82.9346 58.0035L130.437 58.0035C131.825 58.1946 133.121 59.2938 134.065 61.0808C135.01 62.8683 135.535 65.2124 135.535 67.6466C135.535 70.0801 135.01 72.4241 134.065 74.2117C133.121 75.9987 131.825 77.0979 130.437 77.2889H57.766C56.2989 77.2889 54.8916 78.3075 53.8541 80.122C52.8166 81.9358 52.2337 84.3956 52.2337 86.9612C52.2337 89.5261 52.8166 91.9865 53.8541 93.8004C54.8916 95.6142 56.2989 96.6334 57.766 96.6334H108.479C109.24 96.5283 110.005 96.7003 110.725 97.1374C111.446 97.5744 112.108 98.267 112.668 99.1727C113.229 100.078 113.676 101.177 113.982 102.399C114.288 103.621 114.445 104.941 114.445 106.276C114.445 107.61 114.288 108.93 113.982 110.152C113.676 111.374 113.229 112.473 112.668 113.378C112.108 114.284 111.446 114.977 110.725 115.414C110.005 115.851 109.24 116.023 108.479 115.918H36.1832C34.7161 115.918 33.3088 116.937 32.2713 118.751C31.2338 120.564 30.6509 123.025 30.6509 125.59C30.6509 128.155 31.2338 130.615 32.2713 132.429C33.3088 134.244 34.7161 135.262 36.1832 135.262H127.056C128.524 135.262 129.931 134.244 130.968 132.429C132.006 130.615 132.589 128.155 132.589 125.59C132.589 123.025 132.006 120.564 130.968 118.751C129.931 116.937 128.524 115.918 127.056 115.918H127.364C125.976 115.727 124.68 114.628 123.735 112.841C122.791 111.053 122.266 108.709 122.266 106.276C122.266 103.842 122.791 101.498 123.735 99.7101C124.68 97.9231 125.976 96.8245 127.364 96.6334H148.639C150.106 96.6334 151.514 95.6142 152.551 93.8004C153.589 91.9865 154.171 89.5261 154.171 86.9612C154.171 84.3956 153.589 81.9358 152.551 80.122C151.514 78.3075 150.106 77.2889 148.639 77.2889H149.322C148.561 77.3934 147.796 77.222 147.075 76.785C146.355 76.348 145.693 75.6542 145.133 74.7491C144.572 73.8433 144.125 72.7448 143.819 71.5226C143.514 70.3005 143.355 68.9804 143.355 67.6466C143.355 66.3121 143.514 64.9927 143.819 63.7699C144.125 62.5477 144.572 61.4491 145.133 60.5434C145.693 59.6383 146.355 58.9445 147.075 58.5075C147.796 58.0704 148.561 57.899 149.322 58.0035H173.808C175.275 58.0035 176.682 56.985 177.72 55.1705C178.757 53.3567 179.34 50.8968 179.34 48.3313C179.34 45.7664 178.757 43.3059 177.72 41.4921C176.682 39.6782 175.275 38.659 173.808 38.659L124.085 38.659C122.618 38.659 121.211 37.6405 120.173 35.8266C119.136 34.0122 118.553 31.5523 118.553 28.9868C118.553 26.4218 119.136 23.9614 120.173 22.1475C121.211 20.3337 122.618 19.3146 124.085 19.3146L188.151 19.3146C188.912 19.4196 189.677 19.2477 190.397 18.8106C191.118 18.3736 191.78 17.681 192.34 16.7753C192.901 15.8696 193.348 14.771 193.654 13.5488C193.959 12.3266 194.117 11.0065 194.117 9.67272C194.117 8.33831 193.959 7.01883 193.654 5.79607C193.348 4.5739 192.901 3.47534 192.34 2.56961C191.78 1.66388 191.118 0.970718 190.397 0.533676C189.677 0.0966339 188.912 -0.0747375 188.151 0.0303345H97.2434C95.7821 0.0458679 94.3837 1.07158 93.3534 2.88364C92.3234 4.69629 91.7453 7.14722 91.7453 9.70261Z" fill="#F2F2F2"/>
<path d="M327.166 238.563C327.175 241.118 327.762 243.563 328.799 245.364C329.835 247.165 331.237 248.176 332.698 248.175H340.587C342.055 248.175 343.462 249.194 344.499 251.008C345.536 252.822 346.119 255.282 346.119 257.847C346.119 260.413 345.536 262.873 344.499 264.687C343.462 266.501 342.055 267.52 340.587 267.52H318.355C316.888 267.52 315.481 268.539 314.444 270.353C313.406 272.166 312.823 274.627 312.823 277.192C312.823 279.757 313.406 282.217 314.444 284.031C315.481 285.846 316.888 286.864 318.355 286.864H365.858C367.246 287.055 368.542 288.154 369.486 289.941C370.431 291.729 370.956 294.073 370.956 296.507C370.956 298.941 370.431 301.285 369.486 303.072C368.542 304.859 367.246 305.958 365.858 306.149H293.187C291.72 306.149 290.312 307.168 289.275 308.983C288.238 310.796 287.655 313.256 287.655 315.822C287.655 318.387 288.238 320.847 289.275 322.661C290.312 324.475 291.72 325.494 293.187 325.494H343.9C344.661 325.389 345.425 325.561 346.146 325.998C346.867 326.435 347.529 327.128 348.089 328.033C348.65 328.939 349.097 330.038 349.403 331.26C349.709 332.482 349.866 333.802 349.866 335.136C349.866 336.47 349.709 337.79 349.403 339.012C349.097 340.235 348.65 341.333 348.089 342.239C347.529 343.145 346.867 343.837 346.146 344.274C345.425 344.711 344.661 344.883 343.9 344.778H271.604C270.137 344.778 268.73 345.797 267.692 347.611C266.655 349.425 266.072 351.885 266.072 354.45C266.072 357.016 266.655 359.476 267.692 361.29C268.73 363.104 270.137 364.123 271.604 364.123H362.477C363.945 364.123 365.352 363.104 366.389 361.29C367.427 359.476 368.01 357.016 368.01 354.45C368.01 351.885 367.427 349.425 366.389 347.611C365.352 345.797 363.945 344.778 362.477 344.778H362.785C361.397 344.587 360.101 343.489 359.156 341.702C358.212 339.914 357.687 337.57 357.687 335.136C357.687 332.702 358.212 330.358 359.156 328.571C360.101 326.784 361.397 325.685 362.785 325.494H384.06C385.527 325.494 386.935 324.475 387.972 322.661C389.009 320.847 389.592 318.387 389.592 315.822C389.592 313.256 389.009 310.796 387.972 308.983C386.935 307.168 385.527 306.149 384.06 306.149L384.743 306.149C383.982 306.254 383.217 306.083 382.496 305.646C381.775 305.209 381.114 304.515 380.554 303.61C379.993 302.704 379.546 301.605 379.24 300.383C378.935 299.161 378.776 297.841 378.776 296.507C378.776 295.173 378.935 293.853 379.24 292.63C379.546 291.408 379.993 290.31 380.554 289.404C381.114 288.499 381.775 287.805 382.496 287.368C383.217 286.931 383.982 286.76 384.743 286.864L409.229 286.864C410.696 286.864 412.103 285.846 413.141 284.031C414.178 282.217 414.761 279.757 414.761 277.192C414.761 274.627 414.178 272.166 413.141 270.353C412.103 268.539 410.696 267.52 409.229 267.52L359.506 267.52C358.039 267.52 356.632 266.501 355.594 264.687C354.557 262.873 353.974 260.413 353.974 257.847C353.974 255.282 354.557 252.822 355.594 251.008C356.632 249.194 358.039 248.175 359.506 248.175L423.572 248.175C424.333 248.28 425.097 248.108 425.818 247.671C426.539 247.234 427.201 246.542 427.761 245.636C428.322 244.73 428.769 243.632 429.075 242.409C429.38 241.187 429.538 239.867 429.538 238.533C429.538 237.199 429.38 235.879 429.075 234.657C428.769 233.434 428.322 232.336 427.761 231.43C427.201 230.524 426.539 229.831 425.818 229.394C425.097 228.957 424.333 228.786 423.572 228.891H332.664C331.203 228.906 329.805 229.932 328.774 231.744C327.744 233.557 327.166 236.008 327.166 238.563Z" fill="#F2F2F2"/>
<path d="M211.425 181.311C211.425 184.898 212.47 188.405 214.428 191.387C216.385 194.369 219.168 196.693 222.422 198.064C225.677 199.435 229.258 199.792 232.713 199.089C236.166 198.387 239.338 196.657 241.827 194.117C244.315 191.578 246.007 188.345 246.69 184.825C247.373 181.306 247.015 177.66 245.662 174.348C244.309 171.036 242.022 168.207 239.09 166.22C236.158 164.232 232.713 163.175 229.19 163.182C224.475 163.192 219.957 165.106 216.626 168.505C213.295 171.904 211.425 176.509 211.425 181.311Z" fill="#8A4388"/>
<path d="M229.189 237.974C225.669 237.974 222.227 239.037 219.3 241.029C216.372 243.021 214.091 245.852 212.743 249.165C211.396 252.478 211.043 256.123 211.73 259.64C212.417 263.156 214.113 266.386 216.602 268.922C219.092 271.457 222.263 273.184 225.717 273.883C229.17 274.583 232.749 274.224 236.002 272.852C239.255 271.48 242.035 269.156 243.991 266.175C245.947 263.193 246.991 259.688 246.991 256.103C246.991 251.294 245.115 246.683 241.777 243.284C238.439 239.884 233.911 237.974 229.189 237.974Z" fill="#414DCF"/>
<path d="M283.818 163.182C280.297 163.182 276.855 164.245 273.928 166.238C271 168.23 268.718 171.061 267.371 174.374C266.024 177.686 265.671 181.331 266.358 184.848C267.045 188.365 268.74 191.595 271.23 194.13C273.719 196.666 276.892 198.392 280.344 199.092C283.798 199.791 287.377 199.432 290.63 198.06C293.882 196.688 296.663 194.364 298.619 191.383C300.575 188.402 301.619 184.897 301.619 181.311C301.619 176.503 299.743 171.892 296.405 168.492C293.066 165.092 288.538 163.182 283.818 163.182Z" fill="#8A4388"/>
<path d="M229.19 123.658C232.713 123.666 236.158 122.608 239.09 120.621C242.022 118.633 244.309 115.804 245.662 112.492C247.015 109.18 247.373 105.534 246.69 102.015C246.007 98.4959 244.315 95.262 241.827 92.7228C239.338 90.184 236.166 88.4537 232.713 87.7513C229.258 87.0485 225.677 87.4056 222.422 88.7766C219.168 90.1477 216.385 92.4711 214.428 95.4532C212.47 98.4353 211.425 101.942 211.425 105.529C211.425 110.331 213.295 114.936 216.626 118.335C219.957 121.734 224.475 123.648 229.19 123.658Z" fill="#DC3838"/>
<path d="M192.003 179.22C192.003 175.634 190.959 172.129 189.003 169.148C187.047 166.167 184.267 163.843 181.014 162.471C177.761 161.099 174.182 160.74 170.729 161.439C167.276 162.139 164.104 163.865 161.614 166.401C159.125 168.936 157.429 172.166 156.742 175.683C156.056 179.2 156.408 182.845 157.755 186.157C159.103 189.47 161.384 192.301 164.312 194.293C167.239 196.285 170.681 197.349 174.201 197.349C178.923 197.349 183.451 195.439 186.789 192.039C190.127 188.639 192.003 184.028 192.003 179.22Z" fill="#8A4388"/>
<path d="M269.692 206.01C263.324 199.485 259.749 190.658 259.749 181.459C259.749 172.259 263.324 163.432 269.692 156.907C272.175 154.369 273.863 151.139 274.544 147.624C275.225 144.109 274.869 140.468 273.519 137.159C272.17 133.851 269.888 131.023 266.962 129.035C264.036 127.046 260.598 125.984 257.08 125.984C253.562 125.984 250.123 127.046 247.197 129.035C244.271 131.023 241.989 133.851 240.64 137.159C239.291 140.468 238.934 144.109 239.615 147.624C240.297 151.139 241.985 154.369 244.467 156.907C247.666 160.135 250.205 163.976 251.938 168.209C253.671 172.442 254.563 176.983 254.563 181.569C254.563 186.154 253.671 190.695 251.938 194.928C250.205 199.161 247.666 203.002 244.467 206.23C241.985 208.768 240.297 211.999 239.615 215.513C238.934 219.028 239.291 222.669 240.64 225.978C241.989 229.287 244.271 232.114 247.197 234.103C250.123 236.092 253.562 237.153 257.08 237.153C260.598 237.153 264.036 236.092 266.962 234.103C269.888 232.114 272.17 229.287 273.519 225.978C274.869 222.669 275.225 219.028 274.544 215.513C273.863 211.999 272.175 208.768 269.692 206.23V206.01Z" fill="url(#paint0_linear_853_231)"/>
<path d="M218.451 216.578C218.432 211.818 216.597 207.252 213.334 203.844C206.966 197.319 203.392 188.493 203.392 179.293C203.392 170.093 206.966 161.267 213.334 154.741C215.817 152.203 217.505 148.973 218.187 145.458C218.868 141.943 218.511 138.302 217.162 134.993C215.813 131.685 213.531 128.858 210.605 126.869C207.679 124.88 204.24 123.818 200.722 123.818C197.204 123.818 193.766 124.88 190.84 126.869C187.914 128.858 185.632 131.685 184.283 134.993C182.933 138.302 182.577 141.943 183.258 145.458C183.939 148.973 185.627 152.203 188.11 154.741C191.303 157.969 193.838 161.808 195.568 166.037C197.297 170.267 198.188 174.803 198.188 179.384C198.188 183.966 197.297 188.502 195.568 192.732C193.838 196.961 191.303 200.8 188.11 204.027C186.061 206.147 184.555 208.748 183.725 211.6C182.896 214.453 182.769 217.469 183.355 220.384C183.941 223.298 185.222 226.02 187.085 228.312C188.948 230.603 191.336 232.391 194.039 233.52C196.742 234.649 199.675 235.084 202.582 234.785C205.488 234.486 208.277 233.464 210.704 231.807C213.13 230.152 215.12 227.913 216.496 225.289C217.872 222.665 218.593 219.737 218.596 216.762L218.451 216.578Z" fill="url(#paint1_linear_853_231)"/>
<defs>
<linearGradient id="paint0_linear_853_231" x1="257.08" y1="125.984" x2="257.08" y2="237.153" gradientUnits="userSpaceOnUse">
<stop stop-color="#DC3838"/>
<stop offset="0.52" stop-color="#8A4388"/>
<stop offset="1" stop-color="#3E4DD2"/>
</linearGradient>
<linearGradient id="paint1_linear_853_231" x1="200.758" y1="123.818" x2="200.758" y2="234.876" gradientUnits="userSpaceOnUse">
<stop stop-color="#DC3838"/>
<stop offset="0.52" stop-color="#8A4388"/>
<stop offset="1" stop-color="#3E4DD2"/>
</linearGradient>
</defs>
</svg>
