<svg width="712" height="133" viewBox="0 0 712 133" fill="none" xmlns="http://www.w3.org/2000/svg">
<path d="M198.651 29.766L190.162 69.6094L212.008 52.4043H223.213L200.575 68.1379C201.632 67.9869 202.386 67.8738 202.839 67.7983C203.367 67.7228 203.858 67.6851 204.311 67.6851C208.159 67.6851 211.177 68.8925 213.366 71.3072C215.63 73.722 216.762 76.9291 216.762 80.9285C216.762 81.6831 216.724 82.4377 216.648 83.1923C216.573 83.8715 216.46 84.5506 216.309 85.2298L215.064 90.8894C214.913 91.7949 214.762 92.5495 214.611 93.1532C214.535 93.7569 214.498 94.2096 214.498 94.5115C214.498 95.9452 214.837 97.0017 215.516 97.6809C216.271 98.36 217.403 98.6996 218.912 98.6996C220.799 98.6996 222.421 98.0582 223.779 96.7753C225.138 95.4925 226.685 92.8136 228.42 88.7387H233.174C230.835 95.6811 227.93 100.926 224.459 104.472C220.987 107.944 216.95 109.679 212.347 109.679C207.744 109.679 204.197 108.585 201.707 106.397C199.292 104.133 198.085 100.926 198.085 96.7753C198.085 95.8698 198.123 94.9265 198.198 93.9455C198.349 92.9645 198.538 91.9458 198.764 90.8894L199.67 86.4749C199.821 85.7957 199.934 85.1166 200.009 84.4374C200.085 83.7583 200.122 83.0414 200.122 82.2868C200.122 80.4757 199.783 79.1174 199.104 78.2119C198.425 77.3064 197.406 76.8536 196.048 76.8536C194.916 76.8536 193.671 77.1932 192.312 77.8723C191.029 78.476 189.482 79.5325 187.671 81.0417L181.785 109H165.486L181.899 32.0298L198.651 29.766Z" fill="url(#paint0_linear_853_189)"/>
<path d="M262.194 44.8204C259.817 44.8204 258.153 44.345 257.202 43.3942C256.252 42.3755 255.776 41.1191 255.776 39.6249V37.995C255.776 36.5008 256.252 35.2784 257.202 34.3276C258.153 33.3088 259.817 32.7995 262.194 32.7995C264.571 32.7995 266.235 33.3088 267.186 34.3276C268.137 35.2784 268.612 36.5008 268.612 37.995V39.6249C268.612 41.1191 268.137 42.3755 267.186 43.3942C266.235 44.345 264.571 44.8204 262.194 44.8204ZM239.171 102.073H258.119V63.3612H239.171V56.4339H266.269V102.073H283.995V109H239.171V102.073ZM321.852 110.222C318.048 110.222 314.653 109.577 311.664 108.287C308.744 106.929 306.265 105.061 304.228 102.684C302.19 100.307 300.628 97.4205 299.542 94.0248C298.523 90.629 298.013 86.8597 298.013 82.7169C298.013 78.5741 298.557 74.8048 299.643 71.4091C300.73 68.0134 302.292 65.127 304.33 62.75C306.367 60.305 308.846 58.4374 311.766 57.147C314.687 55.8566 318.014 55.2114 321.75 55.2114C326.843 55.2114 330.986 56.332 334.178 58.5732C337.37 60.8144 339.713 63.7347 341.207 67.3342L334.687 70.7979C333.737 68.0813 332.141 65.9759 329.899 64.4818C327.726 62.9877 325.01 62.2406 321.75 62.2406C319.373 62.2406 317.233 62.6481 315.332 63.4631C313.498 64.2101 311.936 65.2968 310.646 66.723C309.355 68.1492 308.37 69.8471 307.691 71.8166C307.08 73.7861 306.774 75.9254 306.774 78.2346V87.1993C306.774 89.5084 307.08 91.6477 307.691 93.6173C308.37 95.5868 309.355 97.2847 310.646 98.7109C311.936 100.137 313.532 101.258 315.434 102.073C317.335 102.82 319.509 103.193 321.953 103.193C325.485 103.193 328.405 102.378 330.714 100.748C333.024 99.1184 334.857 96.8772 336.216 94.0248L342.022 97.9978C340.46 101.529 338.015 104.45 334.687 106.759C331.428 109.068 327.149 110.222 321.852 110.222ZM361.236 33.6145H369.386V81.1888H369.794L378.962 72.5297L396.484 56.4339H406.468L384.667 77.0121L409.015 109H398.929L378.453 81.6982L369.386 89.9499V109H361.236V33.6145ZM442.796 110.222C437.295 110.222 432.541 109.306 428.534 107.472C424.595 105.57 421.233 103.057 418.449 99.9334L423.95 95.1454C426.463 97.794 429.213 99.8315 432.202 101.258C435.19 102.684 438.789 103.397 443 103.397C447.075 103.397 450.403 102.684 452.984 101.258C455.632 99.7636 456.957 97.4545 456.957 94.3304C456.957 92.9721 456.685 91.8515 456.142 90.9686C455.666 90.0178 454.987 89.2707 454.104 88.7274C453.221 88.1841 452.236 87.7766 451.15 87.5049C450.063 87.1654 448.909 86.8937 447.686 86.69L439.435 85.4675C437.601 85.1958 435.597 84.8223 433.424 84.3469C431.319 83.8715 429.383 83.1244 427.617 82.1057C425.852 81.0191 424.357 79.5928 423.135 77.8271C421.98 76.0613 421.403 73.7522 421.403 70.8997C421.403 68.2511 421.912 65.9759 422.931 64.0743C424.018 62.1048 425.512 60.4748 427.414 59.1844C429.315 57.8261 431.556 56.8414 434.137 56.2301C436.718 55.551 439.536 55.2114 442.593 55.2114C447.347 55.2114 451.455 55.9585 454.919 57.4526C458.451 58.9467 461.473 61.0181 463.986 63.6668L458.688 68.6585C458.077 67.9115 457.296 67.1644 456.345 66.4174C455.462 65.6024 454.342 64.8893 452.984 64.278C451.693 63.5989 450.165 63.0556 448.399 62.6481C446.634 62.2406 444.596 62.0368 442.287 62.0368C438.144 62.0368 434.952 62.75 432.711 64.1762C430.538 65.6024 429.451 67.6738 429.451 70.3904C429.451 71.7487 429.689 72.9032 430.164 73.854C430.707 74.7369 431.421 75.45 432.303 75.9934C433.186 76.5367 434.171 76.9781 435.258 77.3177C436.412 77.5894 437.567 77.8271 438.721 78.0308L446.973 79.2533C448.875 79.5249 450.878 79.8985 452.984 80.3739C455.089 80.8493 457.024 81.6303 458.79 82.7169C460.556 83.7357 462.016 85.1279 463.171 86.8937C464.393 88.6595 465.004 90.9686 465.004 93.821C465.004 99.0505 462.967 103.091 458.892 105.944C454.885 108.796 449.52 110.222 442.796 110.222ZM505.816 109C501.809 109 498.854 107.879 496.953 105.638C495.119 103.397 494.202 100.511 494.202 96.9791V63.3612H476.68V56.4339H489.72C491.485 56.4339 492.708 56.0943 493.387 55.4151C494.134 54.6681 494.508 53.4117 494.508 51.6459V37.8931H502.352V56.4339H526.292V63.3612H502.352V102.073H526.292V109H505.816ZM584.217 109C581.025 109 578.75 108.185 577.392 106.555C576.034 104.925 575.185 102.888 574.845 100.443H574.336C573.181 103.499 571.314 105.91 568.733 107.676C566.22 109.374 562.824 110.222 558.546 110.222C553.044 110.222 548.664 108.796 545.404 105.944C542.144 103.091 540.514 99.1863 540.514 94.2285C540.514 89.3386 542.28 85.5694 545.812 82.9207C549.411 80.272 555.184 78.9477 563.13 78.9477H574.336V73.7522C574.336 69.881 573.249 66.9946 571.076 65.093C568.903 63.1235 565.812 62.1387 561.806 62.1387C558.274 62.1387 555.388 62.8518 553.146 64.278C550.905 65.6363 549.105 67.504 547.747 69.881L542.246 65.8061C542.925 64.4478 543.842 63.1235 544.997 61.8331C546.151 60.5427 547.577 59.4221 549.275 58.4713C550.973 57.4526 552.909 56.6716 555.082 56.1282C557.255 55.517 559.666 55.2114 562.315 55.2114C568.495 55.2114 573.385 56.7734 576.984 59.8975C580.652 63.0216 582.486 67.3682 582.486 72.9372V101.869H589.82V109H584.217ZM559.972 103.397C562.077 103.397 563.979 103.159 565.677 102.684C567.442 102.141 568.971 101.461 570.261 100.646C571.551 99.7636 572.536 98.7449 573.215 97.5903C573.962 96.3678 574.336 95.0774 574.336 93.7191V85.06H563.13C558.24 85.06 554.674 85.7391 552.433 87.0974C550.192 88.4557 549.071 90.4253 549.071 93.006V95.1454C549.071 97.862 550.022 99.9334 551.924 101.36C553.893 102.718 556.576 103.397 559.972 103.397ZM602.718 102.073H618.101V63.3612H602.718V56.4339H626.251V69.6773H626.76C627.847 65.5345 629.884 62.3085 632.873 59.9994C635.929 57.6224 639.8 56.4339 644.486 56.4339H651.821V64.5837H641.939C637.253 64.5837 633.45 65.942 630.53 68.6585C627.677 71.3751 626.251 74.9407 626.251 79.3551V102.073H646.625V109H602.718V102.073ZM689.066 109C685.059 109 682.105 107.879 680.203 105.638C678.37 103.397 677.453 100.511 677.453 96.9791V63.3612H659.931V56.4339H672.971C674.736 56.4339 675.959 56.0943 676.638 55.4151C677.385 54.6681 677.759 53.4117 677.759 51.6459V37.8931H685.603V56.4339H709.543V63.3612H685.603V102.073H709.543V109H689.066Z" fill="#EAEAEA"/>
<path d="M25.1401 106.807C25.1429 107.608 25.3223 108.375 25.6395 108.941C25.9566 109.507 26.386 109.828 26.8345 109.833H29.9723C30.3973 109.892 30.7941 110.236 31.0835 110.795C31.3729 111.354 31.5336 112.088 31.5336 112.849C31.5336 113.61 31.3729 114.344 31.0835 114.903C30.7941 115.462 30.3973 115.805 29.9723 115.865H30.1814C29.7321 115.865 29.3011 116.184 28.9834 116.751C28.6656 117.319 28.4871 118.088 28.4871 118.891C28.4871 119.693 28.6656 120.463 28.9834 121.03C29.3011 121.598 29.7321 121.917 30.1814 121.917H58.0132C58.4627 121.917 58.8936 121.598 59.2113 121.03C59.5292 120.463 59.7076 119.693 59.7076 118.891C59.7076 118.088 59.5292 117.319 59.2113 116.751C58.8936 116.184 58.4627 115.865 58.0132 115.865H49.1857C48.9528 115.898 48.7185 115.844 48.4976 115.708C48.2768 115.571 48.0742 115.354 47.9026 115.071C47.731 114.788 47.594 114.444 47.5003 114.062C47.4067 113.679 47.3583 113.266 47.3583 112.849C47.3583 112.432 47.4067 112.019 47.5003 111.636C47.594 111.254 47.731 110.91 47.9026 110.627C48.0742 110.344 48.2768 110.127 48.4976 109.99C48.7185 109.853 48.9528 109.8 49.1857 109.833H54.6245C55.0739 109.833 55.5048 109.514 55.8226 108.946C56.1403 108.379 56.3188 107.609 56.3188 106.807C56.3188 106.004 56.1403 105.235 55.8226 104.667C55.5048 104.1 55.0739 103.781 54.6245 103.781H26.8136C26.3678 103.791 25.9423 104.114 25.629 104.68C25.3157 105.247 25.1401 106.011 25.1401 106.807ZM45.1276 112.839C45.129 113.238 45.0861 113.632 45.0014 114C44.9168 114.369 44.792 114.703 44.6344 114.985C44.4768 115.266 44.2895 115.489 44.0832 115.64C43.8771 115.791 43.6561 115.868 43.4332 115.865H35.798C35.565 115.898 35.3307 115.844 35.1099 115.708C34.8891 115.571 34.6865 115.354 34.5149 115.071C34.3432 114.788 34.2063 114.444 34.1126 114.062C34.019 113.679 33.9706 113.266 33.9706 112.849C33.9706 112.432 34.019 112.019 34.1126 111.636C34.2063 111.254 34.3432 110.91 34.5149 110.627C34.6865 110.344 34.8891 110.127 35.1099 109.99C35.3307 109.853 35.565 109.8 35.798 109.833H43.4332C43.6552 109.83 43.8753 109.906 44.0808 110.056C44.2863 110.206 44.4732 110.427 44.6306 110.707C44.7882 110.986 44.9132 111.318 44.9984 111.684C45.0837 112.05 45.1276 112.443 45.1276 112.839Z" fill="#EAEAEA"/>
<path d="M81.7051 12.9299C81.7078 13.7309 81.8873 14.4976 82.2044 15.0639C82.5215 15.6304 82.951 15.9507 83.3995 15.9556L86.5372 15.9556C86.9623 16.0153 87.3591 16.3592 87.6485 16.9182C87.9379 17.4773 88.0985 18.2106 88.0985 18.9719C88.0985 19.7333 87.9379 20.4666 87.6485 21.0256C87.3591 21.5848 86.9623 21.9284 86.5372 21.9882H86.7464C86.2971 21.9882 85.866 22.307 85.5483 22.8744C85.2305 23.4418 85.052 24.2115 85.052 25.0139C85.052 25.8164 85.2305 26.5859 85.5483 27.1533C85.866 27.7207 86.2971 28.0396 86.7464 28.0396L114.578 28.0396C115.028 28.0396 115.459 27.7207 115.776 27.1533C116.094 26.5859 116.273 25.8164 116.273 25.0139C116.273 24.2115 116.094 23.4418 115.776 22.8744C115.459 22.307 115.028 21.9882 114.578 21.9882H105.751C105.518 22.0211 105.283 21.9673 105.063 21.8306C104.842 21.6939 104.639 21.477 104.468 21.1939C104.296 20.9106 104.159 20.5669 104.065 20.1846C103.972 19.8021 103.923 19.3893 103.923 18.9719C103.923 18.5546 103.972 18.1417 104.065 17.7594C104.159 17.3771 104.296 17.0334 104.468 16.7501C104.639 16.4667 104.842 16.2499 105.063 16.1132C105.283 15.9765 105.518 15.9229 105.751 15.9556H111.189C111.639 15.9556 112.07 15.6369 112.388 15.0693C112.705 14.5019 112.884 13.7324 112.884 12.9299C112.884 12.1275 112.705 11.3578 112.388 10.7904C112.07 10.223 111.639 9.90422 111.189 9.90422L83.3785 9.90422C82.9328 9.91412 82.5072 10.237 82.1939 10.8035C81.8807 11.3698 81.7051 12.1339 81.7051 12.9299ZM101.693 18.9625C101.694 19.3605 101.651 19.7552 101.566 20.1233C101.482 20.4916 101.357 20.8261 101.199 21.1076C101.042 21.3891 100.854 21.6119 100.648 21.763C100.442 21.9141 100.221 21.9906 99.9981 21.9882L92.3629 21.9882C92.1299 22.0211 91.8956 21.9673 91.6748 21.8306C91.454 21.6939 91.2515 21.477 91.0798 21.1939C90.9082 20.9106 90.7713 20.5669 90.6776 20.1846C90.584 19.8021 90.5355 19.3893 90.5355 18.9719C90.5355 18.5546 90.584 18.1417 90.6776 17.7594C90.7713 17.3771 90.9082 17.0334 91.0798 16.7501C91.2515 16.4667 91.454 16.2499 91.6748 16.1132C91.8956 15.9765 92.1299 15.9229 92.3629 15.9556L99.9981 15.9556C100.22 15.9531 100.44 16.029 100.646 16.1791C100.851 16.3291 101.038 16.5502 101.196 16.8296C101.353 17.1092 101.478 17.4415 101.563 17.8074C101.649 18.1734 101.693 18.566 101.693 18.9625Z" fill="#EAEAEA"/>
<path d="M10.4751 83.3392C10.4751 83.7342 10.5189 84.1253 10.6038 84.4905C10.6887 84.8554 10.8132 85.1871 10.9702 85.4665C11.1271 85.7458 11.3134 85.9675 11.5184 86.1186C11.7234 86.2698 11.9432 86.3477 12.1651 86.3477H34.4499C34.9009 86.3477 35.3334 86.6665 35.6523 87.2342C35.9713 87.8021 36.1503 88.572 36.1503 89.375C36.1503 90.1778 35.9713 90.9479 35.6523 91.5156C35.3334 92.0833 34.9009 92.4021 34.4499 92.4021H17.3716C17.1378 92.3694 16.9027 92.4232 16.6811 92.56C16.4594 92.6967 16.256 92.9135 16.0838 93.197C15.9115 93.4805 15.7741 93.8243 15.6801 94.2068C15.5861 94.5893 15.5376 95.0025 15.5376 95.42C15.5376 95.8376 15.5861 96.2506 15.6801 96.6333C15.7741 97.0158 15.9115 97.3596 16.0838 97.6431C16.256 97.9266 16.4594 98.1435 16.6811 98.2803C16.9027 98.4171 17.1378 98.4708 17.3716 98.4379H45.3036C45.5374 98.4708 45.7726 98.4171 45.9942 98.2803C46.2158 98.1435 46.4191 97.9266 46.5913 97.6431C46.7636 97.3596 46.9011 97.0158 46.9951 96.6333C47.0891 96.2506 47.1376 95.8376 47.1376 95.42C47.1376 95.0025 47.0891 94.5893 46.9951 94.2068C46.9011 93.8243 46.7636 93.4805 46.5913 93.197C46.4191 92.9135 46.2158 92.6967 45.9942 92.56C45.7726 92.4232 45.5374 92.3694 45.3036 92.4021H40.2126C39.7617 92.4021 39.3291 92.0833 39.0102 91.5156C38.6913 90.9479 38.5121 90.1778 38.5121 89.375C38.5121 88.572 38.6913 87.8021 39.0102 87.2342C39.3291 86.6665 39.7617 86.3477 40.2126 86.3477H40.0552C40.4818 86.2879 40.88 85.9439 41.1704 85.3846C41.4609 84.8252 41.6222 84.0915 41.6222 83.3298C41.6222 82.568 41.4609 81.8342 41.1704 81.2749C40.88 80.7156 40.4818 80.3717 40.0552 80.3119H12.1126C11.6718 80.3362 11.2538 80.6664 10.9478 81.2321C10.6418 81.7977 10.4722 82.554 10.4751 83.3392Z" fill="#EAEAEA"/>
<path d="M94.3135 36.3775C94.3135 36.7726 94.3573 37.1637 94.4422 37.5288C94.5271 37.8938 94.6516 38.2254 94.8085 38.5048C94.9655 38.7842 95.1518 39.0058 95.3568 39.157C95.5618 39.3082 95.7816 39.3861 96.0035 39.3861L118.288 39.3861C118.739 39.3861 119.172 39.7049 119.491 40.2726C119.81 40.8405 119.989 41.6104 119.989 42.4133C119.989 43.2161 119.81 43.9862 119.491 44.5539C119.172 45.1216 118.739 45.4404 118.288 45.4404L101.21 45.4404C100.976 45.4077 100.741 45.4615 100.519 45.5983C100.298 45.7351 100.094 45.9518 99.9222 46.2353C99.7499 46.5188 99.6125 46.8626 99.5185 47.2452C99.4245 47.6277 99.376 48.0408 99.376 48.4583C99.376 48.8759 99.4245 49.2889 99.5185 49.6716C99.6125 50.0541 99.7499 50.398 99.9222 50.6814C100.094 50.9649 100.298 51.1819 100.519 51.3187C100.741 51.4555 100.976 51.5091 101.21 51.4762L129.142 51.4762C129.376 51.5091 129.611 51.4555 129.833 51.3187C130.054 51.1819 130.257 50.9649 130.43 50.6814C130.602 50.398 130.739 50.0541 130.834 49.6716C130.927 49.2889 130.976 48.8759 130.976 48.4583C130.976 48.0408 130.927 47.6277 130.834 47.2452C130.739 46.8626 130.602 46.5188 130.43 46.2353C130.257 45.9518 130.054 45.7351 129.833 45.5983C129.611 45.4615 129.376 45.4077 129.142 45.4404H124.051C123.6 45.4404 123.167 45.1216 122.849 44.5539C122.53 43.9862 122.351 43.2161 122.351 42.4133C122.351 41.6104 122.53 40.8405 122.849 40.2726C123.167 39.7049 123.6 39.3861 124.051 39.3861H123.894C124.32 39.3263 124.718 38.9823 125.009 38.423C125.299 37.8635 125.461 37.1298 125.461 36.3682C125.461 35.6063 125.299 34.8725 125.009 34.3132C124.718 33.7539 124.32 33.4101 123.894 33.3503L95.951 33.3503C95.5102 33.3746 95.0922 33.7048 94.7862 34.2704C94.4802 34.836 94.3106 35.5923 94.3135 36.3775Z" fill="#EAEAEA"/>
<path d="M0 59.8668C0 60.6689 0.180843 61.438 0.502697 62.0052C0.824551 62.5723 1.26103 62.8909 1.71627 62.8909H6.4625C6.91763 62.8909 7.35422 63.2096 7.67608 63.7767C7.99793 64.3438 8.17878 65.1131 8.17878 65.915C8.17878 66.7172 7.99793 67.4863 7.67608 68.0534C7.35422 68.6205 6.91763 68.9392 6.4625 68.9392H5.57258C5.14203 68.9989 4.74009 69.3426 4.44694 69.9013C4.1538 70.46 3.99107 71.1931 3.99107 71.9539C3.99107 72.7148 4.1538 73.4479 4.44694 74.0066C4.74009 74.5655 5.14203 74.909 5.57258 74.9687H33.7639C34 75.0014 34.2372 74.9478 34.4609 74.8112C34.6846 74.6745 34.8898 74.4578 35.0636 74.1746C35.2375 73.8916 35.3762 73.5481 35.4711 73.1658C35.5659 72.7837 35.615 72.3712 35.615 71.9539C35.615 71.5367 35.5659 71.1242 35.4711 70.7421C35.3762 70.3597 35.2375 70.0163 35.0636 69.7333C34.8898 69.4501 34.6846 69.2334 34.4609 69.0967C34.2372 68.9601 34 68.9065 33.7639 68.9392H12.3211C11.8659 68.9392 11.4294 68.6205 11.1076 68.0534C10.7857 67.4863 10.6049 66.7172 10.6049 65.915C10.6049 65.1131 10.7857 64.3438 11.1076 63.7767C11.4294 63.2096 11.8659 62.8909 12.3211 62.8909H29.9076C30.3628 62.8909 30.7993 62.5723 31.1212 62.0052C31.4431 61.438 31.6239 60.6689 31.6239 59.8668C31.6239 59.0649 31.4431 58.2956 31.1212 57.7285C30.7993 57.1613 30.3628 56.8427 29.9076 56.8427H1.71627C1.26199 56.8477 0.826991 57.1677 0.505772 57.7339C0.184448 58.2999 0.00275451 59.0663 0 59.8668Z" fill="#EAEAEA"/>
<path d="M105.875 59.8249C105.875 60.6271 106.055 61.3962 106.377 61.9633C106.699 62.5304 107.136 62.8491 107.591 62.8491H112.337C112.792 62.8491 113.229 63.1677 113.551 63.7348C113.872 64.3019 114.053 65.0712 114.053 65.8732C114.053 66.6753 113.872 67.4444 113.551 68.0115C113.229 68.5786 112.792 68.8973 112.337 68.8973H111.447C111.017 68.957 110.615 69.3007 110.321 69.8594C110.028 70.4181 109.866 71.1512 109.866 71.9121C109.866 72.673 110.028 73.406 110.321 73.9647C110.615 74.5236 111.017 74.8671 111.447 74.9269L139.638 74.9269C139.874 74.9595 140.112 74.9059 140.335 74.7693C140.559 74.6327 140.764 74.4159 140.938 74.1327C141.112 73.8497 141.251 73.5063 141.346 73.124C141.44 72.7418 141.489 72.3293 141.489 71.9121C141.489 71.4949 141.44 71.0823 141.346 70.7002C141.251 70.3179 141.112 69.9744 140.938 69.6914C140.764 69.4082 140.559 69.1915 140.335 69.0548C140.112 68.9182 139.874 68.8646 139.638 68.8973L118.196 68.8973C117.74 68.8973 117.304 68.5786 116.982 68.0115C116.66 67.4444 116.479 66.6753 116.479 65.8732C116.479 65.0712 116.66 64.3019 116.982 63.7348C117.304 63.1677 117.74 62.8491 118.196 62.8491L135.782 62.8491C136.237 62.8491 136.674 62.5304 136.996 61.9633C137.318 61.3962 137.498 60.6271 137.498 59.8249C137.498 59.023 137.318 58.2537 136.996 57.6866C136.674 57.1195 136.237 56.8008 135.782 56.8008L107.591 56.8008C107.137 56.8059 106.702 57.1258 106.38 57.692C106.059 58.258 105.877 59.0245 105.875 59.8249Z" fill="#EAEAEA"/>
<path d="M28.2195 12.8886C28.2223 13.6744 28.4028 14.4265 28.7216 14.9803C29.0404 15.5344 29.4717 15.8453 29.9211 15.8451H32.3476C32.7989 15.8451 33.2317 16.1586 33.5508 16.7165C33.8699 17.2744 34.0492 18.0312 34.0492 18.8201C34.0492 19.6093 33.8699 20.3659 33.5508 20.924C33.2317 21.4819 32.7989 21.7952 32.3476 21.7952H25.5094C25.0582 21.7952 24.6253 22.1087 24.3062 22.6666C23.9871 23.2245 23.8078 23.9813 23.8078 24.7702C23.8078 25.5594 23.9871 26.316 24.3062 26.8739C24.6253 27.432 25.0582 27.7453 25.5094 27.7453L40.1206 27.7453C40.5475 27.804 40.946 28.1421 41.2365 28.6918C41.5272 29.2416 41.6886 29.9626 41.6886 30.7113C41.6886 31.4599 41.5272 32.1808 41.2365 32.7307C40.946 33.2803 40.5475 33.6184 40.1206 33.6772H17.768C17.3167 33.6772 16.8838 33.9905 16.5647 34.5486C16.2456 35.1065 16.0663 35.8631 16.0663 36.6522C16.0663 37.4412 16.2456 38.198 16.5647 38.7559C16.8838 39.3138 17.3167 39.6273 17.768 39.6273H33.3665C33.6005 39.595 33.8358 39.6479 34.0575 39.7823C34.2793 39.9167 34.4827 40.1297 34.6551 40.4083C34.8275 40.6869 34.9651 41.0248 35.0591 41.4007C35.1532 41.7767 35.2017 42.1827 35.2017 42.5931C35.2017 43.0034 35.1532 43.4094 35.0591 43.7854C34.9651 44.1613 34.8275 44.4992 34.6551 44.7778C34.4827 45.0564 34.2793 45.2694 34.0575 45.4038C33.8358 45.5383 33.6005 45.5911 33.3665 45.5588H11.1294C10.6781 45.5588 10.2453 45.8723 9.92615 46.4302C9.60704 46.9881 9.42773 47.7449 9.42773 48.5339C9.42773 49.323 9.60704 50.0796 9.92615 50.6375C10.2453 51.1956 10.6781 51.5089 11.1294 51.5089H39.0807C39.532 51.5089 39.9648 51.1956 40.2839 50.6375C40.603 50.0796 40.7823 49.323 40.7823 48.5339C40.7823 47.7449 40.603 46.9881 40.2839 46.4302C39.9648 45.8723 39.532 45.5588 39.0807 45.5588H39.1752C38.7483 45.5001 38.3498 45.1621 38.0592 44.6125C37.7686 44.0627 37.6072 43.3417 37.6072 42.5931C37.6072 41.8444 37.7686 41.1234 38.0592 40.5736C38.3498 40.024 38.7483 39.686 39.1752 39.6273H45.7192C46.1705 39.6273 46.6034 39.3138 46.9225 38.7559C47.2416 38.198 47.4209 37.4412 47.4209 36.6522C47.4209 35.8631 47.2416 35.1065 46.9225 34.5486C46.6034 33.9905 46.1705 33.6772 45.7192 33.6772H45.9293C45.6953 33.7093 45.46 33.6566 45.2383 33.5222C45.0165 33.3878 44.8131 33.1744 44.6407 32.896C44.4683 32.6174 44.3308 32.2795 44.2367 31.9036C44.1427 31.5276 44.094 31.1216 44.094 30.7113C44.094 30.3009 44.1427 29.895 44.2367 29.5189C44.3308 29.143 44.4683 28.8051 44.6407 28.5265C44.8131 28.2481 45.0165 28.0347 45.2383 27.9003C45.46 27.7659 45.6953 27.7131 45.9293 27.7453H53.4607C53.9121 27.7453 54.3448 27.432 54.664 26.8739C54.9831 26.316 55.1624 25.5594 55.1624 24.7702C55.1624 23.9813 54.9831 23.2245 54.664 22.6666C54.3448 22.1087 53.9121 21.7952 53.4607 21.7952H38.1668C37.7155 21.7952 37.2827 21.4819 36.9636 20.924C36.6445 20.3659 36.4652 19.6093 36.4652 18.8201C36.4652 18.0312 36.6445 17.2744 36.9636 16.7165C37.2827 16.1586 37.7155 15.8451 38.1668 15.8451L57.8724 15.8451C58.1065 15.8774 58.3417 15.8245 58.5635 15.6901C58.7852 15.5557 58.9887 15.3427 59.1611 15.0641C59.3334 14.7855 59.4709 14.4476 59.565 14.0716C59.6591 13.6957 59.7077 13.2897 59.7077 12.8794C59.7077 12.469 59.6591 12.0631 59.565 11.687C59.4709 11.3111 59.3334 10.9732 59.1611 10.6946C58.9887 10.416 58.7852 10.2028 58.5635 10.0684C58.3417 9.93395 58.1065 9.88124 57.8724 9.91356L29.9106 9.91356C29.4612 9.91833 29.031 10.2338 28.7141 10.7912C28.3973 11.3487 28.2195 12.1026 28.2195 12.8886Z" fill="#EAEAEA"/>
<path d="M100.632 83.2828C100.634 84.0686 100.815 84.8206 101.134 85.3745C101.452 85.9285 101.884 86.2395 102.333 86.2393H104.76C105.211 86.2393 105.644 86.5527 105.963 87.1107C106.282 87.6686 106.461 88.4254 106.461 89.2143C106.461 90.0034 106.282 90.76 105.963 91.3181C105.644 91.8761 105.211 92.1894 104.76 92.1894H97.9215C97.4703 92.1894 97.0374 92.5028 96.7183 93.0608C96.3992 93.6187 96.2199 94.3755 96.2199 95.1644C96.2199 95.9535 96.3992 96.7101 96.7183 97.2681C97.0374 97.8262 97.4703 98.1394 97.9215 98.1394H112.533C112.96 98.1982 113.358 98.5363 113.649 99.086C113.939 99.6358 114.101 100.357 114.101 101.105C114.101 101.854 113.939 102.575 113.649 103.125C113.358 103.674 112.96 104.013 112.533 104.071H90.1801C89.7288 104.071 89.2959 104.385 88.9768 104.943C88.6577 105.501 88.4784 106.257 88.4784 107.046C88.4784 107.835 88.6577 108.592 88.9768 109.15C89.2959 109.708 89.7288 110.021 90.1801 110.021H105.779C106.013 109.989 106.248 110.042 106.47 110.176C106.691 110.311 106.895 110.524 107.067 110.802C107.24 111.081 107.377 111.419 107.471 111.795C107.565 112.171 107.614 112.577 107.614 112.987C107.614 113.398 107.565 113.804 107.471 114.18C107.377 114.555 107.24 114.893 107.067 115.172C106.895 115.451 106.691 115.664 106.47 115.798C106.248 115.932 106.013 115.985 105.779 115.953H83.5415C83.0902 115.953 82.6574 116.266 82.3383 116.824C82.0191 117.382 81.8398 118.139 81.8398 118.928C81.8398 119.717 82.0191 120.474 82.3383 121.032C82.6574 121.59 83.0902 121.903 83.5415 121.903L111.493 121.903C111.944 121.903 112.377 121.59 112.696 121.032C113.015 120.474 113.194 119.717 113.194 118.928C113.194 118.139 113.015 117.382 112.696 116.824C112.377 116.266 111.944 115.953 111.493 115.953H111.587C111.16 115.894 110.762 115.556 110.471 115.007C110.181 114.457 110.019 113.736 110.019 112.987C110.019 112.239 110.181 111.518 110.471 110.968C110.762 110.418 111.16 110.08 111.587 110.021H118.131C118.583 110.021 119.015 109.708 119.335 109.15C119.654 108.592 119.833 107.835 119.833 107.046C119.833 106.257 119.654 105.501 119.335 104.943C119.015 104.385 118.583 104.071 118.131 104.071H118.341C118.107 104.103 117.872 104.051 117.65 103.916C117.429 103.782 117.225 103.569 117.053 103.29C116.88 103.012 116.743 102.674 116.649 102.298C116.555 101.922 116.506 101.516 116.506 101.105C116.506 100.695 116.555 100.289 116.649 99.9131C116.743 99.5372 116.88 99.1993 117.053 98.9207C117.225 98.6423 117.429 98.4289 117.65 98.2944C117.872 98.16 118.107 98.1073 118.341 98.1394H125.873C126.324 98.1394 126.757 97.8262 127.076 97.2681C127.395 96.7101 127.574 95.9535 127.574 95.1644C127.574 94.3755 127.395 93.6187 127.076 93.0608C126.757 92.5028 126.324 92.1894 125.873 92.1894L110.579 92.1894C110.128 92.1894 109.695 91.8761 109.376 91.3181C109.057 90.76 108.877 90.0034 108.877 89.2143C108.877 88.4254 109.057 87.6686 109.376 87.1107C109.695 86.5527 110.128 86.2393 110.579 86.2393L130.285 86.2393C130.519 86.2716 130.754 86.2187 130.976 86.0843C131.197 85.9498 131.401 85.7368 131.573 85.4582C131.746 85.1796 131.883 84.8417 131.977 84.4658C132.071 84.0899 132.12 83.6838 132.12 83.2736C132.12 82.8631 132.071 82.4573 131.977 82.0812C131.883 81.7053 131.746 81.3674 131.573 81.0888C131.401 80.8102 131.197 80.597 130.976 80.4625C130.754 80.3281 130.519 80.2754 130.285 80.3077L102.323 80.3077C101.873 80.3125 101.443 80.628 101.126 81.1854C100.809 81.7429 100.632 82.4968 100.632 83.2828Z" fill="#EAEAEA"/>
<path d="M65.0312 65.6729C65.0312 66.7763 65.3527 67.8549 65.9549 68.7721C66.5569 69.6894 67.4128 70.404 68.4139 70.8257C69.4151 71.2475 70.5165 71.3573 71.579 71.1413C72.6414 70.9251 73.617 70.393 74.3824 69.612C75.1477 68.8309 75.6683 67.8364 75.8783 66.7539C76.0883 65.6715 75.9783 64.5499 75.5621 63.5312C75.1461 62.5124 74.4426 61.6423 73.5407 61.031C72.6388 60.4196 71.579 60.0945 70.4956 60.0967C69.0454 60.0997 67.6556 60.6885 66.6311 61.734C65.6066 62.7794 65.0312 64.196 65.0312 65.6729Z" fill="#8A4388"/>
<path d="M70.4954 83.1016C69.4125 83.1016 68.3539 83.4286 67.4534 84.0413C66.553 84.6541 65.8513 85.525 65.4368 86.5438C65.0224 87.5628 64.9139 88.684 65.1253 89.7657C65.3365 90.8473 65.858 91.8409 66.6237 92.6208C67.3895 93.4007 68.3651 93.9318 69.4273 94.1469C70.4894 94.3621 71.5903 94.2517 72.5908 93.8296C73.5914 93.4075 74.4465 92.6928 75.0481 91.7758C75.6497 90.8587 75.9708 89.7806 75.9708 88.6778C75.9708 87.1989 75.394 85.7805 74.3671 84.7348C73.3403 83.6891 71.9476 83.1016 70.4954 83.1016Z" fill="#424CCE"/>
<path d="M87.2982 60.0967C86.2152 60.0967 85.1566 60.4237 84.2562 61.0365C83.3558 61.6492 82.654 62.5201 82.2395 63.539C81.8251 64.5579 81.7167 65.6791 81.928 66.7608C82.1392 67.8425 82.6607 68.8361 83.4265 69.6159C84.1922 70.3958 85.1679 70.9269 86.2299 71.142C87.2921 71.3572 88.3931 71.2468 89.3935 70.8247C90.394 70.4027 91.2492 69.6879 91.8508 68.7709C92.4524 67.854 92.7736 66.7759 92.7736 65.6729C92.7736 64.1941 92.1967 62.7756 91.1699 61.7299C90.143 60.6842 88.7503 60.0967 87.2982 60.0967Z" fill="#8A4388"/>
<path d="M70.4956 47.9397C71.579 47.942 72.6388 47.6168 73.5407 47.0054C74.4426 46.394 75.1461 45.524 75.5621 44.5052C75.9783 43.4865 76.0883 42.3649 75.8783 41.2825C75.6683 40.2001 75.1477 39.2054 74.3824 38.4244C73.617 37.6435 72.6414 37.1113 71.579 36.8953C70.5165 36.6791 69.4151 36.7889 68.4139 37.2106C67.4128 37.6324 66.5569 38.347 65.9549 39.2643C65.3527 40.1815 65.0312 41.2601 65.0312 42.3635C65.0312 43.8404 65.6066 45.257 66.6311 46.3025C67.6556 47.3479 69.0454 47.9367 70.4956 47.9397Z" fill="#DC3838"/>
<path d="M59.0572 65.0296C59.0572 63.9267 58.7361 62.8486 58.1345 61.9315C57.5329 61.0146 56.6777 60.2999 55.6772 59.8778C54.6767 59.4558 53.5758 59.3454 52.5136 59.5605C51.4515 59.7757 50.4759 60.3068 49.7101 61.0866C48.9444 61.8664 48.4229 62.86 48.2117 63.9417C48.0004 65.0234 48.1088 66.1447 48.5232 67.1635C48.9377 68.1825 49.6395 69.0533 50.5398 69.666C51.4403 70.2787 52.4989 70.6059 53.5818 70.6059C55.034 70.6059 56.4267 70.0183 57.4536 68.9726C58.4804 67.9268 59.0572 66.5085 59.0572 65.0296Z" fill="#8A4388"/>
<path d="M82.9534 73.2698C80.9946 71.2628 79.8952 68.548 79.8952 65.7182C79.8952 62.8884 80.9946 60.1736 82.9534 58.1666C83.7171 57.3858 84.2363 56.3922 84.4459 55.3112C84.6554 54.23 84.5457 53.11 84.1306 52.0923C83.7156 51.0747 83.0138 50.2051 82.1138 49.5934C81.2139 48.9816 80.1562 48.6552 79.074 48.6552C77.992 48.6552 76.9343 48.9816 76.0344 49.5934C75.1344 50.2051 74.4325 51.0747 74.0176 52.0923C73.6025 53.11 73.4927 54.23 73.7022 55.3112C73.9118 56.3922 74.4311 57.3858 75.1947 58.1666C76.1786 59.1594 76.9597 60.341 77.4927 61.6429C78.0256 62.9449 78.3 64.3415 78.3 65.7521C78.3 67.1626 78.0256 68.5593 77.4927 69.8612C76.9597 71.1632 76.1786 72.3447 75.1947 73.3376C74.4311 74.1182 73.9118 75.1119 73.7022 76.193C73.4927 77.2741 73.6025 78.3941 74.0176 79.4118C74.4325 80.4294 75.1344 81.299 76.0344 81.9107C76.9343 82.5225 77.992 82.849 79.074 82.849C80.1562 82.849 81.2139 82.5225 82.1138 81.9107C83.0138 81.299 83.7156 80.4294 84.1306 79.4118C84.5457 78.3941 84.6554 77.2741 84.4459 76.193C84.2363 75.1119 83.7171 74.1182 82.9534 73.3376V73.2698Z" fill="url(#paint1_linear_853_189)"/>
<path d="M67.1923 76.5206C67.1865 75.0566 66.6221 73.652 65.6184 72.6037C63.6597 70.5967 62.5603 67.8818 62.5603 65.0521C62.5603 62.2223 63.6597 59.5076 65.6184 57.5004C66.3821 56.7198 66.9014 55.7261 67.1109 54.6451C67.3205 53.564 67.2107 52.4439 66.7956 51.4263C66.3807 50.4086 65.6788 49.5391 64.7788 48.9273C63.8789 48.3156 62.8211 47.989 61.7391 47.989C60.6571 47.989 59.5993 48.3156 58.6993 48.9273C57.7994 49.5391 57.0976 50.4086 56.6825 51.4263C56.2675 52.4439 56.1578 53.564 56.3673 54.6451C56.5769 55.7261 57.0962 56.7198 57.8597 57.5004C58.842 58.4931 59.6216 59.6739 60.1536 60.9749C60.6857 62.2758 60.9595 63.6711 60.9595 65.0803C60.9595 66.4896 60.6857 67.8849 60.1536 69.1858C59.6216 70.4868 58.842 71.6676 57.8597 72.6601C57.2294 73.3121 56.7662 74.1121 56.5111 74.9895C56.2561 75.8668 56.2169 76.7946 56.3971 77.691C56.5773 78.5874 56.9713 79.4249 57.5445 80.1296C58.1176 80.8343 58.8522 81.3845 59.6835 81.7317C60.5147 82.0789 61.4171 82.2125 62.311 82.1207C63.2049 82.0288 64.0629 81.7143 64.8093 81.2049C65.5557 80.6956 66.1675 80.007 66.5908 79.1999C67.0142 78.3928 67.236 77.492 67.2367 76.577L67.1923 76.5206Z" fill="url(#paint2_linear_853_189)"/>
<defs>
<linearGradient id="paint0_linear_853_189" x1="443.787" y1="24" x2="443.787" y2="109" gradientUnits="userSpaceOnUse">
<stop stop-color="#DC3838"/>
<stop offset="0.52" stop-color="#8A4388"/>
<stop offset="1" stop-color="#3E4DD2"/>
</linearGradient>
<linearGradient id="paint1_linear_853_189" x1="79.0741" y1="48.6552" x2="79.0741" y2="82.849" gradientUnits="userSpaceOnUse">
<stop stop-color="#DC3838"/>
<stop offset="0.52" stop-color="#8A4388"/>
<stop offset="1" stop-color="#3E4DD2"/>
</linearGradient>
<linearGradient id="paint2_linear_853_189" x1="61.7502" y1="47.989" x2="61.7502" y2="82.1488" gradientUnits="userSpaceOnUse">
<stop stop-color="#DC3838"/>
<stop offset="0.52" stop-color="#8A4388"/>
<stop offset="1" stop-color="#3E4DD2"/>
</linearGradient>
</defs>
</svg>
