<?xml version="1.0" standalone="no"?>
<!DOCTYPE svg PUBLIC "-//W3C//DTD SVG 20010904//EN"
 "http://www.w3.org/TR/2001/REC-SVG-20010904/DTD/svg10.dtd">
<svg version="1.0" xmlns="http://www.w3.org/2000/svg"
 width="920.000000pt" height="920.000000pt" viewBox="0 0 920.000000 920.000000"
 preserveAspectRatio="xMidYMid meet">
<metadata>
Created by potrace 1.14, written by Peter Selinger 2001-2017
</metadata>
<g transform="translate(0.000000,920.000000) scale(0.100000,-0.100000)"
fill="#000000" stroke="none">
<path d="M1892 8250 c-59 -59 -74 -184 -33 -280 27 -64 48 -73 174 -75 79 -2
101 -6 119 -21 83 -74 78 -294 -8 -351 -22 -14 -59 -16 -269 -17 -240 -1 -244
-1 -268 -24 -33 -31 -53 -85 -56 -153 -5 -111 37 -195 101 -205 54 -8 158 -9
158 -3 0 4 16 3 35 -1 19 -4 37 -4 40 0 2 4 23 4 45 0 22 -4 40 -4 40 0 0 4
16 4 34 0 19 -4 37 -5 40 -2 8 7 85 7 92 -1 3 -3 17 -2 30 3 14 6 26 6 29 0 3
-5 15 -6 28 -1 12 5 32 5 44 0 13 -5 25 -4 28 1 3 5 12 7 20 4 21 -8 135 -10
135 -3 0 4 16 3 35 -1 20 -4 38 -4 41 1 3 5 9 7 13 5 4 -3 27 -6 50 -7 28 -2
50 -11 65 -26 71 -71 73 -250 3 -329 l-26 -29 -738 0 c-407 1 -750 -3 -765 -8
-19 -6 -35 -25 -54 -64 -47 -94 -32 -234 31 -293 l24 -23 539 -1 c452 -1 542
-3 556 -15 76 -64 84 -260 13 -334 l-32 -34 -740 1 c-576 1 -746 -1 -767 -11
-53 -25 -78 -80 -82 -183 -3 -79 36 -180 70 -180 8 0 14 -3 14 -8 0 -4 421 -7
936 -7 l936 0 28 33 c15 18 33 51 39 73 18 58 12 156 -12 203 -25 51 -39 64
-79 78 -63 22 -98 87 -100 183 -2 96 30 174 80 193 16 7 112 10 241 9 186 -2
218 0 242 15 89 54 97 277 13 349 -11 8 -38 21 -61 27 -37 11 -45 19 -67 67
-43 90 -31 228 25 289 10 10 32 20 51 21 18 2 34 4 36 5 7 5 83 2 88 -3 3 -3
17 -2 30 3 14 6 26 6 29 0 3 -5 15 -6 28 -1 12 5 32 5 44 0 13 -5 25 -4 28 2
4 5 11 6 17 3 5 -4 36 -6 68 -6 32 0 63 2 68 6 6 3 13 2 16 -3 9 -13 88 7 109
27 71 71 65 281 -10 344 -13 10 -118 13 -534 14 -414 0 -524 3 -544 14 -44 23
-70 94 -70 186 1 69 5 87 28 126 15 26 37 50 50 54 12 4 320 8 683 8 647 1
662 1 684 21 34 31 53 75 57 135 2 30 5 63 7 73 2 9 1 17 -3 17 -4 0 -8 6 -9
13 -4 46 -37 101 -69 116 -17 8 -306 11 -953 11 l-928 0 -30 -30z"/>
<path d="M5375 8258 c-61 -54 -80 -206 -36 -299 30 -64 51 -72 183 -73 125 -2
149 -10 174 -58 23 -45 29 -75 27 -154 -1 -96 -27 -147 -91 -177 -39 -18 -52
-31 -74 -77 -23 -47 -27 -65 -24 -130 3 -83 24 -139 64 -170 24 -20 44 -20
948 -20 l922 0 30 25 c84 70 79 295 -7 352 -23 15 -62 17 -338 18 -296 0 -312
1 -334 20 -81 73 -81 278 1 350 20 18 37 20 219 21 108 0 206 4 218 8 23 7 64
65 72 101 12 52 5 162 -12 206 -34 85 44 79 -995 79 l-921 0 -26 -22z m1175
-393 c40 -35 61 -102 59 -179 -3 -83 -15 -122 -51 -161 l-28 -30 -277 0 -278
-1 -32 31 c-74 74 -73 255 3 336 l25 26 278 -1 c264 -1 280 -2 301 -21z"/>
<path d="M6225 6751 c-78 -15 -118 -199 -67 -313 35 -80 -14 -75 811 -74 l734
1 32 -22 c56 -38 78 -152 53 -274 -6 -29 -52 -88 -73 -93 -11 -3 -279 -6 -596
-6 l-576 0 -20 -22 c-42 -47 -52 -74 -58 -163 -6 -93 35 -190 86 -204 8 -2
434 -4 947 -4 l932 0 29 27 c74 71 74 258 1 336 l-28 30 -192 0 c-107 0 -199
4 -210 10 -60 32 -90 169 -60 280 13 47 55 100 80 100 31 0 77 53 93 107 30
99 0 244 -56 275 -17 9 -246 12 -932 13 -501 0 -920 -2 -930 -4z"/>
<path d="M4485 6517 c-65 -22 -104 -46 -151 -93 -36 -37 -73 -90 -79 -114 -1
-3 -6 -14 -11 -25 -5 -11 -9 -63 -9 -115 0 -89 2 -101 34 -163 31 -61 97 -137
120 -137 5 0 11 -4 13 -8 2 -4 27 -18 57 -31 116 -49 270 -18 366 74 51 50
100 126 88 139 -4 3 -2 6 3 6 5 0 12 10 14 23 6 33 4 169 -3 193 -13 50 -48
112 -84 150 -33 35 -108 95 -108 86 0 -2 -13 2 -30 9 -43 18 -173 21 -220 6z"/>
<path d="M3938 5793 c-114 -29 -191 -90 -241 -192 -29 -60 -32 -73 -32 -161 1
-120 19 -168 99 -254 43 -45 116 -154 139 -206 59 -135 76 -312 43 -445 -16
-62 -33 -109 -58 -159 -34 -66 -29 -59 -103 -146 -30 -36 -70 -94 -88 -130
-29 -60 -32 -73 -32 -160 1 -88 3 -99 35 -158 33 -63 119 -152 146 -152 8 0
14 -4 14 -10 0 -5 8 -10 18 -10 10 0 22 -3 26 -7 18 -18 143 -23 198 -9 82 22
125 51 200 136 80 90 87 308 12 407 -13 17 -24 34 -24 37 0 5 -40 52 -83 98
-32 34 -96 172 -116 249 -54 213 3 467 139 623 14 15 37 42 52 60 52 59 81
134 84 217 4 120 -25 198 -106 279 -84 84 -212 121 -322 93z"/>
<path d="M5130 5760 c-8 -5 -18 -7 -22 -4 -4 3 -25 0 -45 -5 -21 -6 -40 -9
-43 -8 -3 1 -19 -8 -37 -21 -17 -12 -35 -22 -39 -22 -16 0 -106 -105 -124
-145 -38 -84 -44 -188 -15 -276 16 -47 67 -125 105 -159 27 -24 89 -120 114
-175 48 -105 58 -153 62 -289 3 -122 -16 -208 -67 -311 -47 -94 -55 -107 -109
-165 -57 -61 -107 -150 -117 -207 -41 -232 124 -434 354 -434 35 0 67 3 73 6
6 4 21 8 35 11 62 11 162 99 202 178 31 61 37 92 36 176 -1 87 -30 159 -99
245 -111 138 -162 240 -187 372 -30 160 5 349 89 487 37 59 48 74 107 139 32
36 76 116 85 156 13 59 5 166 -17 223 -43 110 -165 211 -267 220 -22 2 -44 7
-50 10 -5 4 -16 3 -24 -2z"/>
<path d="M78 5219 c-23 -13 -58 -63 -66 -96 -14 -55 -6 -176 13 -213 37 -73
39 -74 229 -75 94 -1 181 -5 193 -9 25 -8 60 -53 71 -88 3 -13 6 -59 7 -103 0
-131 -35 -182 -133 -194 -67 -8 -84 -21 -112 -85 -15 -35 -19 -64 -16 -123 3
-82 19 -126 58 -163 22 -20 31 -20 963 -20 841 0 943 2 963 16 63 44 87 199
46 292 -40 91 23 84 -799 84 l-725 0 -26 31 c-38 45 -47 73 -50 155 -2 56 2
84 18 123 38 90 -8 84 665 84 l593 0 31 33 c74 79 72 261 -3 332 l-29 29 -937
0 c-573 0 -944 -4 -954 -10z"/>
<path d="M6939 5199 c-57 -61 -71 -191 -31 -282 34 -76 52 -82 243 -81 118 1
171 -2 190 -12 67 -34 95 -201 51 -304 -12 -31 -48 -70 -65 -71 -7 0 -32 -2
-56 -4 -80 -5 -130 -89 -125 -214 3 -71 32 -141 69 -165 19 -12 160 -14 960
-15 l939 0 32 34 c74 79 69 270 -9 338 -11 9 -27 18 -36 18 -9 1 -329 3 -711
4 -382 1 -707 3 -721 4 -31 1 -72 56 -84 111 -10 44 -14 132 -6 145 3 6 7 19
8 30 4 24 40 76 62 90 10 6 228 10 596 11 320 0 593 4 607 7 18 5 37 23 55 55
25 42 28 57 28 133 0 91 -10 123 -54 171 l-24 28 -945 0 -944 0 -29 -31z"/>
<path d="M3385 5043 c-235 -70 -333 -364 -188 -561 41 -55 75 -83 141 -114 51
-25 77 -31 135 -32 70 0 167 20 167 36 0 4 6 8 14 8 21 0 119 99 145 148 30
57 36 83 35 177 -1 65 -6 92 -28 141 -71 159 -257 246 -421 197z"/>
<path d="M4502 5004 c-112 -29 -189 -93 -238 -199 -30 -65 -32 -76 -30 -160 4
-112 30 -176 103 -250 86 -88 226 -124 347 -88 162 48 267 203 253 375 -18
222 -226 376 -435 322z"/>
<path d="M5628 5015 c-2 -2 -18 -6 -36 -10 -49 -8 -111 -44 -163 -94 -77 -75
-107 -155 -105 -274 4 -136 80 -251 206 -311 55 -26 77 -31 148 -32 45 -1 82
2 82 6 0 4 6 7 13 7 29 0 106 46 150 89 25 25 59 71 74 102 24 50 28 68 28
152 0 60 -5 108 -14 130 -56 135 -175 224 -313 234 -37 2 -68 3 -70 1z"/>
<path d="M783 3700 c-59 -16 -93 -77 -98 -176 -4 -81 10 -133 47 -178 l29 -36
749 0 748 0 31 -26 c80 -67 79 -272 -2 -349 -21 -19 -37 -20 -608 -20 -492 0
-589 -2 -603 -14 -34 -28 -59 -94 -62 -162 -3 -84 10 -138 46 -181 l28 -33
933 -2 c575 -1 944 3 959 8 65 25 100 147 76 259 -12 51 -46 109 -70 117 -12
4 -105 7 -208 8 -171 0 -188 2 -208 20 -40 36 -61 92 -62 163 -2 118 28 180
107 218 56 27 87 90 89 185 1 39 -1 72 -5 75 -4 2 -10 20 -13 39 -5 23 -18 44
-40 61 l-33 27 -906 1 c-498 1 -914 -1 -924 -4z"/>
<path d="M6655 3702 c-64 -7 -109 -89 -109 -198 0 -74 33 -155 71 -175 14 -8
62 -13 122 -13 84 -1 102 -4 121 -21 30 -27 47 -63 56 -115 12 -76 5 -129 -22
-181 -33 -66 -24 -64 -298 -69 -141 -3 -258 -9 -267 -15 -72 -47 -93 -194 -43
-306 30 -68 16 -66 541 -65 260 0 486 -2 502 -7 30 -7 66 -54 78 -99 10 -40
10 -152 -1 -183 -5 -16 -16 -36 -23 -43 -7 -7 -13 -17 -13 -22 0 -32 -46 -34
-785 -34 -578 -1 -745 -4 -762 -14 -43 -24 -64 -83 -67 -182 -2 -50 3 -76 21
-112 40 -83 1 -78 598 -78 593 0 557 4 597 -73 28 -56 30 -175 3 -232 -17 -36
-48 -73 -64 -76 -3 -1 -344 -2 -758 -3 l-752 -1 -26 -30 c-14 -17 -28 -41 -32
-55 -3 -14 -9 -29 -13 -35 -12 -16 -3 -147 13 -185 8 -19 25 -46 36 -59 l21
-24 913 1 c501 0 924 1 938 1 82 3 134 161 94 284 -19 59 -38 80 -92 102 -46
19 -67 46 -85 111 -29 98 -4 218 54 258 19 13 60 16 253 16 223 0 232 1 254
21 74 69 82 259 14 331 -14 14 -37 29 -52 33 -14 3 -36 13 -48 21 -80 51 -89
253 -14 336 l27 31 275 1 c192 1 280 5 295 13 12 7 32 34 44 60 39 82 27 214
-24 278 l-24 30 -536 5 -536 5 -17 25 c-39 54 -46 77 -48 155 -2 44 0 85 3 90
4 6 7 12 8 15 5 29 29 63 53 78 27 16 73 17 682 17 392 -1 662 3 674 8 85 40
113 216 51 322 -17 29 -36 47 -53 51 -26 7 -1790 12 -1848 6z"/>
<path d="M4585 3523 c-101 -7 -183 -42 -247 -106 -38 -37 -87 -116 -95 -152
-1 -5 -5 -21 -8 -35 -26 -106 20 -254 102 -331 38 -36 90 -72 108 -75 6 -1 29
-9 53 -18 24 -9 40 -11 36 -5 -4 8 -1 8 12 2 48 -24 185 13 255 69 59 47 108
121 128 193 3 11 5 56 5 100 0 81 -28 175 -61 201 -7 6 -13 14 -13 18 0 27
-143 120 -197 129 -10 1 -22 5 -28 7 -5 3 -28 4 -50 3z"/>
<path d="M1705 2160 c-53 -32 -85 -163 -62 -255 14 -55 55 -115 81 -117 11 -1
66 -2 121 -3 118 -3 148 -13 171 -57 25 -46 28 -62 28 -148 1 -92 -28 -161
-74 -180 -43 -18 -85 -59 -101 -100 -8 -20 -13 -68 -13 -110 1 -85 22 -144 62
-175 26 -19 51 -19 946 -20 1027 0 954 -5 992 71 27 56 29 195 3 246 -42 82
-24 78 -379 78 -309 0 -317 0 -339 21 -28 27 -52 81 -56 129 -2 19 -4 40 -5
45 -1 6 -2 12 -1 15 1 3 4 19 5 37 5 44 44 121 69 134 13 7 94 12 220 12 l201
0 32 31 c41 39 64 124 53 200 -9 67 -45 143 -72 153 -12 4 -435 7 -940 8 -796
0 -921 -2 -942 -15z m1159 -394 c85 -55 93 -267 13 -347 l-29 -30 -283 3
c-283 3 -283 3 -304 26 -54 63 -66 204 -25 291 12 27 28 52 35 57 26 16 85 19
325 18 208 -1 247 -3 268 -18z"/>
</g>
</svg>
